<?xml version="1.0" encoding="utf-8"?>
<!-- Generator: Adobe Illustrator 26.4.1, SVG Export Plug-In . SVG Version: 6.00 Build 0)  -->
<svg version="1.1" id="Layer_1" xmlns="http://www.w3.org/2000/svg" xmlns:xlink="http://www.w3.org/1999/xlink" x="0px" y="0px"
	 viewBox="0 0 350 650" style="enable-background:new 0 0 350 650;" xml:space="preserve">
<style type="text/css">
	.st0{fill:#163A64;}
	.st1{fill:#727373;}
	.st2{fill:#163A62;}
	.st3{fill:#163A63;}
	.st4{fill:#172D4A;}
	.st5{fill:#F7B01A;}
	.st6{fill:#FFFFFF;}
	.st7{fill:#3CB3C9;}
	.st8{fill:#193A62;}
	.st9{fill:#223F83;}
	.st10{fill:none;stroke:#ABABAB;stroke-width:0.5;stroke-miterlimit:10;}
	.st11{fill:#CCCCCB;}
	.st12{fill:#999999;}
	.st13{fill-rule:evenodd;clip-rule:evenodd;fill:#999999;}
	.st14{fill:none;stroke:#999999;stroke-width:0.5;stroke-miterlimit:10;}
	.st15{fill:none;stroke:#999999;stroke-width:2;stroke-miterlimit:10;}
	.st16{fill:#2799C5;}
	.st17{fill:#CBC62C;}
</style>
<g id="Layer_1_00000182516908774865580990000013265688826746295434_">
	<rect class="st0" width="350" height="650"/>
</g>
<path class="st1" d="M70.3,215.4c-0.4,0.2-0.8,0.4-1.2,0.5c-0.4,0.1-0.7,0.2-1.1,0.2c-0.4,0.1-0.8,0.1-1.2,0.1c-1.5,0.1-3-0.5-4-1.6
	c-0.9-1.2-1.3-2.6-1.3-4.1c-0.1-1.5,0.4-2.9,1.3-4.1c1-1.1,2.5-1.7,4-1.6c1.2,0,2.3,0.2,3.4,0.5v1.4c-0.7-0.3-1.5-0.5-2.3-0.7
	c-0.4-0.1-0.8-0.1-1.2-0.1c-1.1-0.1-2.2,0.4-2.8,1.3c-0.6,1-0.9,2.1-0.9,3.2c-0.1,1.2,0.3,2.3,1,3.2c0.7,0.8,1.8,1.3,2.9,1.2
	c0.3,0,0.7,0,1-0.1s0.7-0.2,1-0.3c0.4-0.2,0.8-0.4,1.2-0.6L70.3,215.4z"/>
<path class="st1" d="M76,216.1c-0.7,0-1.4-0.1-2-0.5c-0.6-0.3-1.1-0.9-1.3-1.5c-0.3-0.7-0.5-1.5-0.5-2.2s0.1-1.5,0.4-2.1
	s0.7-1.1,1.3-1.5c1.3-0.6,2.7-0.6,4,0c0.6,0.3,1.1,0.8,1.3,1.5c0.3,0.7,0.5,1.5,0.5,2.2s-0.1,1.5-0.4,2.2c-0.3,0.6-0.7,1.1-1.3,1.5
	C77.4,216,76.7,216.2,76,216.1z M76,215c0.7,0,1.3-0.3,1.7-0.8c0.4-0.7,0.6-1.4,0.6-2.2c0.1-0.8-0.2-1.6-0.6-2.3
	c-0.7-0.9-2.1-1.1-3-0.3c-0.1,0.1-0.2,0.2-0.3,0.3c-0.8,1.4-0.8,3.1,0,4.6C74.8,214.8,75.4,215,76,215z M74.7,206.5l1.6-2.2h1.6
	l-1.9,2.2H74.7z"/>
<path class="st1" d="M87.5,215.9v-1.5c-0.2,0.5-0.6,0.9-1.1,1.3c-0.5,0.3-1,0.4-1.5,0.4c-0.9,0-1.7-0.4-2.3-1.1
	c-0.6-0.8-0.8-1.8-0.8-2.8c0-1.1,0.3-2.2,0.9-3.1c0.6-0.8,1.5-1.3,2.5-1.2c0.3,0,0.6,0,0.9,0.1s0.5,0.2,0.7,0.3
	c0.3,0.2,0.5,0.4,0.7,0.7v-4.5h1.4v11.6h-1.4V215.9z M87.5,209.9c-0.3-0.3-0.7-0.6-1.2-0.8c-0.3-0.1-0.6-0.2-0.9-0.2
	c-0.6,0-1.3,0.3-1.6,0.9c-0.4,0.7-0.5,1.5-0.5,2.3c0,0.7,0.1,1.4,0.4,2c0.3,0.5,0.8,0.8,1.4,0.8c0.4,0,0.8-0.1,1.2-0.3
	c0.4-0.3,0.8-0.6,1.2-1V209.9z"/>
<path class="st1" d="M92.1,206.6v-1.4h1.4v1.4H92.1z M92.1,215.9V208h1.4v7.9H92.1z"/>
<path class="st1" d="M96.7,218.6l0.2-1.2c0.8,0.4,1.6,0.6,2.5,0.6c0.7,0.1,1.4-0.2,1.9-0.7c0.4-0.6,0.6-1.2,0.5-1.9v-1.2
	c-0.2,0.5-0.6,0.9-1,1.2c-0.5,0.3-1.1,0.5-1.6,0.5c-1,0.1-1.9-0.4-2.4-1.2S96,213,96,212c0-0.7,0.1-1.5,0.4-2.1c0.5-1.2,1.7-2,3-2
	c0.3,0,0.6,0,0.8,0.1c0.3,0.1,0.5,0.2,0.7,0.3c0.3,0.2,0.5,0.4,0.8,0.7v-1h1.4v5.8c0.1,1.2-0.1,2.3-0.4,3.4
	c-0.3,0.6-0.7,1.1-1.3,1.4c-0.7,0.3-1.4,0.4-2.2,0.4c-0.3,0-0.6,0-0.9,0s-0.6-0.1-0.8-0.1C97.4,218.8,97,218.7,96.7,218.6z
	 M101.9,213.2v-3.3c-0.3-0.3-0.6-0.6-1-0.7c-0.3-0.2-0.7-0.3-1.1-0.2c-0.6,0-1.2,0.3-1.6,0.8c-0.7,1.3-0.8,2.8-0.2,4.1
	c0.3,0.5,0.9,0.8,1.4,0.7c0.4,0,0.9-0.1,1.2-0.3C101.2,213.9,101.6,213.6,101.9,213.2z"/>
<path class="st1" d="M109.5,216.1c-0.7,0-1.4-0.1-2-0.5c-0.6-0.3-1.1-0.9-1.3-1.5c-0.3-0.7-0.5-1.5-0.5-2.2s0.1-1.5,0.4-2.1
	s0.7-1.1,1.3-1.5c1.3-0.6,2.7-0.6,4,0c0.6,0.3,1.1,0.8,1.3,1.5c0.3,0.7,0.5,1.5,0.5,2.2s-0.2,1.5-0.5,2.2c-0.3,0.6-0.7,1.1-1.3,1.5
	C110.9,216,110.2,216.2,109.5,216.1z M109.5,215c0.7,0,1.3-0.3,1.7-0.8c0.8-1.4,0.8-3.1,0-4.6c-0.4-0.5-1-0.8-1.7-0.8
	s-1.3,0.3-1.7,0.8c-0.8,1.4-0.8,3.1,0,4.6C108.2,214.8,108.9,215,109.5,215L109.5,215z"/>
<path class="st1" d="M61.5,257.6H63v6.8c-0.1,0.9,0.1,1.8,0.7,2.5c0.5,0.5,1.2,0.7,1.9,0.7c0.4,0,0.9-0.1,1.3-0.3
	c0.4-0.2,0.6-0.5,0.8-0.8c0.2-0.6,0.3-1.3,0.3-2v-6.9h1.4v6.9c0.1,0.9-0.1,1.7-0.4,2.5c-0.3,0.5-0.7,0.9-1.2,1.2
	c-0.6,0.3-1.4,0.5-2.1,0.5c-0.8,0-1.6-0.1-2.3-0.5c-0.5-0.3-1-0.7-1.3-1.3c-0.3-0.8-0.5-1.6-0.4-2.5L61.5,257.6z"/>
<path class="st1" d="M72,268.1v-1.3c0.8,0.4,1.6,0.7,2.5,0.7c0.4,0,0.7-0.1,1-0.3c0.3-0.2,0.4-0.5,0.4-0.8c0-0.2-0.1-0.4-0.2-0.6
	c-0.3-0.3-0.6-0.5-0.9-0.6l-0.8-0.4c-0.5-0.2-1-0.5-1.4-0.9c-0.3-0.4-0.5-0.8-0.4-1.3c0-0.6,0.2-1.2,0.7-1.6
	c0.6-0.5,1.3-0.7,2.1-0.6c0.6,0,1.1,0.1,1.7,0.2l0.3,0.1v1.2c-0.6-0.2-1.3-0.3-1.9-0.4c-0.4,0-0.7,0.1-1,0.3
	c-0.2,0.2-0.3,0.4-0.3,0.7c0,0.2,0.1,0.4,0.2,0.6c0.2,0.2,0.5,0.4,0.8,0.5l0.7,0.3c0.7,0.2,1.3,0.6,1.8,1.2c0.5,0.7,0.5,1.7,0,2.5
	c-0.2,0.4-0.6,0.7-1,0.9c-0.5,0.2-1,0.3-1.5,0.3C73.6,268.6,72.8,268.4,72,268.1z"/>
<path class="st1" d="M85.2,268.4v-1.5c-0.3,0.5-0.7,0.9-1.2,1.2c-0.5,0.3-1,0.4-1.5,0.4c-0.6,0-1.2-0.2-1.6-0.6
	c-0.4-0.5-0.7-1.1-0.6-1.8v-5.7h1.4v5.2c0,0.4,0,0.7,0.2,1.1c0.1,0.2,0.2,0.3,0.4,0.4c0.2,0.1,0.4,0.2,0.6,0.1
	c0.4,0,0.8-0.1,1.1-0.3c0.6-0.4,1-0.8,1.3-1.4v-5.1h1.4v8L85.2,268.4z"/>
<path class="st1" d="M94,267.4c-0.4,0.4-0.8,0.7-1.3,0.9c-0.4,0.2-0.8,0.3-1.2,0.3c-0.6,0-1.1-0.2-1.6-0.6s-0.8-1-0.7-1.6
	c0-0.8,0.4-1.5,1-1.9c1-0.6,2.1-0.9,3.3-0.8h0.3v-1c0-0.3,0-0.6-0.2-0.8c-0.1-0.2-0.3-0.3-0.5-0.4c-0.3-0.1-0.5-0.2-0.8-0.1
	c-0.9,0-1.7,0.3-2.5,0.7v-1.2c0.9-0.4,1.8-0.6,2.8-0.6c0.4,0,0.9,0.1,1.3,0.2s0.7,0.4,1,0.7c0.3,0.5,0.4,1,0.4,1.5v3.6
	c0,0.3,0,0.5,0.1,0.8c0.1,0.1,0.1,0.2,0.3,0.3c0.1,0.1,0.3,0.1,0.4,0.1h0.3l0.1,0.8c-0.3,0.2-0.7,0.2-1.1,0.2
	c-0.3,0-0.5-0.1-0.8-0.3C94.3,268.1,94.1,267.8,94,267.4z M93.8,266.6v-2.1h-0.5c-0.7,0-1.3,0.1-1.9,0.4c-0.5,0.2-0.8,0.7-0.8,1.2
	c0,0.3,0.1,0.7,0.4,0.9c0.2,0.2,0.6,0.4,0.9,0.4s0.6-0.1,0.9-0.2C93.2,267.1,93.5,266.9,93.8,266.6L93.8,266.6z"/>
<path class="st1" d="M98.4,268.4v-8h1.4v1.5c0.2-0.5,0.6-0.9,1.1-1.2c0.4-0.3,0.9-0.4,1.4-0.4h0.5v1.4c-0.6-0.2-1.4-0.1-1.9,0.3
	c-0.4,0.3-0.8,0.7-1,1.2v5.2H98.4z"/>
<path class="st1" d="M104.8,259v-1.5h1.4v1.5H104.8z M104.8,268.4v-8h1.4v8H104.8z"/>
<path class="st1" d="M112.6,268.6c-0.7,0-1.4-0.1-2-0.5c-0.6-0.3-1.1-0.9-1.3-1.5c-0.3-0.7-0.5-1.5-0.5-2.2s0.1-1.5,0.4-2.1
	s0.7-1.1,1.3-1.5c0.6-0.3,1.3-0.5,2-0.5s1.4,0.1,2,0.5c0.6,0.3,1.1,0.8,1.3,1.5c0.3,0.7,0.5,1.5,0.5,2.2s-0.2,1.5-0.5,2.2
	c-0.3,0.6-0.7,1.1-1.3,1.5C114,268.4,113.3,268.6,112.6,268.6z M112.6,267.5c0.7,0,1.3-0.3,1.7-0.8c0.4-0.7,0.6-1.5,0.6-2.3
	c0.1-0.8-0.2-1.6-0.6-2.3c-0.4-0.5-1-0.8-1.7-0.8s-1.3,0.3-1.7,0.8c-0.4,0.7-0.7,1.5-0.6,2.3c0,0.8,0.2,1.6,0.6,2.3
	C111.4,267.2,112,267.5,112.6,267.5L112.6,267.5z"/>
<path class="st1" d="M70.3,319c-0.4,0.2-0.8,0.4-1.2,0.5c-0.4,0.1-0.7,0.2-1.1,0.2c-0.4,0.1-0.8,0.1-1.2,0.1c-1.5,0.1-3-0.5-4-1.6
	c-0.9-1.2-1.3-2.6-1.3-4.1c-0.1-1.5,0.4-2.9,1.3-4.1c1-1.1,2.5-1.7,4-1.6c1.2,0,2.3,0.2,3.4,0.5v1.4c-0.7-0.3-1.5-0.5-2.3-0.7
	c-0.4-0.1-0.8-0.1-1.2-0.1c-1.1-0.1-2.2,0.4-2.8,1.3c-0.6,1-0.9,2.1-0.9,3.2c-0.1,1.2,0.3,2.3,1,3.2c0.7,0.8,1.8,1.3,2.9,1.2
	c0.3,0,0.7,0,1-0.1s0.7-0.2,1-0.3c0.4-0.2,0.8-0.4,1.2-0.6L70.3,319z"/>
<path class="st1" d="M76,319.8c-0.7,0-1.4-0.1-2-0.5c-0.6-0.3-1.1-0.9-1.3-1.5c-0.3-0.7-0.5-1.5-0.5-2.2s0.1-1.5,0.4-2.1
	s0.8-1.1,1.4-1.5c0.6-0.3,1.3-0.5,2-0.5s1.4,0.1,2,0.5c0.6,0.3,1.1,0.9,1.3,1.5c0.3,0.7,0.5,1.5,0.5,2.2s-0.1,1.5-0.4,2.2
	c-0.3,0.6-0.7,1.1-1.3,1.5C77.4,319.6,76.7,319.8,76,319.8z M76,318.7c0.7,0,1.3-0.3,1.7-0.8c0.4-0.7,0.6-1.5,0.6-2.3
	c0.1-0.8-0.2-1.6-0.6-2.3c-0.8-0.9-2.1-1.1-3-0.3c-0.1,0.1-0.2,0.2-0.3,0.3c-0.4,0.7-0.6,1.5-0.6,2.3s0.2,1.6,0.6,2.3
	C74.7,318.4,75.3,318.7,76,318.7L76,318.7z"/>
<path class="st1" d="M82.4,319.6v-8h1.4v1.5c0.3-0.5,0.8-0.9,1.3-1.2c0.5-0.3,1-0.4,1.5-0.4c0.6,0,1.2,0.2,1.6,0.6
	c0.4,0.5,0.7,1.1,0.6,1.8v5.7h-1.4v-5.2c0-0.4,0-0.7-0.2-1.1c-0.1-0.2-0.2-0.3-0.4-0.4c-0.2-0.1-0.4-0.1-0.6-0.1
	c-0.4,0-0.8,0.1-1.2,0.3c-0.5,0.4-1,0.8-1.3,1.4v5.1L82.4,319.6z"/>
<path class="st1" d="M95.5,319.6c-0.4,0.1-0.8,0.2-1.2,0.2c-0.6,0-1.2-0.2-1.7-0.6c-0.4-0.5-0.7-1.1-0.6-1.8v-4.7h-1v-1.1h1v-1.5
	l1.4-0.1v1.6h2.1v1.1h-2.1v4.4c0,0.4,0.1,0.9,0.3,1.2c0.3,0.3,0.6,0.4,1,0.4c0.2,0,0.5,0,0.7-0.1L95.5,319.6z"/>
<path class="st1" d="M97.9,319.6v-8h1.4v1.5c0.2-0.5,0.6-0.9,1.1-1.2c0.4-0.3,0.9-0.4,1.4-0.4c0.2,0,0.3,0,0.5,0v1.4
	c-0.2-0.1-0.4-0.1-0.7-0.1c-0.5,0-0.9,0.1-1.3,0.4s-0.8,0.7-1,1.2v5.2H97.9z"/>
<path class="st1" d="M108.4,318.6c-0.4,0.4-0.8,0.7-1.3,0.9c-0.4,0.2-0.8,0.3-1.2,0.3c-0.6,0-1.1-0.2-1.6-0.5
	c-0.5-0.4-0.8-1-0.7-1.6c0-0.8,0.4-1.5,1-1.9c1-0.6,2.1-0.9,3.3-0.8h0.3v-1c0-0.3,0-0.6-0.2-0.8c-0.1-0.2-0.3-0.3-0.5-0.4
	c-0.3-0.1-0.5-0.1-0.8-0.1c-0.9,0-1.7,0.3-2.5,0.7V312c0.9-0.4,1.8-0.6,2.8-0.6c0.4,0,0.9,0.1,1.3,0.2s0.7,0.4,0.9,0.7
	c0.3,0.5,0.4,1,0.4,1.5v3.6c0,0.3,0,0.5,0.1,0.8c0.1,0.1,0.1,0.2,0.3,0.3c0.1,0.1,0.3,0.1,0.4,0.1h0.3l0.1,0.8
	c-0.3,0.2-0.7,0.2-1.1,0.2c-0.3,0-0.5-0.1-0.8-0.2C108.7,319.3,108.5,318.9,108.4,318.6z M108.2,317.8v-2.1h-0.5
	c-0.7,0-1.3,0.1-1.9,0.4c-0.5,0.2-0.8,0.7-0.8,1.2c0,0.3,0.1,0.7,0.4,0.9c0.2,0.2,0.6,0.4,0.9,0.4s0.6-0.1,0.9-0.2
	C107.6,318.2,107.9,318,108.2,317.8z"/>
<path class="st1" d="M112.6,319.3V318c0.8,0.4,1.6,0.7,2.5,0.7c0.4,0,0.7-0.1,1-0.3c0.3-0.2,0.4-0.5,0.4-0.8c0-0.2-0.1-0.4-0.2-0.6
	c-0.3-0.3-0.6-0.5-0.9-0.6l-0.8-0.4c-0.5-0.2-1-0.5-1.4-0.9c-0.3-0.4-0.5-0.8-0.4-1.3c0-0.6,0.2-1.2,0.7-1.6
	c0.6-0.5,1.3-0.7,2.1-0.6c0.6,0,1.1,0.1,1.7,0.2l0.3,0.1v1.2c-0.6-0.2-1.3-0.3-1.9-0.4c-0.4,0-0.7,0.1-1,0.3
	c-0.2,0.2-0.3,0.4-0.3,0.7c0,0.2,0.1,0.4,0.2,0.6c0.2,0.2,0.5,0.4,0.8,0.5l0.7,0.3c0.7,0.2,1.3,0.6,1.8,1.2c0.2,0.4,0.4,0.8,0.4,1.3
	c0,0.4-0.1,0.8-0.3,1.2c-0.2,0.4-0.6,0.7-1,0.9c-0.5,0.2-1,0.3-1.5,0.3C114.2,319.8,113.3,319.6,112.6,319.3z"/>
<path class="st1" d="M126.7,319.3c-0.8,0.3-1.7,0.4-2.5,0.4c-1.1,0.1-2.2-0.4-3-1.2c-0.7-0.8-1.1-1.9-1.1-3c0-0.7,0.2-1.5,0.5-2.1
	s0.7-1.1,1.2-1.5c0.5-0.3,1.2-0.5,1.8-0.5c0.9,0,1.7,0.3,2.2,1c0.6,0.9,0.9,1.9,0.8,3v0.4h-5.1c0,0.6,0.2,1.1,0.5,1.6
	c0.2,0.4,0.5,0.7,0.9,0.9c0.4,0.2,0.9,0.3,1.4,0.3c0.3,0,0.6,0,0.9-0.1c0.5-0.1,0.9-0.2,1.4-0.4L126.7,319.3z M121.7,314.8h3.6
	c0.1-0.6-0.1-1.2-0.5-1.7c-0.3-0.3-0.8-0.5-1.2-0.5c-0.5,0-1,0.2-1.3,0.5C121.9,313.6,121.7,314.1,121.7,314.8L121.7,314.8z"/>
<path class="st1" d="M129.4,319.6v-8h1.4v1.5c0.3-0.5,0.8-0.9,1.3-1.2c0.5-0.3,1-0.4,1.5-0.4c0.6,0,1.2,0.2,1.6,0.6
	c0.4,0.5,0.7,1.1,0.6,1.8v5.7h-1.4v-5.2c0-0.4,0-0.7-0.1-1.1c-0.1-0.2-0.2-0.3-0.4-0.4s-0.4-0.1-0.6-0.1c-0.4,0-0.8,0.1-1.1,0.3
	c-0.6,0.4-1,0.8-1.4,1.4v5.1L129.4,319.6z M130.4,310.2c0-0.5,0.1-0.9,0.4-1.3c0.2-0.3,0.6-0.4,0.9-0.4c0.3,0,0.7,0.1,1,0.2l0.3,0.1
	l0.5,0.2c0.1,0,0.2,0.1,0.3,0.1s0.2,0,0.3-0.1s0.2-0.3,0.2-0.5h0.9c0,0.3,0,0.7-0.2,1c-0.1,0.2-0.3,0.4-0.4,0.5
	c-0.2,0.1-0.5,0.2-0.7,0.2c-0.3,0-0.7-0.1-1-0.2l-0.4-0.2l-0.4-0.2c-0.1,0-0.2-0.1-0.3,0c-0.3,0-0.5,0.2-0.5,0.6L130.4,310.2z"/>
<path class="st1" d="M143.2,318.6c-0.4,0.4-0.8,0.7-1.3,0.9c-0.4,0.2-0.8,0.3-1.2,0.3c-0.6,0-1.1-0.2-1.6-0.5
	c-0.5-0.4-0.8-1-0.7-1.6c0-0.8,0.4-1.5,1-1.9c1-0.6,2.1-0.9,3.3-0.8h0.4v-1c0-0.3,0-0.6-0.2-0.8c-0.1-0.2-0.3-0.3-0.5-0.4
	c-0.3-0.1-0.5-0.1-0.8-0.1c-0.9,0-1.7,0.3-2.5,0.7V312c0.9-0.4,1.8-0.6,2.8-0.6c0.4,0,0.9,0.1,1.3,0.2c0.4,0.1,0.7,0.4,1,0.7
	c0.3,0.5,0.4,1,0.4,1.5v3.6c0,0.3,0,0.5,0.1,0.8c0.1,0.1,0.1,0.2,0.3,0.3c0.1,0.1,0.3,0.1,0.4,0.1h0.3l0.1,0.8
	c-0.3,0.2-0.7,0.2-1.1,0.2c-0.3,0-0.5-0.1-0.8-0.2C143.5,319.3,143.3,318.9,143.2,318.6z M143,317.8v-2.1h-0.5
	c-0.7,0-1.3,0.1-1.9,0.4c-0.5,0.2-0.8,0.7-0.8,1.2c0,0.3,0.1,0.7,0.4,0.9c0.2,0.2,0.6,0.4,0.9,0.4c0.3,0,0.7-0.1,0.9-0.2
	C142.4,318.2,142.7,318,143,317.8L143,317.8z"/>
<path class="st2" d="M210.3,45.6h-70.7c-17,0-30.8,13.8-30.8,30.8v70.7c0.1,17,13.9,30.8,30.9,30.8h70.5c17-0.1,30.8-13.8,31-30.9
	V76.5C241.1,59.5,227.3,45.7,210.3,45.6z M184.4,133c-0.2,9.7-5.7,15.8-15.4,17.3c-5.3,0.7-10.9,0.6-16.4,0.6c-2,0-4.2-0.2-6.2,0
	c-1.1,0-1.3-0.4-1.3-1.3v-8.1c0-0.7-0.2-1.1-1.1-1.1c-7,0.2-8.4-0.2-8.6-0.4c-2.3-0.9-3.7-3.2-3.5-5.7c0-14.1,0-28.1-0.2-42
	c0-1.1,0.2-1.5,1.5-1.5h26.1c4.1-0.1,8.1,0.6,11.9,2c7,2.9,9.4,8.4,8.8,15.2c-0.4,5-2.2,7.3-6.8,10.5c1.3,0.3,2.5,0.7,3.7,1.3
	C182.2,122.6,184.6,127.2,184.4,133z M202.4,149c0,1.1-0.2,1.5-1.5,1.5h-10.5c-0.9,0-1.1-0.2-1.1-1.1c0-11.8-0.2-23.3-0.2-35.1
	c0-3.5,2.2-5.5,5.7-5.5h5.9c1.1,0,1.7,0.2,1.7,1.4c-0.2,6.6-0.2,12.8-0.2,19.3C202.3,136,202.3,142.6,202.4,149L202.4,149z
	 M223,85.3L223,85.3c0.1,2.8-2.1,5.2-4.9,5.3c-0.1,0-0.3,0-0.4,0h-15.6V98c0,2-0.9,2.9-2.9,2.9h-9c-0.9,0-1.3-0.2-1.1-1.1v-6.3
	c0-2,1.1-2.9,3.1-2.9c3.3,0,6.6,0.2,9.9,0c0-4.4-0.2-8.6,0-13.1c-0.1-2.8,2.1-5.1,4.8-5.2c0.2,0,0.3,0,0.5,0h14.3
	c0.9,0,1.3,0.2,1.3,1.1L223,85.3z"/>
<path class="st3" d="M184.4,133c-0.2,9.7-5.7,15.8-15.4,17.3c-5.3,0.7-10.9,0.6-16.4,0.6c-2,0-4.2-0.2-6.2,0c-1.1,0-1.3-0.4-1.3-1.3
	v-8.1c0-0.7-0.2-1.1-1.1-1.1c-7,0.2-8.4-0.2-8.6-0.4c-2.3-0.9-3.7-3.2-3.5-5.7c0-14.1,0-28.1-0.2-42c0-1.1,0.2-1.5,1.5-1.5h26.1
	c4.1-0.1,8.1,0.6,11.9,2c7,2.9,9.4,8.4,8.8,15.2c-0.4,5-2.2,7.3-6.8,10.5c1.3,0.3,2.5,0.7,3.7,1.3
	C182.2,122.6,184.6,127.2,184.4,133z"/>
<path class="st4" d="M176.9,119.8c-1.2-0.5-2.4-1-3.7-1.3c4.6-3.1,6.4-5.5,6.8-10.5c0.6-6.8-1.8-12.3-8.8-15.2
	c-3.8-1.4-7.9-2.1-11.9-2h-26.1c-1.3,0-1.5,0.4-1.5,1.5c0.2,14,0.2,27.9,0.2,42c-0.2,2.5,1.2,4.8,3.5,5.7c0.2,0.2,1.7,0.6,8.6,0.4
	c0.9,0,1.1,0.4,1.1,1.1v8.1c0,0.9,0.2,1.3,1.3,1.3c2-0.2,4.2,0,6.2,0c5.5,0,11,0.2,16.4-0.5c9.7-1.5,15.2-7.5,15.4-17.3
	C184.6,127.2,182.2,122.6,176.9,119.8L176.9,119.8z M144.8,113.2c0.2-3.7,0.2-7.2,0.2-10.7c0-0.7,0-1.3,0.9-1.1
	c4.6,0.2,9.4-0.2,14,0.2c1.3,0.1,2.7,0.5,3.9,1.1c2.4,1.5,2.9,3.7,2.8,6.1s-1.7,3.8-4,4.8c-3.1,1.1-6.4,0.7-9.2,0.7h-7.2
	C145.2,114.3,144.8,114.1,144.8,113.2L144.8,113.2z M170.3,136c-1.5,2.9-4.4,3.9-7.5,4.2c-5.5,0.4-11.2,0.2-16.7,0.2
	c-0.7,0-0.9-0.2-0.9-0.9v-13.6c0-0.9,0.4-1.1,1.1-0.9h8.8c3.1,0.2,7-0.6,10.6,0.5c3.9,0.9,6.2,4.8,5.3,8.7
	C170.9,134.8,170.6,135.4,170.3,136z"/>
<path class="st4" d="M202.1,90.6V98c0,2-0.9,2.9-2.9,2.9h-9c-0.9,0-1.3-0.2-1.1-1.1v-6.3c0-2,1.1-2.9,3.1-2.9
	C195.5,90.6,198.8,90.8,202.1,90.6z"/>
<path class="st4" d="M202.3,129.6c0,6.4,0,13,0.2,19.5c0,1.1-0.2,1.5-1.5,1.5h-10.5c-0.9,0-1.1-0.2-1.1-1.1
	c0-11.8-0.2-23.3-0.2-35.1c0-3.5,2.2-5.5,5.7-5.5h5.9c1.1,0,1.7,0.2,1.7,1.5C202.3,116.9,202.3,123.1,202.3,129.6L202.3,129.6z"/>
<path class="st4" d="M223,73.5v11.8c0.1,2.8-2.1,5.2-4.9,5.3c-0.1,0-0.3,0-0.4,0h-15.6c0-4.4-0.2-8.6,0-13.1
	c-0.1-2.8,2.1-5.1,4.8-5.2c0.2,0,0.3,0,0.5,0h14.3C222.6,72.4,223,72.6,223,73.5z"/>
<path class="st5" d="M223,73.5v11.8c0.1,2.8-2.1,5.2-4.9,5.3c-0.1,0-0.3,0-0.4,0h-15.6c0-4.4-0.2-8.6,0-13.1
	c-0.1-2.8,2.1-5.1,4.8-5.2c0.2,0,0.3,0,0.5,0h14.3C222.6,72.4,223,72.6,223,73.5z"/>
<path class="st6" d="M202.4,149c0,1.1-0.2,1.5-1.5,1.5h-10.5c-0.9,0-1.1-0.2-1.1-1.1c0-11.8-0.2-23.3-0.2-35.1
	c0-3.5,2.2-5.5,5.7-5.5h5.9c1.1,0,1.7,0.2,1.7,1.5c-0.2,6.6-0.2,12.8-0.2,19.3C202.2,136.1,202.3,142.6,202.4,149z"/>
<path class="st7" d="M202.1,90.6V98c0,2-0.9,2.9-2.9,2.9h-9c-0.9,0-1.3-0.2-1.1-1.1v-6.3c0-2,1.1-2.9,3.1-2.9
	C195.5,90.6,198.8,90.8,202.1,90.6z"/>
<path class="st6" d="M176.9,119.8c5.3,2.8,7.7,7.4,7.5,13.2c-0.2,9.7-5.7,15.8-15.4,17.3c-5.3,0.7-10.8,0.5-16.4,0.5
	c-2,0-4.2-0.2-6.2,0c-1.1,0-1.3-0.4-1.3-1.3v-8.1c0-0.7-0.2-1.1-1.1-1.1c-7,0.2-8.4-0.2-8.6-0.4c-2.3-0.9-3.7-3.2-3.5-5.7
	c0-14.2,0-28.1-0.2-42c0-1.1,0.2-1.5,1.5-1.5h26.1c4.1-0.1,8.1,0.6,11.9,2c7,2.9,9.4,8.4,8.8,15.2c-0.4,5-2.2,7.4-6.8,10.5
	C174.5,118.9,175.7,119.3,176.9,119.8z M171.2,132.4V132c0-0.1,0-0.2,0-0.3s0-0.1,0-0.2c0-0.1,0-0.1,0-0.1s0-0.1,0-0.2
	c0-0.1,0-0.2-0.1-0.3c0-0.1,0-0.2,0-0.2c0-0.1,0-0.2-0.1-0.2c0-0.1-0.1-0.2-0.1-0.2c-0.1-0.3-0.3-0.7-0.4-1
	c-0.1-0.2-0.1-0.3-0.2-0.5l0,0c-0.1-0.2-0.3-0.4-0.4-0.6l0,0c-0.6-0.8-1.3-1.4-2.1-1.8c-0.1-0.1-0.2-0.1-0.4-0.2l-0.3-0.2l-0.1-0.1
	l-0.3-0.1l0,0l-0.2-0.1l-0.5-0.2c-3.7-1.1-7.5-0.4-10.6-0.5h-8.8c-0.7-0.2-1.1,0-1.1,0.9v13.6c0,0.7,0.2,0.9,0.9,0.9
	c5.5,0,11.2,0.2,16.7-0.2c3.1-0.4,6-1.3,7.5-4.2c0.1-0.2,0.2-0.4,0.3-0.7s0.2-0.6,0.3-0.9c0.1-0.3,0.2-0.7,0.2-1.1
	C171.3,133,171.2,132.7,171.2,132.4z M166.4,108.8c0.1-0.7,0.1-1.3-0.1-2c0-0.3-0.1-0.6-0.2-0.8l0,0v-0.1l-0.1-0.2l-0.1-0.2
	c0,0,0-0.1-0.1-0.1l0,0c0-0.1-0.1-0.2-0.2-0.3c0-0.1-0.1-0.2-0.1-0.3c-0.2-0.3-0.4-0.5-0.6-0.8l-0.2-0.3c-0.4-0.4-0.8-0.7-1.2-0.9
	c-1.2-0.6-2.5-1-3.9-1.1c-4.6-0.4-9.4,0-14-0.2c-0.9-0.2-0.9,0.4-0.9,1.1c0,3.5,0,7-0.2,10.7c0,0.2,0,0.5,0.1,0.7l0,0
	c0,0,0,0.1,0.1,0.1c0.3,0.2,0.7,0.3,1.1,0.3h7.1c2.8,0,6.1,0.4,9.2-0.7c1.8-0.5,3.2-1.8,3.8-3.6c0.1-0.1,0.1-0.3,0.1-0.4
	s0.1-0.3,0.1-0.4l0,0C166.4,109.1,166.4,108.9,166.4,108.8L166.4,108.8L166.4,108.8z"/>
<path class="st3" d="M170.4,129.2c0.2,0.3,0.3,0.7,0.4,1c0,0.1,0,0.1,0.1,0.2c0,0.1,0.1,0.2,0.1,0.2c0,0.1,0,0.2,0,0.2
	c0,0.1,0,0.2,0.1,0.3c0,0.1,0,0.1,0,0.2s0,0.1,0,0.1c0,0.1,0,0.1,0,0.2c0,0.1,0,0.2,0,0.3s0,0.3,0,0.4c0,0.3,0,0.6-0.1,0.9
	c0,0.4-0.1,0.7-0.2,1.1c-0.1,0.3-0.2,0.6-0.3,0.9c-0.1,0.2-0.2,0.5-0.3,0.7c-1.5,2.9-4.4,3.9-7.5,4.2c-5.5,0.4-11.2,0.2-16.7,0.2
	c-0.7,0-0.9-0.2-0.9-0.9v-13.6c0-0.9,0.4-1.1,1.1-0.9h8.8c3.1,0.2,7-0.6,10.6,0.5l0.5,0.2l0.2,0.1c0.3,0.1,0.5,0.2,0.8,0.3
	c0.4,0.2,0,0,0,0c0.8,0.4,1.6,1,2.2,1.8C169.8,128.3,170.1,128.7,170.4,129.2z"/>
<path class="st8" d="M170.4,129.2c-0.1-0.2-0.1-0.3-0.2-0.5C170.3,128.9,170.4,129.1,170.4,129.2z"/>
<path class="st8" d="M170.2,128.8c0.1,0.1,0.2,0.3,0.2,0.5c-0.3-0.5-0.6-1-0.9-1.4c0.1,0.1,0.2,0.2,0.3,0.3l0,0
	C169.9,128.3,170.1,128.5,170.2,128.8L170.2,128.8z"/>
<path class="st8" d="M170.2,128.8c-0.1-0.2-0.3-0.4-0.4-0.6C169.9,128.3,170.1,128.5,170.2,128.8z"/>
<path class="st8" d="M169.8,128.1c-0.1-0.1-0.2-0.2-0.3-0.3c-0.5-0.6-1.1-1.2-1.8-1.6C168.5,126.7,169.2,127.4,169.8,128.1z"/>
<path class="st8" d="M167.7,126.3c0.7,0.4,1.3,0.9,1.8,1.6c-0.6-0.7-1.4-1.3-2.2-1.8C167.4,126.1,167.5,126.2,167.7,126.3z"/>
<path class="st9" d="M167,125.9l0.3,0.2l0,0C167.2,126,167.1,126,167,125.9z"/>
<path class="st8" d="M167,125.9c0.1,0,0.2,0.1,0.3,0.2c-0.2-0.1-0.5-0.2-0.8-0.3l0.3,0.1L167,125.9z"/>
<path class="st9" d="M166.8,125.9l-0.3-0.1l0,0L166.8,125.9z"/>
<path class="st8" d="M166.4,108.8c0.1-0.7,0-1.3-0.1-2C166.5,107.4,166.5,108.1,166.4,108.8z"/>
<path class="st9" d="M166.4,106.8c0.1,0.7,0.1,1.3,0.1,2c0.1-0.9,0-1.9-0.2-2.8C166.3,106.2,166.3,106.5,166.4,106.8z"/>
<path class="st3" d="M166.2,105.9c0.2,0.9,0.3,1.9,0.2,2.8l0,0c0,0.1,0,0.3-0.1,0.4l0,0c0,0.1,0,0.3-0.1,0.4l0,0
	c-0.4,1.9-1.8,3.1-3.9,3.9c-3.1,1.1-6.4,0.7-9.2,0.7h-7.2c-0.4,0-0.7-0.1-1-0.3l-0.1-0.1l0,0c-0.1-0.2-0.1-0.4-0.1-0.7
	c0.2-3.7,0.2-7.2,0.2-10.7c0-0.7,0-1.3,0.9-1.1c4.6,0.2,9.4-0.2,14,0.2c1.3,0.1,2.7,0.5,3.9,1.1c0.4,0.3,0.8,0.6,1.1,0.9l0.2,0.3
	c0.2,0.2,0.4,0.5,0.6,0.8c0.1,0.1,0.1,0.2,0.1,0.3c0.1,0.1,0.1,0.2,0.2,0.3l0,0l0,0c0,0,0,0.1,0.1,0.1c0,0.1,0,0.1,0.1,0.2
	C166.2,105.6,166.3,105.7,166.2,105.9C166.3,106,166.2,105.9,166.2,105.9z"/>
<path class="st9" d="M166.4,108.8L166.4,108.8c0,0.1,0,0.3-0.1,0.4C166.4,109.1,166.4,108.9,166.4,108.8z"/>
<path class="st8" d="M166.4,108.8c0,0.1,0,0.3-0.1,0.4l0,0C166.4,109.1,166.4,108.9,166.4,108.8z"/>
<path class="st9" d="M166.4,109.2L166.4,109.2c0,0.1,0,0.2-0.1,0.4C166.3,109.5,166.4,109.4,166.4,109.2z"/>
<path class="st8" d="M166.4,109.2c0,0.1,0,0.3-0.1,0.4l0,0C166.3,109.5,166.4,109.4,166.4,109.2z"/>
<path class="st8" d="M166.2,110c0-0.1,0.1-0.3,0.1-0.4C166.3,109.7,166.3,109.9,166.2,110z"/>
<path class="st9" d="M166.3,109.6c0,0.1-0.1,0.3-0.1,0.4c-0.6,1.7-2,3-3.8,3.5c-3.1,1.1-6.4,0.7-9.2,0.7H146c-0.4,0-0.7-0.1-1-0.3
	l-0.1-0.1c0,0,0,0.1,0.1,0.1c0.3,0.2,0.6,0.3,1,0.3h7.2c2.8,0,6.1,0.4,9.2-0.7C164.5,112.7,165.9,111.5,166.3,109.6z"/>
<path class="st9" d="M166.2,105.8C166.2,105.9,166.2,105.9,166.2,105.8c0,0-0.1-0.1-0.1-0.2l0,0
	C166.1,105.7,166.2,105.8,166.2,105.8z"/>
<path class="st8" d="M166.2,105.8c0-0.1,0-0.1-0.1-0.2l0,0L166.2,105.8z"/>
<path class="st8" d="M166,105.4l0.1,0.2l0,0C166.1,105.6,166,105.5,166,105.4z"/>
<path class="st8" d="M166,105.4c0,0.1,0.1,0.1,0.1,0.2l0,0C166.1,105.6,166,105.5,166,105.4z"/>
<path class="st8" d="M166,105.3c0,0,0,0.1,0.1,0.1C166,105.4,166,105.3,166,105.3L166,105.3z"/>
<path class="st8" d="M166,105.3L166,105.3L166,105.3z"/>
<path class="st8" d="M166,105.3L166,105.3L166,105.3z"/>
<path class="st8" d="M162.4,113.6c1.8-0.5,3.2-1.9,3.8-3.6C165.6,111.7,164.2,113,162.4,113.6c-3.1,1.1-6.4,0.7-9.2,0.7h-7.1
	c-0.4,0.1-0.8,0-1.1-0.3c0.3,0.2,0.6,0.3,1,0.3h7.2C156,114.3,159.3,114.7,162.4,113.6z"/>
<line class="st10" x1="41.3" y1="278.9" x2="310.8" y2="278.9"/>
<line class="st10" x1="41.3" y1="331.5" x2="310.8" y2="331.5"/>
<line class="st10" x1="41.3" y1="226.3" x2="310.8" y2="226.3"/>
<path class="st11" d="M150.9,367h2.5c1.6,0,2.8,0.6,2.8,2.2s-1.2,2.3-2.8,2.3H152v3.3h-1L150.9,367z M153.3,370.7
	c1.2,0,1.9-0.5,1.9-1.5s-0.7-1.4-1.9-1.4H152v2.9H153.3z M154,370.7l2.4,4.1h-1.1l-2.1-3.6L154,370.7z"/>
<path class="st11" d="M157.8,372c0-1.6,1.2-3,2.9-3h0.1c1.4-0.1,2.6,1,2.7,2.4c0,0.1,0,0.2,0,0.4c0,0.2,0,0.4,0,0.6h-4.9v-0.8h4.3
	l-0.2,0.3c0-1.4-0.7-2.1-1.8-2.1s-2,1-2,2.1c0,0.1,0,0.1,0,0.2c-0.1,1.2,0.8,2.2,1.9,2.3c0.1,0,0.2,0,0.3,0c0.6,0,1.3-0.2,1.8-0.5
	l0.4,0.6c-0.7,0.5-1.5,0.7-2.3,0.7c-1.7,0.1-3.1-1.1-3.2-2.8C157.8,372.2,157.8,372.1,157.8,372z"/>
<path class="st11" d="M165.1,372c0-1.7,1.3-3,2.9-3.1c0.1,0,0.2,0,0.3,0c0.8,0,1.6,0.3,2.1,0.9l-0.5,0.6c-0.4-0.4-1-0.6-1.6-0.7
	c-1.2,0-2.2,1-2.2,2.2s1,2.2,2.2,2.2l0,0c0.7,0,1.3-0.3,1.8-0.7l0.4,0.6c-0.6,0.6-1.5,0.9-2.3,0.9c-1.6,0.2-3-1-3.2-2.7
	C165.1,372.3,165.1,372.1,165.1,372z"/>
<path class="st11" d="M172.1,372c0.1-1.6,1.4-2.8,3-2.8c1.6,0.1,2.8,1.4,2.8,3c-0.1,1.5-1.3,2.8-2.9,2.8c-1.6,0-2.9-1.3-2.9-2.8
	C172.1,372.1,172.1,372.1,172.1,372z M176.8,372c0-1.3-0.7-2.2-1.9-2.2s-1.9,0.9-1.9,2.2s0.8,2.2,1.9,2.2S176.8,373.3,176.8,372
	L176.8,372z"/>
<path class="st11" d="M180.3,369.1h0.8l0.1,1.4l0,0c0.5-0.9,1.5-1.5,2.6-1.5c0.4,0,0.8,0.1,1.2,0.2l-0.2,0.9
	c-0.3-0.1-0.7-0.2-1.1-0.2c-1.1,0-2,0.7-2.4,1.7v3.4h-1L180.3,369.1z"/>
<path class="st11" d="M186.5,372c-0.1-1.5,1-2.9,2.5-3.1h0.1c0.7,0,1.3,0.3,1.8,0.8l0,0v-1.1v-2.2h1v8.5H191l-0.1-0.8l0,0
	c-0.5,0.5-1.2,0.8-1.9,0.9C187.5,375,186.5,373.9,186.5,372z M190.8,373.4v-2.9c-0.4-0.4-0.9-0.7-1.5-0.7c-1.1,0.1-1.9,1-1.8,2.2
	c0,0,0,0,0,0.1c0,1.4,0.6,2.2,1.7,2.2C189.9,374.2,190.4,373.8,190.8,373.4L190.8,373.4z"/>
<path class="st11" d="M193.9,373.4c0-1.3,1.2-2,4.2-2.2c0-0.8-0.5-1.4-1.3-1.5c-0.1,0-0.2,0-0.2,0c-0.7,0.1-1.4,0.3-2,0.7l-0.4-0.7
	c0.8-0.5,1.7-0.8,2.6-0.8c1.2-0.1,2.3,0.8,2.4,1.9c0,0.2,0,0.3,0,0.5v3.6h-0.8l-0.1-0.8l0,0c-0.6,0.6-1.5,0.9-2.3,0.9
	c-1,0.2-1.9-0.5-2-1.5C193.9,373.5,193.9,373.4,193.9,373.4z M198.2,373.4v-1.5c-2.5,0.2-3.2,0.7-3.2,1.5s0.6,0.9,1.3,0.9
	C196.9,374.2,197.6,373.9,198.2,373.4L198.2,373.4z"/>
<path class="st11" d="M201.9,369.1h0.8l0.1,1.4l0,0c0.5-0.9,1.5-1.5,2.6-1.5c0.4,0,0.8,0.1,1.1,0.2l-0.2,0.9
	c-0.3-0.1-0.7-0.2-1.1-0.2c-1.1,0-2,0.7-2.4,1.7v3.4h-1L201.9,369.1z"/>
<path class="st11" d="M208.1,369.1h0.8l0.1,0.8l0,0c0.2-0.5,0.7-0.9,1.3-0.9s0.9,0.3,1.1,1c0.3-0.6,0.7-1,1.4-1
	c0.8,0,1.3,0.6,1.3,1.8v4.2h-1v-4.1c0-0.7-0.2-1-0.6-1s-0.6,0.3-0.9,0.9v4.2h-0.9v-4.1c0-0.7-0.2-1-0.6-1s-0.7,0.3-1,0.9v4.2h-1
	L208.1,369.1z"/>
<path class="st11" d="M215.4,372c0-1.6,1.2-3,2.9-3h0.1c1.4-0.1,2.6,1,2.7,2.4c0,0.1,0,0.3,0,0.4c0,0.2,0,0.4,0,0.6h-5v-0.8h4.3
	l-0.2,0.3c0-1.4-0.7-2.1-1.8-2.1s-2,1-2,2.1c0,0.1,0,0.1,0,0.2c-0.1,1.2,0.8,2.2,1.9,2.3c0.1,0,0.2,0,0.3,0c0.6,0,1.3-0.2,1.8-0.5
	l0.4,0.6c-0.7,0.5-1.5,0.7-2.3,0.7c-1.7,0.1-3.1-1.2-3.1-2.9C215.4,372.2,215.4,372.1,215.4,372z"/>
<path class="st11" d="M131.2,364.1h7.1c1.7,0,3,1.3,3,3v7.1c0,1.7-1.3,3-3,3h-7.1c-1.7,0-3-1.3-3-3v-7.1
	C128.2,365.5,129.6,364.1,131.2,364.1z"/>
<path class="st12" d="M101.8,407.3h4v0.7h-3.2v2.2h2.7v0.7h-2.7v2.9h-0.8V407.3z"/>
<path class="st12" d="M107.3,412.6c0-1.1,1-1.6,3.5-1.8c0-0.6-0.4-1.2-1-1.2c-0.1,0-0.2,0-0.2,0c-0.6,0-1.2,0.2-1.7,0.6l-0.3-0.6
	c0.6-0.4,1.4-0.7,2.2-0.7c1-0.1,1.9,0.6,2,1.6c0,0.1,0,0.3,0,0.4v3H111l-0.1-0.7l0,0c-0.5,0.5-1.2,0.7-1.9,0.8
	c-0.8,0.1-1.6-0.4-1.7-1.2C107.3,412.7,107.3,412.7,107.3,412.6z M110.8,412.6v-1.3c-2.1,0.2-2.7,0.6-2.7,1.2s0.5,0.8,1.1,0.8
	C109.8,413.3,110.4,413,110.8,412.6L110.8,412.6z"/>
<path class="st12" d="M113.3,411.4c0-1.4,1.1-2.5,2.5-2.6c0.1,0,0.2,0,0.2,0c0.7,0,1.3,0.2,1.8,0.7l-0.4,0.5
	c-0.4-0.3-0.8-0.5-1.3-0.5c-1-0.1-1.8,0.7-1.9,1.7c0,0.1,0,0.1,0,0.2c-0.1,1,0.7,1.8,1.7,1.9c0.1,0,0.1,0,0.2,0
	c0.6,0,1.1-0.2,1.5-0.6l0.4,0.5c-0.5,0.5-1.2,0.8-1.9,0.8c-1.3,0.1-2.5-0.9-2.7-2.2C113.3,411.7,113.3,411.6,113.3,411.4z"/>
<path class="st12" d="M119.2,411.4c0-1.3,1-2.5,2.3-2.5h0.1c1.2-0.1,2.1,0.8,2.2,2c0,0.1,0,0.2,0,0.3c0,0.2,0,0.3,0,0.5h-4.1V411
	h3.6l-0.2,0.2c0-1.1-0.6-1.7-1.4-1.7c-0.9,0-1.7,0.8-1.7,1.7c0,0.1,0,0.1,0,0.2c-0.1,1,0.6,1.8,1.6,1.9c0.1,0,0.2,0,0.3,0
	c0.5,0,1-0.2,1.5-0.5l0.3,0.5c-0.6,0.4-1.2,0.6-1.9,0.6c-1.4,0.1-2.5-0.9-2.7-2.3C119.2,411.6,119.2,411.5,119.2,411.4z"/>
<path class="st12" d="M131.5,413.1h1.6V408h-1.6v-0.7h4.1v0.7H134v5.1h1.6v0.7h-4.1V413.1z"/>
<path class="st12" d="M137.4,407.3h1.6c2,0,3,1.2,3,3.2s-1.1,3.3-3,3.3h-1.7L137.4,407.3z M138.9,413.2c1.5,0,2.2-1,2.2-2.6
	s-0.7-2.5-2.2-2.5h-0.7v5.2L138.9,413.2z"/>
<path class="st12" d="M198.6,407.6h2.1c1.3,0,2.3,0.5,2.3,1.9s-1,1.9-2.3,1.9h-1.2v2.8h-0.9L198.6,407.6L198.6,407.6z M200.5,410.7
	c1,0,1.6-0.4,1.6-1.3s-0.6-1.2-1.6-1.2h-1.1v2.4L200.5,410.7z M201.1,410.7l2,3.4h-1l-1.7-3L201.1,410.7z"/>
<path class="st12" d="M204.3,411.7c-0.1-1.3,1-2.5,2.3-2.5h0.1c1.2-0.1,2.1,0.8,2.2,1.9c0,0.1,0,0.2,0,0.3c0,0.2,0,0.3,0,0.5h-4.1
	v-0.6h3.6l-0.2,0.2c0-1.1-0.6-1.7-1.5-1.7s-1.7,0.8-1.7,1.7c0,0.1,0,0.1,0,0.2c-0.1,1,0.6,1.8,1.6,1.9c0.1,0,0.2,0,0.3,0
	c0.5,0,1-0.2,1.5-0.5l0.3,0.5c-0.6,0.4-1.2,0.6-1.9,0.6c-1.4,0.1-2.5-0.9-2.7-2.2C204.3,411.9,204.3,411.8,204.3,411.7z"/>
<path class="st12" d="M210.4,411.8c0-1.4,1.1-2.5,2.5-2.6c0.1,0,0.2,0,0.2,0c0.7,0,1.3,0.2,1.8,0.7l-0.4,0.5
	c-0.4-0.3-0.8-0.5-1.3-0.5c-1-0.1-1.8,0.7-1.9,1.7c0,0.1,0,0.1,0,0.2c0,1,0.7,1.8,1.7,1.8c0.1,0,0.1,0,0.2,0c0.6,0,1.1-0.2,1.5-0.6
	l0.4,0.5c-0.5,0.5-1.2,0.8-1.9,0.8c-1.3,0.1-2.5-0.9-2.7-2.2C210.4,412,210.4,411.9,210.4,411.8z"/>
<path class="st12" d="M217.8,413.4c0-0.4,0.4-0.8,0.8-0.8s0.8,0.4,0.8,0.8s-0.4,0.8-0.8,0.8C218.1,414.3,217.8,413.9,217.8,413.4
	C217.8,413.5,217.8,413.4,217.8,413.4z"/>
<path class="st12" d="M228.9,407.6h4v0.7h-3.2v2.2h2.7v0.7h-2.7v2.9h-0.8V407.6z"/>
<path class="st12" d="M234.4,412.9c0-1.1,1-1.6,3.5-1.8c0-0.6-0.4-1.2-1.1-1.2c-0.1,0-0.1,0-0.2,0c-0.6,0-1.2,0.2-1.7,0.6l-0.3-0.6
	c0.6-0.4,1.4-0.7,2.2-0.7c1-0.1,1.9,0.6,2,1.6c0,0.1,0,0.3,0,0.4v3h-0.7l-0.1-0.7l0,0c-0.5,0.5-1.2,0.7-1.9,0.8
	c-0.8,0.1-1.6-0.4-1.7-1.2C234.4,413,234.4,413,234.4,412.9z M237.9,412.9v-1.2c-2.1,0.1-2.7,0.6-2.7,1.2s0.5,0.8,1.1,0.8
	C236.9,413.6,237.5,413.3,237.9,412.9L237.9,412.9z"/>
<path class="st12" d="M240.4,411.8c0-1.4,1.1-2.5,2.5-2.6c0.1,0,0.2,0,0.2,0c0.7,0,1.3,0.2,1.8,0.7l-0.4,0.5
	c-0.4-0.3-0.8-0.5-1.3-0.5c-1-0.1-1.8,0.7-1.9,1.7c0,0.1,0,0.1,0,0.2c0,1,0.7,1.8,1.7,1.8c0.1,0,0.1,0,0.2,0c0.6,0,1.1-0.2,1.5-0.6
	l0.4,0.5c-0.5,0.5-1.2,0.8-1.9,0.8c-1.3,0.1-2.5-0.9-2.7-2.2C240.4,412,240.4,411.9,240.4,411.8z"/>
<path class="st12" d="M248.7,410h-2.2v-0.7h3.1v4.9h-0.8V410H248.7z M248.4,407.7c0-0.4,0.3-0.7,0.6-0.7c0.4,0,0.7,0.3,0.7,0.6
	c0,0.4-0.3,0.7-0.6,0.7l0,0C248.7,408.3,248.4,408.1,248.4,407.7L248.4,407.7L248.4,407.7z"/>
<path class="st12" d="M252.4,412.9c0-1.1,1-1.6,3.5-1.8c0-0.6-0.4-1.2-1.1-1.2c-0.1,0-0.1,0-0.2,0c-0.6,0-1.2,0.2-1.7,0.6l-0.3-0.6
	c0.6-0.4,1.4-0.7,2.2-0.7c1-0.1,1.9,0.6,2,1.6c0,0.1,0,0.3,0,0.4v3h-0.7l-0.1-0.7l0,0c-0.5,0.5-1.2,0.7-1.9,0.8
	c-0.8,0.1-1.6-0.4-1.7-1.2C252.4,413,252.4,413,252.4,412.9z M255.9,412.9v-1.2c-2.1,0.1-2.7,0.6-2.7,1.2s0.5,0.8,1.1,0.8
	C254.9,413.6,255.5,413.3,255.9,412.9L255.9,412.9z"/>
<path class="st12" d="M260,412.5v-4.8h-1.7V407h2.5v5.5c-0.1,0.5,0.3,0.9,0.7,1c0.1,0,0.2,0,0.3,0c0.3,0,0.6-0.1,0.9-0.2l0.2,0.6
	c-0.4,0.2-0.9,0.3-1.3,0.3C260.6,414.3,260,413.7,260,412.5z"/>
<path class="st12" d="M270.6,407.6h1.9c1.3,0,2.2,0.5,2.2,1.6c0,0.7-0.5,1.3-1.1,1.4l0,0c1,0.1,1.5,0.7,1.5,1.6c0,1.3-1,1.9-2.5,1.9
	h-2V407.6z M272.3,410.4c1.1,0,1.6-0.4,1.6-1.1s-0.5-1-1.5-1h-0.9v2.1H272.3z M272.5,413.5c1.1,0,1.8-0.4,1.8-1.2s-0.6-1.1-1.8-1.1
	h-1.1v2.4L272.5,413.5L272.5,413.5z"/>
<path class="st12" d="M278.7,410h-2.2v-0.7h3.1v4.9h-0.8V410H278.7z M278.4,407.7c0-0.4,0.3-0.7,0.6-0.7s0.7,0.3,0.7,0.6
	c0,0.4-0.3,0.7-0.6,0.7l0,0C278.7,408.3,278.4,408.1,278.4,407.7L278.4,407.7L278.4,407.7z"/>
<path class="st12" d="M88.9,402.6v1.4h-5.3v-1.3L88.9,402.6z M78.2,413.3h1.3V408h-1.3V413.3z M88.9,418.6v-1.3h-5.3v1.3H88.9z
	 M90.2,404h0.7c1.1,0,2,0.9,2,2v0.7h1.3V406c0-1.8-1.5-3.3-3.3-3.3h-0.7V404z M82.2,417.3h-0.7c-1.1,0-2-0.9-2-2v-0.7h-1.3v0.7
	c0,1.8,1.5,3.3,3.3,3.3h0.7V417.3z M92.9,414.7v0.7c0,1.1-0.9,2-2,2h-0.7v1.3h0.7c1.8,0,3.3-1.5,3.3-3.3v-0.7H92.9z M94.2,408h-1.3
	v5.3h1.3V408z M79.6,406.7V406c0-1.1,0.9-2,2-2h0.7v-1.3h-0.7c-1.8,0-3.3,1.5-3.3,3.3v0.7H79.6z"/>
<path class="st13" d="M88.2,408.9c-0.3,0-0.5,0.3-0.5,0.6c0,0.3,0.3,0.5,0.6,0.5c0.3,0,0.5-0.2,0.5-0.5
	C88.7,409.1,88.5,408.9,88.2,408.9L88.2,408.9z M84.3,408.9c-0.3,0-0.5,0.2-0.5,0.6c0,0.3,0.2,0.5,0.6,0.5s0.5-0.2,0.5-0.6l0,0
	C84.9,409.1,84.6,408.9,84.3,408.9z M89.2,412.2c-1,1.7-3.1,2.2-4.8,1.2c-0.5-0.3-0.9-0.7-1.2-1.2l-0.4,0.3c0.8,1.1,2,1.8,3.4,1.9
	c1.4-0.1,2.6-0.7,3.4-1.9L89.2,412.2z M89.2,412.2c-1,1.7-3.1,2.2-4.8,1.2c-0.5-0.3-0.9-0.7-1.2-1.2l-0.4,0.3c0.8,1.1,2,1.8,3.4,1.9
	c1.4-0.1,2.6-0.7,3.4-1.9L89.2,412.2z M88.2,410c0.3,0,0.5-0.2,0.5-0.6c0-0.3-0.2-0.5-0.6-0.5s-0.5,0.2-0.5,0.6l0,0
	C87.7,409.7,87.9,410,88.2,410L88.2,410z M84.3,410c0.3,0,0.5-0.3,0.5-0.6c0-0.3-0.3-0.5-0.6-0.5c-0.3,0-0.5,0.2-0.5,0.5
	C83.8,409.7,84,410,84.3,410L84.3,410L84.3,410z M89.2,412.2c-1,1.7-3.1,2.2-4.8,1.2c-0.5-0.3-0.9-0.7-1.2-1.2l-0.4,0.3
	c0.8,1.1,2,1.8,3.4,1.9c1.4-0.1,2.6-0.7,3.4-1.9L89.2,412.2z M88.2,410c0.3,0,0.5-0.2,0.5-0.6c0-0.3-0.2-0.5-0.6-0.5
	s-0.5,0.2-0.5,0.6l0,0C87.7,409.7,87.9,410,88.2,410L88.2,410z M84.4,410c0.3,0,0.5-0.3,0.5-0.6c0-0.3-0.3-0.5-0.6-0.5
	c-0.3,0-0.5,0.2-0.5,0.5C83.8,409.7,84,410,84.4,410L84.4,410z"/>
<line class="st14" x1="86.2" y1="412.5" x2="86.2" y2="410.6"/>
<path class="st12" d="M187.6,402.6v1.4h-5.3v-1.3L187.6,402.6z M177,413.3h1.3V408H177V413.3z M187.7,418.6v-1.3h-5.3v1.3H187.7z
	 M189,404h0.7c1.1,0,2,0.9,2,2v0.7h1.3V406c0-1.8-1.5-3.3-3.3-3.3H189V404z M181,417.3h-0.7c-1.1,0-2-0.9-2-2v-0.7H177v0.7
	c0,1.8,1.5,3.3,3.3,3.3h0.7V417.3z M191.7,414.7v0.7c0,1.1-0.9,2-2,2H189v1.3h0.7c1.8,0,3.3-1.5,3.3-3.3v-0.7H191.7z M193,408h-1.3
	v5.3h1.3V408z M178.3,406.7V406c0-1.1,0.9-2,2-2h0.7v-1.3h-0.7c-1.8,0-3.3,1.5-3.3,3.3v0.7H178.3z"/>
<path class="st12" d="M186.6,410.6c0,0.3-0.3,0.4-0.5,0.4c-0.3,0-0.4-0.3-0.4-0.5s0.2-0.4,0.5-0.4
	C186.4,410.1,186.6,410.4,186.6,410.6z M183.8,410.1c-0.3,0-0.6,0.1-0.6,0.4s0.1,0.6,0.4,0.6c0.3,0,0.6-0.1,0.6-0.4v-0.1
	C184.3,410.4,184.1,410.1,183.8,410.1L183.8,410.1z M185,413.1c0.5,0,0.9-0.4,1.1-0.8h-2.2C184.1,412.7,184.5,413.1,185,413.1
	L185,413.1z M189.3,411c0,0.7-0.3,1.7-1.2,1.9c-0.9,1.7-3,2.4-4.7,1.5c-0.6-0.3-1.2-0.9-1.5-1.5c-0.9-0.2-1.2-1.2-1.2-1.9
	s0.3-1.5,1-1.5c0.2-1.8,1.8-3.1,3.6-3c1.6,0.2,2.8,1.4,3,3C189,409.5,189.3,410.2,189.3,411L189.3,411z M188.6,411
	c0-0.4-0.1-0.7-0.2-0.8c-0.1,0-0.2,0-0.3,0c-0.2,0.1-0.4,0-0.5-0.2v-0.1c0-0.5-0.1-0.9-0.3-1.3c-0.4-0.8-1,0.5-2.3,0.5
	s-1.9-1.2-2.3-0.5c-0.2,0.4-0.3,0.9-0.3,1.3c0,0.2-0.2,0.4-0.4,0.4h-0.1c-0.1,0-0.2,0-0.3,0c-0.4,0.3-0.3,1.9,0.5,1.9
	c0.1,0,0.3,0.1,0.3,0.2c0.6,1.4,2.3,2.1,3.7,1.4c0.6-0.3,1.2-0.8,1.4-1.4c0.1-0.1,0.2-0.2,0.3-0.2C188.5,412.2,188.6,411,188.6,411
	L188.6,411z"/>
<line class="st15" x1="159" y1="403.3" x2="159" y2="418"/>
<path class="st16" d="M72.1,454.8h205.7c5,0,9,4,9,9v26c0,5-4,9-9,9H72.1c-5,0-9-4-9-9v-26C63.1,458.8,67.2,454.8,72.1,454.8z"/>
<path class="st6" d="M137.7,479.1l0.7-0.8c0.7,0.7,1.7,1.1,2.7,1.1c1.3,0,2-0.6,2-1.5s-0.7-1.3-1.7-1.7l-1.4-0.6
	c-1.1-0.3-1.9-1.2-2-2.4c0-1.4,1.3-2.5,3-2.5c1.1,0,2.1,0.4,2.9,1.2l-0.6,0.8c-0.6-0.6-1.4-0.9-2.3-0.9c-1.1,0-1.8,0.5-1.8,1.4
	s0.9,1.2,1.7,1.5l1.3,0.6c1.1,0.5,2,1.1,2,2.5s-1.2,2.6-3.3,2.6C139.7,480.5,138.6,479.9,137.7,479.1z"/>
<path class="st6" d="M149.7,474.3h-3.2v-1h4.4v6.9h-1.2V474.3z M149.2,471c0-0.5,0.4-0.9,0.9-0.9s0.9,0.4,0.9,0.9s-0.4,0.9-0.9,0.9
	l0,0c-0.5,0-0.9-0.3-0.9-0.8V471L149.2,471z"/>
<path class="st6" d="M154.8,481.5c0.1-0.7,0.5-1.3,1.1-1.5v-0.1c-0.4-0.2-0.7-0.6-0.7-1.1c0.1-0.5,0.4-1,0.8-1.3v-0.1
	c-0.6-0.4-0.9-1.1-0.9-1.8c0-1.4,1.2-2.5,2.6-2.5h0.1c0.3,0,0.7,0.1,1,0.2h2.9v1h-1.8c0.4,0.4,0.6,0.9,0.6,1.4
	c0,1.3-1.1,2.4-2.5,2.4c-0.1,0-0.1,0-0.2,0c-0.4,0-0.8-0.1-1.2-0.2c-0.3,0.1-0.5,0.5-0.5,0.8c0,0.5,0.5,0.8,1.4,0.8h1.5
	c1.8,0,2.6,0.5,2.6,1.6s-1.5,2.4-3.8,2.4C155.9,483.4,154.8,482.7,154.8,481.5z M160.6,481.2c0-0.6-0.5-0.8-1.6-0.8h-1.3
	c-0.4,0-0.7,0-1.1-0.1c-0.6,0.4-0.9,0.8-0.9,1.1c0,0.7,0.8,1.2,2.2,1.2S160.6,481.9,160.6,481.2z M159.4,475.7
	c0-0.9-0.7-1.6-1.6-1.6c-0.9,0-1.6,0.7-1.6,1.6s0.7,1.6,1.6,1.6C158.7,477.3,159.4,476.6,159.4,475.7L159.4,475.7z"/>
<path class="st6" d="M163.3,477.7v-4.3h1.2v4.1c0,1.3,0.5,1.9,1.6,1.9c0.9-0.1,1.7-0.5,2.1-1.3v-4.8h1.2v6.9h-1l-0.1-1.2h-0.1
	c-0.6,0.8-1.5,1.3-2.6,1.4C164.1,480.4,163.3,479.5,163.3,477.7z"/>
<path class="st6" d="M175.2,474.3H172v-1h4.4v6.9h-1.2V474.3z M174.7,471c0-0.5,0.4-1,0.9-1s1,0.4,1,0.9s-0.4,1-0.9,1l0,0
	C175.2,472,174.7,471.6,174.7,471C174.7,471.1,174.7,471,174.7,471L174.7,471z"/>
<path class="st6" d="M180.2,476.8c-0.1-1.9,1.4-3.5,3.3-3.6c0.1,0,0.1,0,0.2,0c1.7-0.1,3.1,1.2,3.1,2.8c0,0.1,0,0.3,0,0.4
	c0,0.2,0,0.5-0.1,0.7H181v-0.9h5.1l-0.3,0.3c0-1.6-0.8-2.4-2.1-2.4s-2.4,1.1-2.4,2.5c0,0.1,0,0.1,0,0.2c-0.1,1.4,0.9,2.6,2.3,2.7
	c0.1,0,0.3,0,0.4,0c0.7,0,1.5-0.2,2.1-0.6l0.4,0.8c-0.8,0.5-1.7,0.8-2.7,0.8c-1.9,0.2-3.6-1.3-3.8-3.2
	C180.2,477.1,180.2,476.9,180.2,476.8z"/>
<path class="st6" d="M189,473.4h1l0.1,1.2h0.1c0.6-0.8,1.6-1.3,2.6-1.3c1.6,0,2.4,1,2.4,2.8v4.3H194v-4.1c0-1.3-0.4-1.9-1.6-1.9
	c-0.8,0-1.4,0.4-2.2,1.2v4.8H189V473.4z"/>
<path class="st6" d="M199.1,477.6v-3.3h-2v-0.9l2-0.1l0.2-2.2h1v2.2h3.4v1h-3.4v3.3c0,1.2,0.4,1.9,1.7,1.9c0.6,0,1.1-0.1,1.6-0.3
	l0.3,0.9c-0.7,0.3-1.4,0.4-2.2,0.4C199.8,480.4,199.1,479.3,199.1,477.6z"/>
<path class="st6" d="M205.6,476.8c-0.1-1.9,1.4-3.5,3.3-3.6c0.1,0,0.1,0,0.2,0c1.7-0.1,3.1,1.2,3.2,2.8c0,0.1,0,0.3,0,0.4
	c0,0.2,0,0.5-0.1,0.7h-5.8v-0.9h5.1l-0.3,0.3c0-1.6-0.8-2.4-2.1-2.4s-2.4,1.1-2.4,2.5c0,0.1,0,0.1,0,0.2c-0.1,1.4,0.9,2.6,2.3,2.7
	c0.1,0,0.3,0,0.4,0c0.7,0,1.5-0.2,2.1-0.6l0.4,0.8c-0.8,0.5-1.7,0.8-2.7,0.8c-1.9,0.1-3.6-1.3-3.7-3.2
	C205.6,477.1,205.6,476.9,205.6,476.8z"/>
<path class="st11" d="M103.8,533.5c0-2.5,1.2-4,3-4s3,1.5,3,4s-1.2,4.1-3,4.1S103.8,536.1,103.8,533.5z M108.8,533.5
	c0-2-0.8-3.2-2-3.2s-2,1.2-2,3.2s0.8,3.2,2,3.2S108.8,535.5,108.8,533.5z"/>
<path class="st11" d="M113.4,535.5v-5.8h-2.1v-0.8h3.1v6.7c-0.1,0.6,0.3,1.1,0.9,1.2c0.1,0,0.2,0,0.3,0c0.4,0,0.8-0.1,1.1-0.3
	l0.2,0.8c-0.5,0.2-1,0.4-1.6,0.3C114.1,537.6,113.4,536.9,113.4,535.5z"/>
<path class="st11" d="M118.2,531.6h1l1.3,3.3c0.2,0.6,0.4,1.2,0.7,1.7l0,0c0.2-0.6,0.4-1.1,0.6-1.7l1.3-3.3h1l-2.4,5.8h-1.1
	L118.2,531.6z"/>
<path class="st11" d="M128.6,532.4h-2.7v-0.8h3.7v5.8h-1V532.4z M128.2,529.6c0-0.4,0.3-0.8,0.8-0.8c0.4,0,0.8,0.3,0.8,0.8
	s-0.3,0.8-0.8,0.8l0,0C128.6,530.4,128.2,530.1,128.2,529.6C128.2,529.7,128.2,529.7,128.2,529.6z"/>
<path class="st11" d="M132.7,534.6c-0.1-1.5,1-2.9,2.5-3.1h0.1c0.7,0,1.3,0.3,1.8,0.7l0,0l-0.1-1.1v-2.2h1v8.5h-0.8l-0.1-0.8l0,0
	c-0.5,0.5-1.2,0.9-1.9,0.9C133.7,537.6,132.7,536.5,132.7,534.6z M137.1,535.9V533c-0.4-0.4-0.9-0.7-1.5-0.7
	c-1.1,0.1-1.9,1.1-1.8,2.2c0,0,0,0,0,0.1c0,1.4,0.6,2.2,1.7,2.2C136.1,536.7,136.7,536.4,137.1,535.9z"/>
<path class="st11" d="M140,534.5c0-1.6,1.2-3,2.9-3h0.1c1.4-0.1,2.6,0.9,2.7,2.3c0,0.1,0,0.3,0,0.4c0,0.2,0,0.4,0,0.6h-4.9V534h4.3
	l-0.2,0.3c0-1.4-0.7-2.1-1.8-2.1s-2,1-2,2.1c0,0.1,0,0.1,0,0.2c-0.1,1.2,0.8,2.2,1.9,2.3c0.1,0,0.2,0,0.3,0c0.6,0,1.3-0.2,1.8-0.5
	l0.4,0.7c-0.7,0.5-1.5,0.7-2.3,0.7c-1.7,0.1-3.1-1.2-3.2-2.8C140,534.7,140,534.6,140,534.5z M142.2,530.2l1.7-2l0.7,0.7l-1.9,1.8
	L142.2,530.2z"/>
<path class="st11" d="M154.3,531.6h0.8l0.1,0.8l0,0c0.2-0.5,0.7-0.9,1.3-0.9s0.9,0.3,1.1,1c0.3-0.6,0.7-1,1.4-1
	c0.8,0,1.3,0.6,1.3,1.8v4.2h-1v-4.1c0-0.7-0.2-1-0.6-1s-0.6,0.3-0.9,0.9v4.2h-0.9v-4.1c0-0.7-0.2-1-0.6-1s-0.7,0.3-1,0.9v4.2h-1
	L154.3,531.6z"/>
<path class="st11" d="M164.6,532.4h-2.7v-0.8h3.7v5.8h-1V532.4z M164.2,529.6c0-0.4,0.3-0.8,0.8-0.8c0.4,0,0.8,0.3,0.8,0.8
	s-0.3,0.8-0.8,0.8l0,0C164.6,530.4,164.2,530.1,164.2,529.6C164.2,529.7,164.2,529.7,164.2,529.6z"/>
<path class="st11" d="M176.2,534.6c0-1.7,1.3-3,2.9-3.1c0.1,0,0.2,0,0.3,0c0.8,0,1.6,0.3,2.1,0.8l-0.5,0.6c-0.4-0.4-1-0.6-1.6-0.7
	c-1.2,0-2.2,1-2.2,2.2s1,2.2,2.2,2.2c0.7,0,1.3-0.3,1.8-0.7l0.4,0.6c-0.6,0.6-1.5,0.9-2.3,0.9c-1.6,0.2-3-1-3.2-2.7
	C176.2,534.8,176.2,534.7,176.2,534.6z"/>
<path class="st11" d="M183.1,534.6c0.1-1.6,1.5-2.8,3-2.7c1.6,0.1,2.8,1.5,2.7,3s-1.3,2.7-2.9,2.7c-1.6,0-2.9-1.3-2.9-2.8
	C183.1,534.7,183.1,534.6,183.1,534.6z M187.9,534.6c0-1.3-0.7-2.2-1.9-2.2s-1.9,0.9-1.9,2.2s0.8,2.2,1.9,2.2
	S187.9,535.9,187.9,534.6L187.9,534.6z"/>
<path class="st11" d="M190.7,531.6h0.8l0.1,1h0.1c0.5-0.7,1.3-1.1,2.2-1.1c1.4,0,2,0.8,2,2.3v3.6h-1V534c0-1.1-0.4-1.6-1.3-1.6
	c-0.7,0-1.2,0.3-1.8,1v4.1h-1L190.7,531.6z"/>
<path class="st11" d="M199.3,535.2v-2.8h-1.6v-0.8l1.7-0.1l0.1-1.9h0.8v1.9h2.9v0.8h-2.9v2.8c0,1,0.4,1.6,1.5,1.6
	c0.5,0,1-0.1,1.4-0.3l0.2,0.7c-0.6,0.2-1.2,0.3-1.8,0.3C199.8,537.6,199.3,536.6,199.3,535.2z"/>
<path class="st11" d="M205.8,531.6h0.8l0.1,1.4l0,0c0.5-0.9,1.5-1.5,2.6-1.5c0.4,0,0.8,0.1,1.1,0.2l-0.2,0.8
	c-0.3-0.1-0.7-0.2-1.1-0.2c-1.1,0-2,0.7-2.4,1.7v3.4h-1L205.8,531.6z"/>
<path class="st11" d="M212.2,536c0-1.3,1.2-1.9,4.2-2.2c0-0.8-0.5-1.4-1.3-1.5c-0.1,0-0.2,0-0.3,0c-0.7,0.1-1.4,0.3-2,0.7l-0.4-0.7
	c0.8-0.5,1.7-0.8,2.6-0.8c1.2-0.1,2.3,0.8,2.4,1.9c0,0.2,0,0.3,0,0.5v3.6h-0.8l-0.1-0.8l0,0c-0.6,0.6-1.4,0.9-2.3,0.9
	c-1,0.2-1.9-0.5-2-1.4C212.2,536.1,212.2,536.1,212.2,536z M216.4,536v-1.5c-2.5,0.2-3.2,0.7-3.2,1.5s0.6,0.9,1.3,0.9
	C215.2,536.8,215.9,536.5,216.4,536L216.4,536z"/>
<path class="st11" d="M219.3,536.7l0.5-0.7c0.7,0.5,1.6,0.8,2.5,0.8c1,0,1.5-0.4,1.5-0.9s-0.2-0.8-1.8-1.1s-2.3-0.8-2.3-1.7
	s0.8-1.7,2.4-1.7c0.8,0,1.7,0.3,2.4,0.7l-0.5,0.6c-0.6-0.4-1.3-0.6-2-0.6c-1,0-1.3,0.4-1.3,0.8s0.5,0.7,1.7,1
	c1.9,0.4,2.4,0.9,2.4,1.8s-0.9,1.7-2.6,1.7C221.1,537.6,220.1,537.3,219.3,536.7z"/>
<path class="st11" d="M226.4,534.5c0-1.6,1.2-3,2.9-3h0.1c1.4-0.1,2.6,1,2.7,2.3c0,0.1,0,0.3,0,0.4c0,0.2,0,0.4,0,0.6h-4.9V534h4.3
	l-0.2,0.3c0-1.4-0.7-2.1-1.8-2.1s-2,1-2,2.1c0,0.1,0,0.1,0,0.2c-0.1,1.2,0.8,2.2,1.9,2.3c0.1,0,0.2,0,0.3,0c0.6,0,1.3-0.2,1.8-0.5
	l0.4,0.7c-0.7,0.5-1.5,0.7-2.3,0.7c-1.7,0.1-3.1-1.1-3.2-2.7C226.4,534.8,226.4,534.7,226.4,534.5z"/>
<path class="st11" d="M233.9,531.6h0.8l0.1,1l0,0c0.5-0.7,1.3-1.1,2.2-1.1c1.4,0,2,0.8,2,2.3v3.6h-1V534c0-1.1-0.4-1.6-1.3-1.6
	c-0.7,0-1.2,0.3-1.8,1v4.1h-1V531.6z M235.8,529.5c-0.4,0-0.5,0.4-0.6,1h-0.7c0-0.9,0.4-1.6,1.2-1.6s1.2,1,1.7,1
	c0.4,0,0.5-0.4,0.6-0.9h0.7c0,0.9-0.4,1.6-1.2,1.6S236.3,529.5,235.8,529.5z"/>
<path class="st11" d="M241,536c0-1.3,1.2-1.9,4.2-2.2c0-0.8-0.5-1.4-1.3-1.5c-0.1,0-0.2,0-0.3,0c-0.7,0.1-1.4,0.3-2,0.7l-0.4-0.7
	c0.8-0.5,1.7-0.8,2.6-0.8c1.2-0.1,2.3,0.8,2.4,1.9c0,0.2,0,0.3,0,0.5v3.6h-0.8l-0.1-0.8l0,0c-0.6,0.6-1.4,0.9-2.3,0.9
	c-1,0.2-1.9-0.5-2-1.4C241,536.1,241,536.1,241,536z M245.2,536v-1.5c-2.5,0.2-3.2,0.7-3.2,1.5s0.6,0.9,1.3,0.9
	C244,536.8,244.7,536.5,245.2,536L245.2,536z"/>
<path class="st11" d="M114.7,591.1c0-2.5,1.5-4.1,3.5-4.1c0.8,0,1.6,0.4,2.2,1l-0.6,0.6c-0.4-0.5-1-0.7-1.6-0.7
	c-1.5,0-2.5,1.2-2.5,3.2s1,3.2,2.5,3.2c0.7,0,1.3-0.3,1.8-0.9l0.6,0.6c-0.6,0.7-1.5,1.2-2.4,1.1
	C116.2,595.2,114.7,593.6,114.7,591.1z"/>
<path class="st11" d="M122.8,589.2h0.8l0.1,1.4l0,0c0.5-0.9,1.5-1.5,2.6-1.5c0.4,0,0.8,0.1,1.2,0.2l-0.2,0.8
	c-0.3-0.1-0.7-0.2-1.1-0.2c-1.1,0-2,0.7-2.4,1.7v3.4h-1V589.2z"/>
<path class="st11" d="M129.1,592.1c-0.1-1.6,1.2-3,2.8-3c0.1,0,0.1,0,0.2,0c1.4-0.1,2.6,1,2.7,2.3c0,0.1,0,0.3,0,0.4
	c0,0.2,0,0.4-0.1,0.6h-4.9v-0.8h4.3l-0.2,0.3c0-1.4-0.7-2.1-1.8-2.1s-2,1-2,2.1c0,0.1,0,0.1,0,0.2c-0.1,1.2,0.8,2.2,1.9,2.3
	c0.1,0,0.2,0,0.3,0c0.6,0,1.3-0.2,1.8-0.5l0.4,0.6c-0.7,0.5-1.5,0.7-2.3,0.7c-1.7,0.1-3.1-1.1-3.2-2.8
	C129.1,592.3,129.1,592.2,129.1,592.1z"/>
<path class="st11" d="M136.5,593.5c0-1.3,1.2-2,4.2-2.2c0-0.8-0.5-1.4-1.3-1.5c-0.1,0-0.2,0-0.2,0c-0.7,0.1-1.4,0.3-2,0.7l-0.4-0.7
	c0.8-0.5,1.7-0.8,2.6-0.8c1.2-0.1,2.3,0.8,2.4,1.9c0,0.2,0,0.3,0,0.5v3.6H141l-0.1-0.8l0,0c-0.6,0.6-1.5,0.9-2.3,0.9
	c-1,0.2-1.9-0.5-2-1.5C136.5,593.6,136.5,593.6,136.5,593.5z M140.7,593.5V592c-2.5,0.2-3.2,0.7-3.2,1.5s0.6,0.9,1.3,0.9
	C139.5,594.3,140.2,594,140.7,593.5L140.7,593.5z"/>
<path class="st11" d="M144.4,589.2h0.8l0.1,1.4l0,0c0.5-0.9,1.5-1.5,2.6-1.6c0.4,0,0.8,0.1,1.1,0.2l-0.2,0.8
	c-0.3-0.1-0.7-0.2-1.1-0.2c-1.1,0-2,0.7-2.4,1.7v3.4h-1L144.4,589.2L144.4,589.2z"/>
<path class="st11" d="M158.3,587.1h2.2c1.6,0,2.7,0.5,2.7,1.9c0,0.8-0.6,1.6-1.4,1.7l0,0c1.1,0.2,1.8,0.8,1.8,1.9
	c0,1.5-1.2,2.3-3,2.3h-2.4L158.3,587.1L158.3,587.1z M160.4,590.5c1.4,0,1.9-0.4,1.9-1.3s-0.6-1.2-1.8-1.2h-1.1v2.5H160.4z
	 M160.6,594.2c1.3,0,2.1-0.5,2.1-1.5s-0.7-1.4-2.1-1.4h-1.3v2.9H160.6z"/>
<path class="st11" d="M168.1,590h-2.7v-0.8h3.7v5.8h-1V590z M167.7,587.2c0-0.4,0.3-0.8,0.8-0.8c0.4,0,0.8,0.3,0.8,0.8
	c0,0.4-0.3,0.8-0.8,0.8l0,0C168.1,588,167.7,587.7,167.7,587.2C167.7,587.3,167.7,587.2,167.7,587.2L167.7,587.2z"/>
<path class="st11" d="M179.5,592.1c-0.1-1.6,1.2-3,2.8-3c0.1,0,0.1,0,0.2,0c1.4-0.1,2.6,1,2.7,2.3c0,0.1,0,0.3,0,0.4
	c0,0.2,0,0.4,0,0.6h-4.9v-0.8h4.3l-0.2,0.3c0-1.4-0.7-2.1-1.8-2.1s-2,1-2,2.1c0,0.1,0,0.1,0,0.2c-0.1,1.2,0.8,2.2,1.9,2.3
	c0.1,0,0.2,0,0.3,0c0.6,0,1.3-0.2,1.8-0.5l0.4,0.6c-0.7,0.5-1.4,0.7-2.2,0.7c-1.7,0.1-3.1-1.1-3.2-2.7
	C179.5,592.3,179.5,592.2,179.5,592.1z"/>
<path class="st11" d="M187,589.2h0.8l0.1,1l0,0c0.5-0.7,1.3-1.1,2.2-1.1c1.4,0,2,0.8,2,2.3v3.6h-1v-3.5c0-1.1-0.4-1.6-1.3-1.6
	c-0.7,0-1.4,0.4-1.8,1v4.1h-1V589.2z"/>
<path class="st11" d="M201.9,587.1h1v7h3.9v0.9h-4.9V587.1z"/>
<path class="st11" d="M211.3,590h-2.7v-0.8h3.7v5.8h-1V590z M210.9,587.7l1.7-2l0.7,0.7l-1.9,1.8L210.9,587.7z"/>
<path class="st11" d="M215.8,589.2h0.8l0.1,1l0,0c0.5-0.7,1.4-1.1,2.3-1.2c1.4,0,2,0.8,2,2.3v3.7h-1v-3.5c0-1.1-0.4-1.6-1.3-1.6
	c-0.7,0-1.4,0.4-1.8,1v4.1h-1v-5.8H215.8z"/>
<path class="st11" d="M222.7,592.1c-0.1-1.6,1.2-3,2.8-3c0.1,0,0.1,0,0.2,0c1.4-0.1,2.6,1,2.7,2.3c0,0.1,0,0.3,0,0.4
	c0,0.2,0,0.4,0,0.6h-4.9v-0.8h4.3l-0.2,0.3c0-1.4-0.7-2.1-1.8-2.1s-2,1-2,2.1c0,0.1,0,0.1,0,0.2c-0.1,1.2,0.8,2.2,1.9,2.3
	c0.1,0,0.2,0,0.3,0c0.6,0,1.2-0.2,1.8-0.5l0.4,0.6c-0.7,0.5-1.4,0.7-2.2,0.7c-1.7,0.1-3.1-1.1-3.2-2.8
	C222.7,592.3,222.7,592.2,222.7,592.1z"/>
<path class="st11" d="M230.1,593.5c0-1.3,1.2-2,4.2-2.2c0-0.8-0.5-1.4-1.3-1.5c-0.1,0-0.2,0-0.3,0c-0.7,0.1-1.4,0.3-2,0.7l-0.4-0.7
	c0.8-0.5,1.7-0.8,2.6-0.8c1.2-0.1,2.3,0.7,2.4,1.9c0,0.2,0,0.3,0,0.5v3.6h-0.8l-0.1-0.8l0,0c-0.6,0.6-1.4,0.9-2.3,0.9
	c-1,0.2-1.9-0.5-2-1.4C230.1,593.6,230.1,593.6,230.1,593.5z M234.3,593.5V592c-2.5,0.2-3.2,0.7-3.2,1.5s0.6,0.9,1.3,0.9
	C233.1,594.3,233.8,594,234.3,593.5L234.3,593.5z"/>
<path class="st11" d="M123.6,562.5c0-2.5,1.5-4.1,3.5-4.1c0.8,0,1.6,0.4,2.2,1l-0.6,0.6c-0.4-0.5-1-0.7-1.6-0.7
	c-1.5,0-2.5,1.2-2.5,3.2s1,3.2,2.5,3.2c0.7,0,1.3-0.3,1.8-0.9l0.6,0.6c-0.6,0.7-1.5,1.2-2.4,1.1
	C125.1,566.6,123.6,565.1,123.6,562.5z"/>
<path class="st11" d="M131.8,560.6h0.8l0.1,1.4l0,0c0.5-0.9,1.5-1.5,2.6-1.5c0.4,0,0.8,0.1,1.1,0.2l-0.2,0.8
	c-0.3-0.1-0.7-0.2-1.1-0.2c-1.1,0-2,0.7-2.4,1.7v3.4h-1L131.8,560.6z"/>
<path class="st11" d="M138,563.5c0-1.6,1.2-3,2.9-3h0.1c1.4-0.1,2.6,0.9,2.7,2.3c0,0.1,0,0.3,0,0.4c0,0.2,0,0.4,0,0.6h-4.9V563h4.3
	l-0.3,0.3c0-1.4-0.7-2.1-1.8-2.1s-2,0.9-2,2c0,0.1,0,0.2,0,0.3c-0.1,1.2,0.8,2.2,1.9,2.3c0.1,0,0.2,0,0.3,0c0.6,0,1.2-0.2,1.8-0.5
	l0.4,0.7c-0.7,0.5-1.4,0.7-2.2,0.7c-1.7,0.1-3.1-1.2-3.1-2.8C138,563.6,138,563.6,138,563.5z"/>
<path class="st11" d="M145.4,564.9c0-1.3,1.2-2,4.2-2.2c0.1-0.8-0.5-1.4-1.3-1.5c-0.1,0-0.2,0-0.3,0c-0.7,0-1.4,0.3-2,0.7l-0.4-0.7
	c0.8-0.5,1.7-0.8,2.6-0.8c1.2-0.1,2.3,0.7,2.4,1.9c0,0.2,0,0.3,0,0.5v3.6h-0.8l-0.1-0.8l0,0c-0.6,0.5-1.4,0.9-2.3,0.9
	c-1,0.2-1.9-0.5-2-1.5C145.4,565.1,145.4,565,145.4,564.9z M149.6,564.9v-1.5c-2.5,0.2-3.2,0.7-3.2,1.5s0.6,0.9,1.3,0.9
	C148.4,565.7,149.1,565.4,149.6,564.9L149.6,564.9z"/>
<path class="st11" d="M153.4,560.6h0.8l0.1,1.4l0,0c0.5-0.9,1.5-1.5,2.6-1.5c0.4,0,0.8,0.1,1.1,0.2l-0.2,0.8
	c-0.3-0.1-0.7-0.2-1.1-0.2c-1.1,0-2,0.7-2.4,1.7v3.4h-1L153.4,560.6z"/>
<path class="st11" d="M167,563.5c0-1.7,1.3-3,2.9-3.1c0.1,0,0.2,0,0.3,0c0.8,0,1.6,0.3,2.1,0.8l-0.5,0.6c-0.4-0.4-1-0.6-1.6-0.7
	c-1.2-0.1-2.2,0.8-2.3,2c0,0.1,0,0.2,0,0.2c-0.1,1.2,0.8,2.2,2,2.2c0.1,0,0.2,0,0.2,0c0.7,0,1.3-0.3,1.7-0.8l0.4,0.7
	c-0.6,0.6-1.5,0.9-2.3,0.9c-1.6,0.1-3-1.1-3.1-2.7C167,563.7,167,563.6,167,563.5z"/>
<path class="st11" d="M174.1,564.2v-3.6h1v3.5c0,1.1,0.4,1.6,1.3,1.6c0.7,0,1.4-0.4,1.8-1.1v-4h1v5.8h-0.8l-0.1-1l0,0
	c-0.5,0.7-1.3,1.1-2.2,1.2C174.8,566.6,174.1,565.8,174.1,564.2z"/>
<path class="st11" d="M181.2,563.5c0-1.6,1.2-3,2.9-3h0.1c1.4-0.1,2.6,0.9,2.7,2.3c0,0.1,0,0.3,0,0.4c0,0.2,0,0.4-0.1,0.6h-4.9V563
	h4.3l-0.2,0.3c0-1.4-0.7-2.1-1.8-2.1s-2,0.9-2,2c0,0.1,0,0.2,0,0.3c-0.1,1.2,0.8,2.2,1.9,2.3c0.1,0,0.2,0,0.3,0
	c0.6,0,1.2-0.2,1.8-0.5l0.4,0.7c-0.7,0.5-1.4,0.7-2.2,0.7c-1.7,0.1-3.1-1.2-3.2-2.8C181.2,563.7,181.2,563.6,181.2,563.5z"/>
<path class="st11" d="M188.7,560.6h0.8l0.1,1h0.1c0.5-0.7,1.3-1.1,2.2-1.1c1.4,0,2,0.8,2,2.3v3.6h-1V563c0-1.1-0.4-1.6-1.3-1.6
	c-0.7,0-1.2,0.3-1.8,1v4.1h-1L188.7,560.6z"/>
<path class="st11" d="M197.3,564.2v-2.8h-1.7v-0.7l1.7-0.1l0.1-1.9h0.8v1.9h2.9v0.8h-2.9v2.8c0,1,0.4,1.6,1.5,1.6
	c0.5,0,0.9-0.1,1.4-0.3l0.2,0.7c-0.6,0.2-1.2,0.3-1.8,0.3C197.8,566.6,197.3,565.6,197.3,564.2z"/>
<path class="st11" d="M203,564.9c0-1.3,1.2-2,4.2-2.2c0-0.8-0.5-1.4-1.3-1.5c-0.1,0-0.2,0-0.2,0c-0.7,0-1.4,0.3-2,0.7l-0.4-0.7
	c0.8-0.5,1.7-0.8,2.6-0.8c1.2-0.1,2.3,0.7,2.4,1.9c0,0.2,0,0.3,0,0.5v3.6h-0.8l-0.1-0.8l0,0c-0.6,0.5-1.4,0.9-2.3,0.9
	c-1,0.2-1.9-0.5-2-1.5C203,565.1,203,565,203,564.9z M207.2,564.9v-1.5c-2.5,0.2-3.2,0.7-3.2,1.5s0.6,0.9,1.3,0.9
	C206,565.7,206.7,565.4,207.2,564.9L207.2,564.9z"/>
<path class="st11" d="M217.6,558.6h2.2c1.6,0,2.7,0.5,2.7,1.9c0,0.8-0.6,1.6-1.4,1.7l0,0c1,0,1.8,0.9,1.8,1.9l0,0
	c0,1.5-1.2,2.3-3,2.3h-2.4L217.6,558.6z M219.7,561.9c1.3,0,1.9-0.4,1.9-1.3s-0.6-1.2-1.8-1.2h-1.1v2.5H219.7z M219.9,565.6
	c1.3,0,2.1-0.4,2.1-1.5s-0.8-1.4-2.1-1.4h-1.3v2.9H219.9z"/>
<path class="st11" d="M227.4,561.4h-2.7v-0.8h3.7v5.8h-1V561.4z M227,558.6c0-0.4,0.4-0.8,0.8-0.8c0.4,0,0.8,0.4,0.8,0.8
	s-0.4,0.8-0.8,0.8C227.4,559.4,227,559,227,558.6z"/>
<circle class="st17" cx="107.6" cy="562.2" r="5.7"/>
</svg>
