<?xml version="1.0" encoding="utf-8"?>
<!-- Generator: Adobe Illustrator 26.4.1, SVG Export Plug-In . SVG Version: 6.00 Build 0)  -->
<svg version="1.1" id="Layer_1" xmlns="http://www.w3.org/2000/svg" xmlns:xlink="http://www.w3.org/1999/xlink" x="0px" y="0px"
	 viewBox="0 0 350 650" style="enable-background:new 0 0 350 650;" xml:space="preserve">
<style type="text/css">
	.st0{fill:#163A64;}
	.st1{fill:#163A63;}
	.st2{fill:#172D4A;}
	.st3{fill:#F7B01A;}
	.st4{fill:#FFFFFF;}
	.st5{fill:#3CB3C9;}
	.st6{fill:#193A62;}
	.st7{fill:#223F83;}
	.st8{fill:none;stroke:#ABABAB;stroke-width:0.5;stroke-miterlimit:10;}
	.st9{fill:#CCCCCB;}
	.st10{fill:#2799C5;}
	.st11{fill:#CBC62C;}
</style>
<g id="Layer_1_00000172400042579244559620000008004620663302246284_">
	<rect class="st0" width="350" height="650"/>
</g>
<path class="st0" d="M210.3,45.6h-70.7c-17,0-30.8,13.8-30.8,30.8v70.7c0.1,17,13.9,30.8,30.9,30.8h70.5c17-0.1,30.8-13.8,31-30.9
	V76.5C241.1,59.5,227.3,45.7,210.3,45.6z M184.4,133c-0.2,9.7-5.7,15.8-15.4,17.3c-5.3,0.7-10.9,0.6-16.4,0.6c-2,0-4.2-0.2-6.2,0
	c-1.1,0-1.3-0.4-1.3-1.3v-8.1c0-0.7-0.2-1.1-1.1-1.1c-7,0.2-8.4-0.2-8.6-0.4c-2.3-0.9-3.7-3.2-3.5-5.7c0-14.1,0-28.1-0.2-42
	c0-1.1,0.2-1.5,1.5-1.5h26.1c4.1-0.1,8.1,0.6,11.9,2c7,2.9,9.4,8.4,8.8,15.2c-0.4,5-2.2,7.3-6.8,10.5c1.3,0.3,2.5,0.7,3.7,1.3
	C182.2,122.6,184.6,127.2,184.4,133z M202.4,149c0,1.1-0.2,1.5-1.5,1.5h-10.5c-0.9,0-1.1-0.2-1.1-1.1c0-11.8-0.2-23.3-0.2-35.1
	c0-3.5,2.2-5.5,5.7-5.5h5.9c1.1,0,1.7,0.2,1.7,1.4c-0.2,6.6-0.2,12.8-0.2,19.3C202.3,136,202.3,142.6,202.4,149L202.4,149z
	 M223,85.3L223,85.3c0.1,2.8-2.1,5.2-4.9,5.3c-0.1,0-0.3,0-0.4,0h-15.6V98c0,2-0.9,2.9-2.9,2.9h-9c-0.9,0-1.3-0.2-1.1-1.1v-6.3
	c0-2,1.1-2.9,3.1-2.9c3.3,0,6.6,0.2,9.9,0c0-4.4-0.2-8.6,0-13.1c-0.1-2.8,2.1-5.1,4.8-5.2c0.2,0,0.3,0,0.5,0h14.3
	c0.9,0,1.3,0.2,1.3,1.1L223,85.3z"/>
<path class="st1" d="M184.4,133c-0.2,9.7-5.7,15.8-15.4,17.3c-5.3,0.7-10.9,0.6-16.4,0.6c-2,0-4.2-0.2-6.2,0c-1.1,0-1.3-0.4-1.3-1.3
	v-8.1c0-0.7-0.2-1.1-1.1-1.1c-7,0.2-8.4-0.2-8.6-0.4c-2.3-0.9-3.7-3.2-3.5-5.7c0-14.1,0-28.1-0.2-42c0-1.1,0.2-1.5,1.5-1.5h26.1
	c4.1-0.1,8.1,0.6,11.9,2c7,2.9,9.4,8.4,8.8,15.2c-0.4,5-2.2,7.3-6.8,10.5c1.3,0.3,2.5,0.7,3.7,1.3
	C182.2,122.6,184.6,127.2,184.4,133z"/>
<path class="st2" d="M176.9,119.8c-1.2-0.5-2.4-1-3.7-1.3c4.6-3.1,6.4-5.5,6.8-10.5c0.6-6.8-1.8-12.3-8.8-15.2
	c-3.8-1.4-7.9-2.1-11.9-2h-26.1c-1.3,0-1.5,0.4-1.5,1.5c0.2,14,0.2,27.9,0.2,42c-0.2,2.5,1.2,4.8,3.5,5.7c0.2,0.2,1.7,0.6,8.6,0.4
	c0.9,0,1.1,0.4,1.1,1.1v8.1c0,0.9,0.2,1.3,1.3,1.3c2-0.2,4.2,0,6.2,0c5.5,0,11,0.2,16.4-0.5c9.7-1.5,15.2-7.5,15.4-17.3
	C184.6,127.2,182.2,122.6,176.9,119.8L176.9,119.8z M144.8,113.2c0.2-3.7,0.2-7.2,0.2-10.7c0-0.7,0-1.3,0.9-1.1
	c4.6,0.2,9.4-0.2,14,0.2c1.3,0.1,2.7,0.5,3.9,1.1c2.4,1.5,2.9,3.7,2.8,6.1s-1.7,3.8-4,4.8c-3.1,1.1-6.4,0.7-9.2,0.7h-7.2
	C145.2,114.3,144.8,114.1,144.8,113.2L144.8,113.2z M170.3,136c-1.5,2.9-4.4,3.9-7.5,4.2c-5.5,0.4-11.2,0.2-16.7,0.2
	c-0.7,0-0.9-0.2-0.9-0.9v-13.6c0-0.9,0.4-1.1,1.1-0.9h8.8c3.1,0.2,7-0.6,10.6,0.5c3.9,0.9,6.2,4.8,5.3,8.7
	C170.9,134.8,170.6,135.4,170.3,136z"/>
<path class="st2" d="M202.1,90.6V98c0,2-0.9,2.9-2.9,2.9h-9c-0.9,0-1.3-0.2-1.1-1.1v-6.3c0-2,1.1-2.9,3.1-2.9
	C195.5,90.6,198.8,90.8,202.1,90.6z"/>
<path class="st2" d="M202.3,129.6c0,6.4,0,13,0.2,19.5c0,1.1-0.2,1.5-1.5,1.5h-10.5c-0.9,0-1.1-0.2-1.1-1.1
	c0-11.8-0.2-23.3-0.2-35.1c0-3.5,2.2-5.5,5.7-5.5h5.9c1.1,0,1.7,0.2,1.7,1.5C202.3,116.9,202.3,123.1,202.3,129.6L202.3,129.6z"/>
<path class="st2" d="M223,73.5v11.8c0.1,2.8-2.1,5.2-4.9,5.3c-0.1,0-0.3,0-0.4,0h-15.6c0-4.4-0.2-8.6,0-13.1
	c-0.1-2.8,2.1-5.1,4.8-5.2c0.2,0,0.3,0,0.5,0h14.3C222.6,72.4,223,72.6,223,73.5z"/>
<path class="st3" d="M223,73.5v11.8c0.1,2.8-2.1,5.2-4.9,5.3c-0.1,0-0.3,0-0.4,0h-15.6c0-4.4-0.2-8.6,0-13.1
	c-0.1-2.8,2.1-5.1,4.8-5.2c0.2,0,0.3,0,0.5,0h14.3C222.6,72.4,223,72.6,223,73.5z"/>
<path class="st4" d="M202.4,149c0,1.1-0.2,1.5-1.5,1.5h-10.5c-0.9,0-1.1-0.2-1.1-1.1c0-11.8-0.2-23.3-0.2-35.1
	c0-3.5,2.2-5.5,5.7-5.5h5.9c1.1,0,1.7,0.2,1.7,1.5c-0.2,6.6-0.2,12.8-0.2,19.3C202.2,136.1,202.3,142.6,202.4,149z"/>
<path class="st5" d="M202.1,90.6V98c0,2-0.9,2.9-2.9,2.9h-9c-0.9,0-1.3-0.2-1.1-1.1v-6.3c0-2,1.1-2.9,3.1-2.9
	C195.5,90.6,198.8,90.8,202.1,90.6z"/>
<path class="st4" d="M176.9,119.8c5.3,2.8,7.7,7.4,7.5,13.2c-0.2,9.7-5.7,15.8-15.4,17.3c-5.3,0.7-10.8,0.5-16.4,0.5
	c-2,0-4.2-0.2-6.2,0c-1.1,0-1.3-0.4-1.3-1.3v-8.1c0-0.7-0.2-1.1-1.1-1.1c-7,0.2-8.4-0.2-8.6-0.4c-2.3-0.9-3.7-3.2-3.5-5.7
	c0-14.2,0-28.1-0.2-42c0-1.1,0.2-1.5,1.5-1.5h26.1c4.1-0.1,8.1,0.6,11.9,2c7,2.9,9.4,8.4,8.8,15.2c-0.4,5-2.2,7.4-6.8,10.5
	C174.5,118.9,175.7,119.3,176.9,119.8z M171.2,132.4V132c0-0.1,0-0.2,0-0.3s0-0.1,0-0.2c0-0.1,0-0.1,0-0.1s0-0.1,0-0.2
	c0-0.1,0-0.2-0.1-0.3c0-0.1,0-0.2,0-0.2c0-0.1,0-0.2-0.1-0.2c0-0.1-0.1-0.2-0.1-0.2c-0.1-0.3-0.3-0.7-0.4-1
	c-0.1-0.2-0.1-0.3-0.2-0.5l0,0c-0.1-0.2-0.3-0.4-0.4-0.6l0,0c-0.6-0.8-1.3-1.4-2.1-1.8c-0.1-0.1-0.2-0.1-0.4-0.2l-0.3-0.2l-0.1-0.1
	l-0.3-0.1l0,0l-0.2-0.1l-0.5-0.2c-3.7-1.1-7.5-0.4-10.6-0.5h-8.8c-0.7-0.2-1.1,0-1.1,0.9v13.6c0,0.7,0.2,0.9,0.9,0.9
	c5.5,0,11.2,0.2,16.7-0.2c3.1-0.4,6-1.3,7.5-4.2c0.1-0.2,0.2-0.4,0.3-0.7s0.2-0.6,0.3-0.9c0.1-0.3,0.2-0.7,0.2-1.1
	C171.3,133,171.2,132.7,171.2,132.4z M166.4,108.8c0.1-0.7,0.1-1.3-0.1-2c0-0.3-0.1-0.6-0.2-0.8l0,0v-0.1l-0.1-0.2l-0.1-0.2
	c0,0,0-0.1-0.1-0.1l0,0c0-0.1-0.1-0.2-0.2-0.3c0-0.1-0.1-0.2-0.1-0.3c-0.2-0.3-0.4-0.5-0.6-0.8l-0.2-0.3c-0.4-0.4-0.8-0.7-1.2-0.9
	c-1.2-0.6-2.5-1-3.9-1.1c-4.6-0.4-9.4,0-14-0.2c-0.9-0.2-0.9,0.4-0.9,1.1c0,3.5,0,7-0.2,10.7c0,0.2,0,0.5,0.1,0.7l0,0
	c0,0,0,0.1,0.1,0.1c0.3,0.2,0.7,0.3,1.1,0.3h7.1c2.8,0,6.1,0.4,9.2-0.7c1.8-0.5,3.2-1.8,3.8-3.6c0.1-0.1,0.1-0.3,0.1-0.4
	s0.1-0.3,0.1-0.4l0,0C166.4,109.1,166.4,108.9,166.4,108.8L166.4,108.8L166.4,108.8z"/>
<path class="st1" d="M170.4,129.2c0.2,0.3,0.3,0.7,0.4,1c0,0.1,0,0.1,0.1,0.2c0,0.1,0.1,0.2,0.1,0.2c0,0.1,0,0.2,0,0.2
	c0,0.1,0,0.2,0.1,0.3c0,0.1,0,0.1,0,0.2s0,0.1,0,0.1c0,0.1,0,0.1,0,0.2c0,0.1,0,0.2,0,0.3s0,0.3,0,0.4c0,0.3,0,0.6-0.1,0.9
	c0,0.4-0.1,0.7-0.2,1.1c-0.1,0.3-0.2,0.6-0.3,0.9c-0.1,0.2-0.2,0.5-0.3,0.7c-1.5,2.9-4.4,3.9-7.5,4.2c-5.5,0.4-11.2,0.2-16.7,0.2
	c-0.7,0-0.9-0.2-0.9-0.9v-13.6c0-0.9,0.4-1.1,1.1-0.9h8.8c3.1,0.2,7-0.6,10.6,0.5l0.5,0.2l0.2,0.1c0.3,0.1,0.5,0.2,0.8,0.3
	c0.4,0.2,0,0,0,0c0.8,0.4,1.6,1,2.2,1.8C169.8,128.3,170.1,128.7,170.4,129.2z"/>
<path class="st6" d="M170.4,129.2c-0.1-0.2-0.1-0.3-0.2-0.5C170.3,128.9,170.4,129.1,170.4,129.2z"/>
<path class="st6" d="M170.2,128.8c0.1,0.1,0.2,0.3,0.2,0.5c-0.3-0.5-0.6-1-0.9-1.4c0.1,0.1,0.2,0.2,0.3,0.3l0,0
	C169.9,128.3,170.1,128.5,170.2,128.8L170.2,128.8z"/>
<path class="st6" d="M170.2,128.8c-0.1-0.2-0.3-0.4-0.4-0.6C169.9,128.3,170.1,128.5,170.2,128.8z"/>
<path class="st6" d="M169.8,128.1c-0.1-0.1-0.2-0.2-0.3-0.3c-0.5-0.6-1.1-1.2-1.8-1.6C168.5,126.7,169.2,127.4,169.8,128.1z"/>
<path class="st6" d="M167.7,126.3c0.7,0.4,1.3,0.9,1.8,1.6c-0.6-0.7-1.4-1.3-2.2-1.8C167.4,126.1,167.5,126.2,167.7,126.3z"/>
<path class="st7" d="M167,125.9l0.3,0.2l0,0C167.2,126,167.1,126,167,125.9z"/>
<path class="st6" d="M167,125.9c0.1,0,0.2,0.1,0.3,0.2c-0.2-0.1-0.5-0.2-0.8-0.3l0.3,0.1L167,125.9z"/>
<path class="st7" d="M166.8,125.9l-0.3-0.1l0,0L166.8,125.9z"/>
<path class="st6" d="M166.4,108.8c0.1-0.7,0-1.3-0.1-2C166.5,107.4,166.5,108.1,166.4,108.8z"/>
<path class="st7" d="M166.4,106.8c0.1,0.7,0.1,1.3,0.1,2c0.1-0.9,0-1.9-0.2-2.8C166.3,106.2,166.3,106.5,166.4,106.8z"/>
<path class="st1" d="M166.2,105.9c0.2,0.9,0.3,1.9,0.2,2.8l0,0c0,0.1,0,0.3-0.1,0.4l0,0c0,0.1,0,0.3-0.1,0.4l0,0
	c-0.4,1.9-1.8,3.1-3.9,3.9c-3.1,1.1-6.4,0.7-9.2,0.7h-7.2c-0.4,0-0.7-0.1-1-0.3l-0.1-0.1l0,0c-0.1-0.2-0.1-0.4-0.1-0.7
	c0.2-3.7,0.2-7.2,0.2-10.7c0-0.7,0-1.3,0.9-1.1c4.6,0.2,9.4-0.2,14,0.2c1.3,0.1,2.7,0.5,3.9,1.1c0.4,0.3,0.8,0.6,1.1,0.9l0.2,0.3
	c0.2,0.2,0.4,0.5,0.6,0.8c0.1,0.1,0.1,0.2,0.1,0.3c0.1,0.1,0.1,0.2,0.2,0.3l0,0l0,0c0,0,0,0.1,0.1,0.1c0,0.1,0,0.1,0.1,0.2
	C166.2,105.6,166.3,105.7,166.2,105.9C166.3,106,166.2,105.9,166.2,105.9z"/>
<path class="st7" d="M166.4,108.8L166.4,108.8c0,0.1,0,0.3-0.1,0.4C166.4,109.1,166.4,108.9,166.4,108.8z"/>
<path class="st6" d="M166.4,108.8c0,0.1,0,0.3-0.1,0.4l0,0C166.4,109.1,166.4,108.9,166.4,108.8z"/>
<path class="st7" d="M166.4,109.2L166.4,109.2c0,0.1,0,0.2-0.1,0.4C166.3,109.5,166.4,109.4,166.4,109.2z"/>
<path class="st6" d="M166.4,109.2c0,0.1,0,0.3-0.1,0.4l0,0C166.3,109.5,166.4,109.4,166.4,109.2z"/>
<path class="st6" d="M166.2,110c0-0.1,0.1-0.3,0.1-0.4C166.3,109.7,166.3,109.9,166.2,110z"/>
<path class="st7" d="M166.3,109.6c0,0.1-0.1,0.3-0.1,0.4c-0.6,1.7-2,3-3.8,3.5c-3.1,1.1-6.4,0.7-9.2,0.7H146c-0.4,0-0.7-0.1-1-0.3
	l-0.1-0.1c0,0,0,0.1,0.1,0.1c0.3,0.2,0.6,0.3,1,0.3h7.2c2.8,0,6.1,0.4,9.2-0.7C164.5,112.7,165.9,111.5,166.3,109.6z"/>
<path class="st7" d="M166.2,105.8C166.2,105.9,166.2,105.9,166.2,105.8c0,0-0.1-0.1-0.1-0.2l0,0
	C166.1,105.7,166.2,105.8,166.2,105.8z"/>
<path class="st6" d="M166.2,105.8c0-0.1,0-0.1-0.1-0.2l0,0L166.2,105.8z"/>
<path class="st6" d="M166,105.4l0.1,0.2l0,0C166.1,105.6,166,105.5,166,105.4z"/>
<path class="st6" d="M166,105.4c0,0.1,0.1,0.1,0.1,0.2l0,0C166.1,105.6,166,105.5,166,105.4z"/>
<path class="st6" d="M166,105.3c0,0,0,0.1,0.1,0.1C166,105.4,166,105.3,166,105.3L166,105.3z"/>
<path class="st6" d="M166,105.3L166,105.3L166,105.3z"/>
<path class="st6" d="M166,105.3L166,105.3L166,105.3z"/>
<path class="st6" d="M162.4,113.6c1.8-0.5,3.2-1.9,3.8-3.6C165.6,111.7,164.2,113,162.4,113.6c-3.1,1.1-6.4,0.7-9.2,0.7h-7.1
	c-0.4,0.1-0.8,0-1.1-0.3c0.3,0.2,0.6,0.3,1,0.3h7.2C156,114.3,159.3,114.7,162.4,113.6z"/>
<line class="st8" x1="41.3" y1="331.5" x2="310.8" y2="331.5"/>
<path class="st9" d="M141.6,183.9h-3.3v-1.6h8.5v1.6h-3.3v8.9h-1.9V183.9z"/>
<path class="st9" d="M148.2,188.9c0.1-2.2,1.9-3.9,4.1-3.9c2.2,0.1,3.9,1.9,3.9,4.1c-0.1,2.2-1.9,3.9-4,3.9c-2.2,0-3.9-1.7-4-3.8
	C148.2,189.1,148.2,189,148.2,188.9z M154.2,188.9c0-1.6-0.8-2.6-2.1-2.6s-2,1-2,2.6s0.8,2.6,2,2.6S154.2,190.5,154.2,188.9z"/>
<path class="st9" d="M158.4,181.5h1.9v7.1h0.1l3.5-3.6h2.1l-5.7,5.8v2h-1.9L158.4,181.5L158.4,181.5z M161.5,189l1.1-1.2l3.6,5h-2
	L161.5,189z"/>
<path class="st9" d="M167.5,188.9c-0.1-2.2,1.7-4,3.9-4.1c0.1,0,0.1,0,0.2,0c1.9-0.1,3.5,1.3,3.7,3.2c0,0.2,0,0.4,0,0.5
	c0,0.3,0,0.6-0.1,0.9h-6.3v-1.3h5.1l-0.4,0.4c0-1.6-0.7-2.3-2-2.3s-2.3,0.9-2.3,2.7c-0.1,1.4,0.9,2.6,2.2,2.7c0.2,0,0.3,0,0.5,0
	c0.8,0,1.5-0.2,2.2-0.6l0.6,1.1c-0.9,0.6-2,0.9-3.1,0.9c-2.2,0.2-4.1-1.5-4.3-3.7C167.5,189.2,167.5,189,167.5,188.9z"/>
<path class="st9" d="M177.5,185h1.5l0.1,1.2h0.1c0.7-0.8,1.7-1.3,2.8-1.4c1.8,0,2.6,1.2,2.6,3.2v4.9h-1.9v-4.6
	c0-1.3-0.4-1.8-1.5-1.8c-0.8,0.1-1.5,0.5-2,1.1v5.4h-1.9L177.5,185z"/>
<path class="st9" d="M196.7,182.4h3.3c2.1,0,3.7,0.6,3.7,2.6c0,1.1-0.7,2-1.8,2.3v0.1c1.5,0.3,2.4,1.1,2.4,2.5c0,2.1-1.7,3.1-4,3.1
	h-3.5L196.7,182.4z M199.8,186.7c1.5,0,2.1-0.5,2.1-1.5s-0.7-1.3-2-1.3h-1.3v2.8H199.8z M200.1,191.3c1.5,0,2.4-0.5,2.4-1.7
	s-0.8-1.6-2.4-1.6h-1.5v3.3H200.1z"/>
<path class="st9" d="M209.7,186.4h-3.4V185h5.2v7.9h-1.9L209.7,186.4L209.7,186.4z M209.2,182.3c0-0.7,0.5-1.4,1.2-1.4
	s1.4,0.5,1.4,1.2s-0.5,1.4-1.2,1.4h-0.1C209.8,183.5,209.2,183,209.2,182.3C209.2,182.4,209.2,182.3,209.2,182.3z"/>
<path class="st9" d="M57.2,209.4h2.4c1.7,0,2.9,0.6,2.9,2.3s-1.2,2.4-2.9,2.4h-1.4v3.1h-1V209.4z M59.4,213.3c1.4,0,2-0.5,2-1.6
	s-0.7-1.5-2-1.5h-1.2v3.1H59.4z"/>
<path class="st9" d="M63.9,214.4c0.1-1.6,1.5-2.8,3-2.7s2.8,1.5,2.7,3c-0.1,1.5-1.3,2.7-2.9,2.7s-2.9-1.3-2.9-2.8
	C63.9,214.5,63.9,214.4,63.9,214.4z M68.6,214.4c0-1.3-0.8-2.2-1.9-2.2s-1.9,0.9-1.9,2.2s0.7,2.2,1.9,2.2S68.6,215.7,68.6,214.4z"/>
<path class="st9" d="M72.1,211.4h0.8l0.1,1.4l0,0c0.5-0.9,1.5-1.5,2.6-1.5c0.4,0,0.8,0.1,1.2,0.2l-0.2,0.9c-1.4-0.6-2.9,0.1-3.5,1.4
	l0,0v3.4h-1V211.4z"/>
<path class="st9" d="M86,211.5l1.7-0.1h3.4v0.8H86V211.5z M87.7,210.9c-0.1-1.2,0.7-2.2,1.9-2.4c0.2,0,0.3,0,0.5,0
	c0.6,0,1.1,0.1,1.7,0.3l-0.2,0.7c-0.4-0.2-0.9-0.3-1.3-0.3c-1,0-1.5,0.6-1.5,1.5v6.4h-1L87.7,210.9z"/>
<path class="st9" d="M92.9,215.8c0-1.3,1.2-1.9,4.2-2.2c0.1-0.8-0.5-1.4-1.3-1.5c-0.1,0-0.2,0-0.3,0c-0.7,0.1-1.4,0.3-2,0.7
	l-0.4-0.7c0.8-0.5,1.7-0.8,2.6-0.8c1.2-0.1,2.3,0.7,2.4,1.9c0,0.2,0,0.3,0,0.5v3.6h-0.8l-0.1-0.8l0,0c-0.6,0.6-1.4,0.9-2.3,0.9
	c-1,0.2-1.9-0.5-2-1.4C92.9,215.9,92.9,215.8,92.9,215.8z M97.1,215.8v-1.5c-2.5,0.2-3.2,0.7-3.2,1.4s0.6,0.9,1.3,0.9
	C95.9,216.6,96.6,216.3,97.1,215.8L97.1,215.8z"/>
<path class="st9" d="M99.8,211.4h1l1.3,3.3c0.2,0.6,0.4,1.2,0.7,1.7l0,0c0.2-0.6,0.4-1.1,0.6-1.7l1.3-3.3h0.9l-2.4,5.8h-1.1
	L99.8,211.4z"/>
<path class="st9" d="M107.1,214.4c0.1-1.6,1.5-2.8,3-2.7c1.6,0.1,2.8,1.5,2.7,3c-0.1,1.5-1.3,2.7-2.8,2.7c-1.6,0-2.9-1.2-2.9-2.8
	C107.1,214.5,107.1,214.4,107.1,214.4z M111.8,214.4c0-1.3-0.7-2.2-1.8-2.2s-1.9,0.9-1.9,2.2s0.7,2.2,1.9,2.2
	S111.8,215.7,111.8,214.4z"/>
<path class="st9" d="M115.3,211.4h0.8l0.1,1.4l0,0c0.5-0.9,1.5-1.5,2.6-1.5c0.4,0,0.8,0.1,1.2,0.2l-0.2,0.9
	c-1.4-0.6-2.9,0.1-3.5,1.4l0,0v3.4h-1V211.4z"/>
<path class="st9" d="M128.8,214.3c-0.1-1.6,1.2-3,2.8-3c0.1,0,0.1,0,0.2,0c1.4-0.1,2.6,1,2.6,2.4c0,0.1,0,0.2,0,0.4s0,0.4-0.1,0.6
	h-4.9v-0.8h4.3l-0.2,0.3c0-1.4-0.7-2.1-1.8-2.1s-2,1-2,2.1c0,0.1,0,0.1,0,0.2c-0.1,1.2,0.8,2.2,1.9,2.3c0.1,0,0.2,0,0.3,0
	c0.6,0,1.3-0.2,1.8-0.6l0.4,0.6c-0.7,0.5-1.5,0.7-2.3,0.7c-1.7,0.1-3.1-1.2-3.1-2.8C128.8,214.5,128.8,214.4,128.8,214.3z"/>
<path class="st9" d="M136,216.5l0.4-0.7c0.7,0.5,1.6,0.8,2.5,0.8c1,0,1.5-0.4,1.5-0.9s-0.2-0.8-1.8-1.1s-2.3-0.8-2.3-1.7
	s0.8-1.7,2.4-1.7c0.8,0,1.7,0.3,2.4,0.8l-0.5,0.6c-0.6-0.4-1.3-0.6-2-0.6c-1,0-1.4,0.4-1.4,0.8s0.5,0.7,1.7,1
	c1.9,0.4,2.4,0.9,2.4,1.8s-0.9,1.7-2.6,1.7C137.8,217.4,136.8,217.1,136,216.5z"/>
<path class="st9" d="M143.5,211.4h0.8l0.1,0.7l0,0c0.5-0.5,1.2-0.8,2-0.9c1.6,0,2.4,1.2,2.4,3c0,2-1.2,3.1-2.6,3.1
	c-0.6,0-1.3-0.3-1.7-0.8l0,0l0.1,1.1v2h-1L143.5,211.4z M147.8,214.3c0-1.3-0.5-2.1-1.6-2.1c-0.7,0-1.3,0.4-1.7,0.9v2.9
	c0.4,0.4,1,0.6,1.5,0.7C147,216.6,147.8,215.7,147.8,214.3z"/>
<path class="st9" d="M150.4,214.3c-0.1-1.6,1.2-3,2.8-3c0.1,0,0.1,0,0.2,0c1.4-0.1,2.6,1,2.6,2.4c0,0.1,0,0.2,0,0.3
	c0,0.2,0,0.4-0.1,0.6H151v-0.8h4.3l-0.2,0.3c0-1.4-0.7-2.1-1.8-2.1s-2,1-2,2.1c0,0.1,0,0.1,0,0.2c-0.1,1.2,0.8,2.2,1.9,2.3
	c0.1,0,0.2,0,0.3,0c0.6,0,1.3-0.2,1.8-0.6l0.4,0.6c-0.7,0.5-1.5,0.7-2.3,0.7c-1.7,0.1-3.1-1.2-3.1-2.9
	C150.4,214.5,150.4,214.4,150.4,214.3z"/>
<path class="st9" d="M158.5,211.4h0.8l0.1,1.4l0,0c0.5-0.9,1.5-1.5,2.6-1.5c0.4,0,0.8,0.1,1.1,0.2l-0.2,0.9
	c-0.3-0.1-0.7-0.2-1.1-0.2c-1.1,0-2,0.7-2.4,1.7v3.4h-1L158.5,211.4z"/>
<path class="st9" d="M164.8,214.3c-0.1-1.6,1.2-3,2.8-3c0.1,0,0.1,0,0.2,0c1.4-0.1,2.6,1,2.6,2.4c0,0.1,0,0.2,0,0.3
	c0,0.2,0,0.4-0.1,0.6h-4.9v-0.8h4.3l-0.2,0.3c0-1.4-0.7-2.1-1.8-2.1s-2,1-2,2.1c0,0.1,0,0.1,0,0.2c-0.1,1.2,0.8,2.2,1.9,2.3
	c0.1,0,0.2,0,0.3,0c0.6,0,1.3-0.2,1.8-0.6l0.4,0.6c-0.7,0.5-1.5,0.7-2.3,0.7c-1.7,0.1-3.1-1.2-3.2-2.8
	C164.8,214.5,164.8,214.4,164.8,214.3z"/>
<path class="st9" d="M179.1,219.6l0.2-0.8c0.2,0.1,0.3,0.1,0.5,0.1c0.7,0,1.4-0.5,1.6-1.2l0.2-0.4l-2.7-5.8h1l1.4,3.2
	c0.2,0.5,0.5,1.1,0.7,1.7h0.1c0.2-0.6,0.4-1.2,0.6-1.7l1.3-3.2h1l-2.6,6.3c-0.3,1.2-1.3,2-2.5,2
	C179.7,219.8,179.4,219.7,179.1,219.6z"/>
<path class="st9" d="M195.7,215.3v-5.8h-2.1v-0.8h3.1v6.6c-0.1,0.6,0.3,1.1,0.9,1.2c0.1,0,0.2,0,0.3,0c0.4,0,0.8-0.1,1.1-0.3
	l0.2,0.7c-0.5,0.2-1,0.4-1.6,0.4C196.4,217.4,195.7,216.7,195.7,215.3z"/>
<path class="st9" d="M200.9,215.1v-3.6h1v3.5c0,1.1,0.4,1.6,1.4,1.6c0.7,0,1.4-0.4,1.8-1.1v-4h1v5.8h-0.8l-0.1-1l0,0
	c-0.5,0.7-1.3,1.1-2.2,1.2C201.5,217.4,200.9,216.6,200.9,215.1z"/>
<path class="st9" d="M208,214.3c-0.1-1.6,1.2-3,2.8-3c0.1,0,0.1,0,0.2,0c1.4,0,2.6,1,2.6,2.4c0,0.1,0,0.2,0,0.3c0,0.2,0,0.4,0,0.6
	h-4.9v-0.8h4.3l-0.2,0.3c0-1.4-0.7-2.1-1.8-2.1s-2,1-2,2.1c0,0.1,0,0.1,0,0.2c-0.1,1.2,0.8,2.2,1.9,2.3c0.1,0,0.2,0,0.3,0
	c0.6,0,1.3-0.2,1.8-0.6l0.4,0.6c-0.7,0.5-1.5,0.7-2.3,0.7c-1.7,0.1-3.1-1.2-3.2-2.8C208,214.5,208,214.4,208,214.3z"/>
<path class="st9" d="M215.2,218.3c0.1-0.6,0.5-1.1,1-1.3l0,0c-0.4-0.2-0.6-0.6-0.6-1c0-0.5,0.3-0.9,0.7-1.1v-0.1
	c-0.5-0.4-0.7-0.9-0.7-1.5c0-1.2,1-2.1,2.2-2.1h0.1c0.3,0,0.6,0,0.9,0.1h2.4v0.8h-1.5c0.3,0.3,0.5,0.7,0.5,1.2c0,1.1-1,2-2.1,2
	c-0.1,0-0.1,0-0.2,0c-0.3,0-0.7-0.1-1-0.2c-0.3,0.1-0.4,0.4-0.5,0.7c0,0.4,0.4,0.7,1.2,0.7h1.3c1.5,0,2.2,0.4,2.2,1.4s-1.3,2-3.2,2
	C216.2,219.9,215.2,219.4,215.2,218.3z M220.2,218.1c0-0.6-0.4-0.7-1.3-0.7h-1.1c-0.3,0-0.6,0-0.9-0.1c-0.6,0.3-0.7,0.6-0.7,1
	c0,0.6,0.7,1,1.9,1S220.2,218.7,220.2,218.1L220.2,218.1z M219.2,213.4c0-0.7-0.6-1.3-1.4-1.3c-0.7,0-1.3,0.6-1.3,1.4
	c0,0.7,0.6,1.3,1.3,1.3S219.1,214.3,219.2,213.4L219.2,213.4L219.2,213.4z"/>
<path class="st9" d="M222.3,214.4c0.1-1.6,1.5-2.8,3-2.7c1.6,0.1,2.8,1.5,2.7,3s-1.3,2.7-2.9,2.7c-1.6,0-2.9-1.3-2.9-2.8
	C222.3,214.5,222.3,214.4,222.3,214.4z M227,214.4c0-1.3-0.7-2.2-1.9-2.2s-1.9,0.9-1.9,2.2s0.8,2.2,1.9,2.2S227,215.7,227,214.4z"/>
<path class="st9" d="M239.7,212.2H237v-0.8h3.7v5.8h-1V212.2z M239.3,209.4c0-0.4,0.3-0.8,0.8-0.8c0.4,0,0.8,0.3,0.8,0.8
	c0,0.4-0.3,0.8-0.8,0.8l0,0C239.7,210.2,239.4,209.9,239.3,209.4C239.3,209.5,239.3,209.5,239.3,209.4z"/>
<path class="st9" d="M244.3,211.4h0.8l0.1,1h0.1c0.5-0.7,1.3-1.1,2.2-1.1c1.4,0,2,0.8,2,2.4v3.6h-1v-3.5c0-1.1-0.4-1.6-1.3-1.6
	c-0.7,0-1.2,0.4-1.8,1v4.1h-1L244.3,211.4z"/>
<path class="st9" d="M251.2,218.3c0.1-0.6,0.5-1.1,1-1.3l0,0c-0.4-0.2-0.6-0.6-0.6-1c0-0.5,0.3-0.9,0.7-1.1v-0.1
	c-0.5-0.4-0.7-0.9-0.7-1.5c0-1.2,1-2.1,2.2-2.1h0.1c0.3,0,0.6,0,0.9,0.1h2.4v0.8h-1.5c0.3,0.3,0.5,0.7,0.5,1.2c0,1.1-1,2-2.1,2
	c-0.1,0-0.1,0-0.2,0c-0.3,0-0.7-0.1-1-0.2c-0.3,0.1-0.4,0.4-0.4,0.7c0,0.4,0.4,0.7,1.2,0.7h1.3c1.5,0,2.2,0.4,2.2,1.4s-1.3,2-3.2,2
	C252.2,219.9,251.2,219.4,251.2,218.3z M256.2,218.1c0-0.6-0.4-0.7-1.3-0.7h-1.1c-0.3,0-0.6,0-0.9-0.1c-0.6,0.3-0.7,0.6-0.7,1
	c0,0.6,0.7,1,1.9,1S256.2,218.7,256.2,218.1L256.2,218.1z M255.2,213.4c0-0.7-0.6-1.3-1.4-1.3c-0.7,0-1.3,0.6-1.3,1.4
	c0,0.7,0.6,1.3,1.3,1.3C254.6,214.8,255.2,214.2,255.2,213.4L255.2,213.4L255.2,213.4z"/>
<path class="st9" d="M259.3,211.4h0.8l0.1,1.4l0,0c0.5-0.9,1.5-1.5,2.6-1.5c0.4,0,0.8,0.1,1.2,0.2l-0.2,0.9
	c-0.3-0.1-0.7-0.2-1.1-0.2c-1.1,0-2,0.7-2.4,1.7v3.4h-1V211.4z"/>
<path class="st9" d="M265.6,214.3c-0.1-1.6,1.2-3,2.8-3c0.1,0,0.1,0,0.2,0c1.4-0.1,2.6,1,2.6,2.4c0,0.1,0,0.2,0,0.3
	c0,0.2,0,0.4,0,0.6h-4.9v-0.8h4.3l-0.2,0.3c0-1.4-0.7-2.1-1.8-2.1c-1.1,0-2,1-2,2.1c0,0.1,0,0.1,0,0.2c-0.1,1.2,0.8,2.2,1.9,2.3
	c0.1,0,0.2,0,0.3,0c0.6,0,1.3-0.2,1.8-0.6l0.4,0.6c-0.7,0.5-1.5,0.7-2.3,0.7c-1.7,0.1-3.1-1.2-3.2-2.8
	C265.6,214.5,265.6,214.4,265.6,214.3z"/>
<path class="st9" d="M272.8,216.5l0.5-0.7c0.7,0.5,1.6,0.8,2.5,0.8c1,0,1.5-0.4,1.5-0.9s-0.2-0.8-1.8-1.1s-2.3-0.8-2.3-1.7
	s0.8-1.7,2.4-1.7c0.8,0,1.7,0.3,2.4,0.8l-0.5,0.6c-0.6-0.4-1.3-0.6-2-0.6c-1,0-1.4,0.4-1.4,0.8s0.5,0.7,1.7,1
	c1.9,0.4,2.4,0.9,2.4,1.8s-0.9,1.7-2.6,1.7C274.6,217.4,273.6,217.1,272.8,216.5z"/>
<path class="st9" d="M280,214.3c-0.1-1.6,1.2-3,2.8-3c0.1,0,0.1,0,0.2,0c1.4,0,2.6,1,2.6,2.4c0,0.1,0,0.2,0,0.3c0,0.2,0,0.4,0,0.6
	h-4.9v-0.8h4.4l-0.2,0.3c0-1.4-0.7-2.1-1.8-2.1c-1.1,0-2,1-2,2.1c0,0.1,0,0.1,0,0.2c-0.1,1.2,0.8,2.2,1.9,2.3c0.1,0,0.2,0,0.3,0
	c0.6,0,1.3-0.2,1.8-0.6l0.4,0.6c-0.7,0.5-1.5,0.7-2.3,0.7c-1.7,0.1-3.1-1.2-3.2-2.8C280,214.5,280,214.4,280,214.3z"/>
<path class="st9" d="M42.4,228.7c0-1.6,1.2-3,2.9-3h0.1c1.4-0.1,2.6,1,2.6,2.4c0,0.1,0,0.2,0,0.3c0,0.2,0,0.4,0,0.6h-5v-0.8h4.3
	l-0.2,0.3c0-1.4-0.7-2.1-1.8-2.1s-2,1-2,2.1c0,0.1,0,0.1,0,0.2c-0.1,1.2,0.8,2.2,2,2.3c0.1,0,0.2,0,0.3,0c0.6,0,1.2-0.2,1.8-0.6
	l0.4,0.6c-0.7,0.5-1.4,0.7-2.2,0.7c-1.7,0.1-3.1-1.2-3.1-2.9C42.4,228.9,42.4,228.8,42.4,228.7z"/>
<path class="st9" d="M51.7,229.7v-5.8h-2.1v-0.8h3.1v6.6c-0.1,0.5,0.2,1.1,0.8,1.2c0.1,0,0.3,0,0.4,0c0.4,0,0.7-0.1,1.1-0.3l0.2,0.7
	c-0.5,0.2-1,0.4-1.6,0.4C52.4,231.8,51.7,231.1,51.7,229.7z"/>
<path class="st9" d="M64.1,228.8c0-1.7,1.3-3,2.9-3.1c0.1,0,0.2,0,0.3,0c0.8,0,1.6,0.3,2.1,0.9l-0.5,0.6c-0.4-0.4-1-0.6-1.6-0.7
	c-1.2-0.1-2.2,0.8-2.3,2c0,0.1,0,0.2,0,0.2c-0.1,1.2,0.8,2.2,2,2.2c0.1,0,0.2,0,0.3,0c0.7,0,1.3-0.3,1.8-0.7l0.4,0.6
	c-0.6,0.6-1.5,0.9-2.3,0.9c-1.6,0.1-3-1.1-3.2-2.7C64.1,229,64.1,228.9,64.1,228.8z"/>
<path class="st9" d="M71.1,228.8c0.1-1.6,1.5-2.8,3-2.7c1.6,0.1,2.8,1.5,2.7,3c-0.1,1.5-1.3,2.7-2.8,2.7c-1.6,0-2.9-1.2-2.9-2.8
	C71.1,228.9,71.1,228.8,71.1,228.8z M75.8,228.8c0-1.3-0.8-2.2-1.9-2.2s-1.9,0.9-1.9,2.2s0.7,2.2,1.9,2.2S75.8,230.1,75.8,228.8z
	 M73.2,224.4l1.7-2l0.7,0.7l-1.9,1.8L73.2,224.4z"/>
<path class="st9" d="M78.3,228.8c-0.1-1.5,1-2.9,2.5-3.1h0.1c0.7,0,1.3,0.3,1.8,0.8l0,0l-0.1-1.1v-2.2h1v8.5h-0.8l-0.1-0.8l0,0
	c-0.5,0.5-1.2,0.9-1.9,0.9C79.3,231.8,78.3,230.7,78.3,228.8z M82.6,230.1v-2.9c-0.4-0.4-0.9-0.7-1.5-0.7c-1.1,0.1-1.9,1.1-1.8,2.2
	c0,0,0,0,0,0.1c0,1.4,0.7,2.2,1.7,2.2C81.6,230.9,82.2,230.6,82.6,230.1z"/>
<path class="st9" d="M88.5,226.6h-2.7v-0.8h3.7v5.8h-1V226.6z M88.1,223.8c0-0.4,0.4-0.8,0.8-0.8s0.8,0.4,0.8,0.8l0,0
	c0,0.4-0.4,0.8-0.8,0.8S88.1,224.3,88.1,223.8z"/>
<path class="st9" d="M92.8,232.7c0.1-0.6,0.5-1.1,1-1.3v-0.1c-0.4-0.2-0.6-0.6-0.6-1c0-0.5,0.3-0.9,0.7-1.1v-0.1
	c-0.5-0.4-0.7-0.9-0.7-1.5c0-1.2,1-2.1,2.2-2.1h0.1c0.3,0,0.6,0,0.9,0.1h2.4v0.8h-1.6c0.3,0.3,0.5,0.7,0.5,1.2c0,1.1-0.9,2-2,2
	c-0.1,0-0.2,0-0.3,0c-0.3,0-0.7-0.1-1-0.2c-0.3,0.1-0.4,0.4-0.5,0.7c0,0.4,0.4,0.7,1.2,0.7h1.3c1.5,0,2.2,0.4,2.2,1.4s-1.3,2-3.2,2
	C93.8,234.3,92.8,233.8,92.8,232.7z M97.8,232.5c0-0.6-0.4-0.7-1.3-0.7h-1.2c-0.3,0-0.6,0-0.9-0.1c-0.6,0.3-0.8,0.6-0.8,1
	c0,0.6,0.7,1,1.9,1S97.8,233.1,97.8,232.5L97.8,232.5z M96.8,227.8c0-0.7-0.6-1.3-1.4-1.3s-1.3,0.6-1.3,1.4c0,0.7,0.6,1.3,1.3,1.3
	C96.2,229.1,96.8,228.6,96.8,227.8L96.8,227.8L96.8,227.8z"/>
<path class="st9" d="M99.9,228.8c0.1-1.6,1.5-2.8,3-2.7s2.8,1.5,2.7,3c-0.1,1.5-1.3,2.7-2.9,2.7s-2.9-1.3-2.9-2.8
	C99.9,228.9,99.9,228.8,99.9,228.8z M104.6,228.8c0-1.3-0.8-2.2-1.9-2.2s-1.9,0.9-1.9,2.2s0.7,2.2,1.9,2.2S104.6,230.1,104.6,228.8z
	"/>
<path class="st9" d="M114.3,228.8c-0.1-1.5,1-2.9,2.5-3.1h0.1c0.7,0,1.3,0.3,1.8,0.8l0,0l-0.1-1.1v-2.2h1v8.5h-0.8l-0.1-0.8l0,0
	c-0.5,0.5-1.2,0.9-1.9,0.9C115.3,231.8,114.3,230.7,114.3,228.8z M118.6,230.1v-2.9c-0.4-0.4-0.9-0.7-1.5-0.7
	c-1.1,0.1-1.9,1.1-1.8,2.2c0,0,0,0,0,0.1c0,1.4,0.6,2.2,1.7,2.2C117.6,230.9,118.2,230.6,118.6,230.1z"/>
<path class="st9" d="M121.6,228.7c0-1.6,1.3-3,2.9-3h0.1c1.4-0.1,2.6,1,2.7,2.3c0,0.1,0,0.3,0,0.4c0,0.2,0,0.4,0,0.6h-4.9v-0.8h4.3
	l-0.2,0.3c0-1.4-0.7-2.1-1.8-2.1c-1.1,0-2,1-2,2.1c0,0.1,0,0.1,0,0.2c-0.1,1.2,0.8,2.2,1.9,2.3c0.1,0,0.2,0,0.3,0
	c0.6,0,1.3-0.2,1.8-0.6l0.4,0.6c-0.7,0.5-1.4,0.7-2.2,0.7c-1.7,0.1-3.1-1.1-3.2-2.8C121.6,229,121.6,228.9,121.6,228.7z"/>
<path class="st9" d="M136.1,228.1c0-3.1,1.5-4.3,3.2-4.3c0.8,0,1.6,0.3,2.1,0.8l-0.6,0.6c-0.4-0.4-1-0.6-1.5-0.6
	c-1.2,0-2.3,0.9-2.3,3.4c0,1.9,0.7,2.9,2,2.9c0.9,0,1.6-0.7,1.6-1.6v-0.1c0.1-0.8-0.5-1.5-1.3-1.6c-0.1,0-0.2,0-0.3,0
	c-0.8,0-1.5,0.4-2,1.1V228c0.6-0.6,1.4-1,2.2-1c1.2-0.1,2.3,0.7,2.4,1.9c0,0.1,0,0.3,0,0.4c0,1.4-1.2,2.4-2.5,2.4c0,0,0,0-0.1,0
	C137.3,231.8,136.1,230.6,136.1,228.1z"/>
<path class="st9" d="M150.3,228.8c-0.1-1.5,1-2.9,2.5-3.1h0.1c0.7,0,1.3,0.3,1.8,0.8l0,0l-0.1-1.1v-2.2h1v8.5h-0.8l-0.1-0.8l0,0
	c-0.5,0.5-1.2,0.9-1.9,0.9C151.3,231.8,150.3,230.7,150.3,228.8z M154.6,230.1v-2.9c-0.4-0.4-0.9-0.7-1.5-0.7
	c-1.1,0.1-1.9,1.1-1.8,2.2c0,0,0,0,0,0.1c0,1.4,0.6,2.2,1.7,2.2C153.6,230.9,154.2,230.6,154.6,230.1z"/>
<path class="st9" d="M160.5,226.6h-2.7v-0.8h3.7v5.8h-1V226.6z M160.2,224.4l1.7-2l0.7,0.7l-1.9,1.8L160.2,224.4z"/>
<path class="st9" d="M164.8,232.7c0.1-0.6,0.5-1.1,1-1.3v-0.1c-0.4-0.2-0.6-0.6-0.6-1c0-0.5,0.3-0.9,0.7-1.1v-0.1
	c-0.5-0.4-0.7-0.9-0.7-1.5c0-1.2,1-2.1,2.2-2.1h0.1c0.3,0,0.6,0,0.9,0.1h2.4v0.8h-1.6c0.3,0.3,0.5,0.7,0.5,1.2c0,1.1-0.9,2-2,2
	c-0.1,0-0.2,0-0.3,0c-0.3,0-0.7-0.1-1-0.2c-0.3,0.1-0.4,0.4-0.4,0.7c0,0.4,0.4,0.7,1.2,0.7h1.3c1.5,0,2.2,0.4,2.2,1.4s-1.3,2-3.2,2
	C165.8,234.3,164.8,233.8,164.8,232.7z M169.8,232.5c0-0.6-0.4-0.7-1.3-0.7h-1.1c-0.3,0-0.6,0-0.9-0.1c-0.6,0.3-0.7,0.6-0.7,1
	c0,0.6,0.7,1,1.9,1S169.8,233.1,169.8,232.5z M168.8,227.8c0-0.7-0.6-1.3-1.4-1.3c-0.7,0-1.3,0.6-1.3,1.4c0,0.7,0.6,1.3,1.4,1.3
	C168.2,229.2,168.8,228.7,168.8,227.8L168.8,227.8L168.8,227.8z"/>
<path class="st9" d="M174.9,226.6h-2.7v-0.8h3.7v5.8h-1V226.6z M174.5,223.8c0-0.4,0.3-0.8,0.8-0.8c0.4,0,0.8,0.3,0.8,0.8
	c0,0.4-0.3,0.8-0.8,0.8l0,0C174.9,224.6,174.6,224.3,174.5,223.8C174.5,223.9,174.5,223.9,174.5,223.8L174.5,223.8z"/>
<path class="st9" d="M180.8,229.4v-2.8h-1.7v-0.7l1.7-0.1l0.1-1.8h0.8v1.9h2.9v0.8h-2.9v2.8c0,1,0.4,1.6,1.5,1.6
	c0.5,0,0.9-0.1,1.4-0.3l0.2,0.7c-0.6,0.2-1.2,0.4-1.8,0.4C181.4,231.8,180.8,230.8,180.8,229.4z"/>
<path class="st9" d="M186.3,228.8c0.1-1.6,1.5-2.8,3-2.7c1.6,0.1,2.8,1.5,2.7,3s-1.3,2.7-2.9,2.7c-1.6,0-2.9-1.3-2.9-2.8
	C186.3,228.9,186.3,228.8,186.3,228.8z M191,228.8c0-1.3-0.7-2.2-1.9-2.2s-1.9,0.9-1.9,2.2s0.7,2.2,1.9,2.2S191,230.1,191,228.8z"/>
<path class="st9" d="M193.6,230.9l0.4-0.7c0.7,0.5,1.6,0.8,2.5,0.8c1,0,1.5-0.4,1.5-0.9s-0.2-0.8-1.8-1.1s-2.3-0.8-2.3-1.7
	s0.8-1.7,2.4-1.7c0.8,0,1.7,0.3,2.4,0.8l-0.5,0.6c-0.6-0.4-1.3-0.6-2-0.6c-1,0-1.3,0.4-1.3,0.8s0.5,0.7,1.7,1
	c1.9,0.4,2.4,0.9,2.4,1.8s-0.9,1.7-2.6,1.7C195.4,231.8,194.4,231.5,193.6,230.9z"/>
<path class="st9" d="M212.2,232l0.1-1.1l0,0c-0.5,0.5-1.2,0.9-1.9,0.9c-1.5,0-2.5-1.1-2.5-3.1c-0.1-1.5,1-2.9,2.5-3.1h0.1
	c0.7,0,1.3,0.3,1.8,0.8l0,0l0.1-0.6h0.8v8.3h-1L212.2,232z M212.2,230.1v-2.9c-0.4-0.4-0.9-0.7-1.5-0.7c-1.1,0.1-1.9,1-1.8,2.2
	c0,0,0,0,0,0.1c0,1.4,0.6,2.2,1.7,2.2C211.2,230.9,211.8,230.6,212.2,230.1L212.2,230.1z"/>
<path class="st9" d="M215.3,229.4v-3.6h1v3.5c0,1.1,0.4,1.6,1.4,1.6c0.7,0,1.4-0.4,1.8-1.1v-4h1v5.8h-0.8l-0.1-1h-0.1
	c-0.5,0.7-1.3,1.1-2.2,1.2C215.9,231.8,215.3,231,215.3,229.4z"/>
<path class="st9" d="M222.4,228.7c0-1.6,1.2-3,2.9-3h0.1c1.4-0.1,2.6,1,2.7,2.4c0,0.1,0,0.3,0,0.4c0,0.2,0,0.4-0.1,0.6h-5v-0.8h4.3
	l-0.2,0.3c0-1.4-0.7-2.1-1.8-2.1s-2,1-2,2.1c0,0.1,0,0.1,0,0.2c-0.1,1.2,0.8,2.2,1.9,2.3c0.1,0,0.2,0,0.3,0c0.6,0,1.3-0.2,1.8-0.6
	l0.4,0.6c-0.7,0.5-1.5,0.7-2.3,0.7c-1.7,0.1-3.1-1.2-3.1-2.9C222.4,228.9,222.4,228.8,222.4,228.7z"/>
<path class="st9" d="M236.8,228.7c0-1.6,1.2-3,2.9-3h0.1c1.4-0.1,2.6,1,2.7,2.4c0,0.1,0,0.3,0,0.4c0,0.2,0,0.4-0.1,0.6h-4.9v-0.8
	h4.3l-0.2,0.3c0-1.4-0.7-2.1-1.8-2.1s-2,1-2,2.1c0,0.1,0,0.1,0,0.2c-0.1,1.2,0.8,2.2,2,2.2c0.1,0,0.1,0,0.2,0c0.6,0,1.3-0.2,1.8-0.6
	l0.4,0.6c-0.7,0.5-1.5,0.7-2.3,0.7C238.2,231.8,236.8,230.5,236.8,228.7C236.8,228.9,236.8,228.8,236.8,228.7z"/>
<path class="st9" d="M244.3,225.8h0.8l0.1,1h0.1c0.5-0.7,1.3-1.1,2.2-1.1c1.4,0,2,0.8,2,2.4v3.6h-1v-3.5c0-1.1-0.4-1.6-1.3-1.6
	c-0.7,0-1.2,0.4-1.8,1v4.1h-1L244.3,225.8z"/>
<path class="st9" d="M250.9,225.8h1l1.4,3.3c0.2,0.6,0.4,1.2,0.6,1.7l0,0c0.2-0.6,0.4-1.1,0.6-1.7l1.3-3.3h1l-2.4,5.8h-1.1
	L250.9,225.8z"/>
<path class="st9" d="M261.3,226.6h-2.7v-0.8h3.7v5.8h-1V226.6z M260.9,223.8c0-0.4,0.3-0.8,0.8-0.8c0.4,0,0.8,0.3,0.8,0.8
	c0,0.4-0.3,0.8-0.8,0.8l0,0C261.3,224.6,261,224.3,260.9,223.8C260.9,223.9,260.9,223.9,260.9,223.8L260.9,223.8z"/>
<path class="st9" d="M265.7,230.1c0-1.3,1.2-2,4.2-2.2c0-0.8-0.5-1.4-1.3-1.5c-0.1,0-0.2,0-0.2,0c-0.7,0-1.4,0.3-2,0.7l-0.4-0.7
	c0.8-0.5,1.7-0.8,2.6-0.8c1.2-0.1,2.3,0.8,2.4,1.9c0,0.2,0,0.3,0,0.5v3.6h-0.8l-0.1-0.8l0,0c-0.6,0.5-1.4,0.9-2.3,0.9
	C266.6,231.8,265.7,231.2,265.7,230.1z M269.9,230.1v-1.5c-2.5,0.2-3.2,0.7-3.2,1.4s0.6,0.9,1.3,0.9
	C268.7,231,269.4,230.7,269.9,230.1L269.9,230.1z"/>
<path class="st9" d="M273.7,225.8h0.8l0.1,1.4l0,0c0.5-0.9,1.5-1.5,2.6-1.5c0.4,0,0.8,0.1,1.2,0.2l-0.2,0.9
	c-0.3-0.1-0.7-0.2-1.1-0.2c-1.1,0-2,0.7-2.4,1.7v3.4h-1V225.8z"/>
<path class="st9" d="M280,228.7c0-1.6,1.3-3,2.9-3h0.1c1.4-0.1,2.6,1,2.7,2.4c0,0.1,0,0.2,0,0.4s0,0.4,0,0.6h-4.9v-0.8h4.3l-0.2,0.3
	c0-1.4-0.7-2.1-1.8-2.1c-1.1,0-2,1-2,2.1c0,0.1,0,0.1,0,0.2c-0.1,1.2,0.8,2.2,1.9,2.3c0.1,0,0.2,0,0.3,0c0.6,0,1.3-0.2,1.8-0.6
	l0.4,0.6c-0.7,0.5-1.5,0.7-2.3,0.7c-1.7,0.1-3.1-1.2-3.2-2.8C280,228.9,280,228.8,280,228.7z"/>
<path class="st9" d="M287,225.8h0.8l0.1,0.8l0,0c0.2-0.5,0.7-0.9,1.3-0.9c0.6,0,0.9,0.3,1.1,1c0.3-0.6,0.7-1,1.4-1s1.3,0.6,1.3,1.8
	v4.2h-1v-4.1c0-0.7-0.2-1-0.6-1s-0.6,0.3-0.9,0.9v4.2h-0.9v-4.1c0-0.7-0.2-1-0.6-1s-0.7,0.3-1,0.9v4.2h-1L287,225.8z"/>
<path class="st9" d="M294.3,228.8c0.1-1.6,1.5-2.8,3-2.7s2.8,1.5,2.7,3c-0.1,1.5-1.4,2.7-2.9,2.7c-1.6,0-2.9-1.3-2.9-2.8
	C294.3,228.9,294.3,228.8,294.3,228.8z M299,228.8c0-1.3-0.7-2.2-1.9-2.2s-1.9,0.9-1.9,2.2s0.7,2.2,1.9,2.2S299,230.1,299,228.8z"/>
<path class="st9" d="M301.6,230.9l0.5-0.7c0.7,0.5,1.6,0.8,2.5,0.8c1,0,1.5-0.4,1.5-0.9s-0.2-0.8-1.8-1.1s-2.3-0.8-2.3-1.7
	s0.8-1.7,2.4-1.7c0.8,0,1.7,0.3,2.4,0.8l-0.5,0.6c-0.6-0.4-1.3-0.6-2-0.6c-1,0-1.4,0.4-1.4,0.8s0.5,0.7,1.7,1
	c1.9,0.4,2.4,0.9,2.4,1.8s-0.9,1.7-2.6,1.7C303.4,231.8,302.4,231.5,301.6,230.9z"/>
<path class="st9" d="M92.9,244.6c0-1.3,1.2-2,4.2-2.2c0-0.8-0.5-1.4-1.3-1.5c-0.1,0-0.2,0-0.3,0c-0.7,0.1-1.4,0.3-2,0.7l-0.4-0.7
	c0.8-0.5,1.7-0.8,2.6-0.8c1.2-0.1,2.3,0.7,2.4,1.9c0,0.2,0,0.3,0,0.5v3.6h-0.8l-0.1-0.8l0,0c-0.6,0.6-1.4,0.9-2.3,0.9
	c-1,0.2-1.9-0.5-2-1.4C92.9,244.7,92.9,244.6,92.9,244.6z M97.1,244.6V243c-2.5,0.2-3.2,0.7-3.2,1.4s0.6,0.9,1.3,0.9
	C95.9,245.3,96.6,245,97.1,244.6L97.1,244.6z"/>
<path class="st9" d="M107.2,245.3l0.5-0.7c0.7,0.5,1.6,0.8,2.5,0.8c1,0,1.5-0.4,1.5-0.9s-0.2-0.8-1.8-1.1s-2.3-0.8-2.3-1.7
	s0.8-1.7,2.4-1.7c0.8,0,1.7,0.3,2.3,0.8l-0.5,0.6c-0.6-0.4-1.3-0.6-1.9-0.6c-1,0-1.3,0.4-1.3,0.8s0.5,0.7,1.7,1
	c1.9,0.4,2.4,0.9,2.4,1.8s-0.9,1.7-2.6,1.7C109,246.2,108,245.9,107.2,245.3z"/>
<path class="st9" d="M114.5,243.9v-3.6h1v3.5c0,1.1,0.4,1.6,1.3,1.6c0.7,0,1.4-0.4,1.8-1.1v-4h1v5.8h-0.8l-0.1-1l0,0
	c-0.5,0.7-1.3,1.1-2.2,1.2C115.1,246.2,114.5,245.4,114.5,243.9z"/>
<path class="st9" d="M129.1,240.2h0.8l0.1,1l0,0c0.5-0.7,1.3-1.1,2.2-1.1c1.4,0,2,0.8,2,2.4v3.6h-1v-3.5c0-1.1-0.4-1.6-1.3-1.6
	c-0.7,0-1.4,0.4-1.8,1v4.1h-1V240.2z"/>
<path class="st9" d="M136.1,243.9v-3.6h1v3.5c0,1.1,0.4,1.6,1.3,1.6c0.7,0,1.4-0.4,1.8-1.1v-4h1v5.8h-0.8l-0.1-1l0,0
	c-0.5,0.7-1.3,1.1-2.2,1.2C136.7,246.2,136.1,245.4,136.1,243.9z M137.9,238.8l1.7-2l0.7,0.7l-1.9,1.8L137.9,238.8z"/>
<path class="st9" d="M143,240.2h0.8l0.1,0.8l0,0c0.2-0.5,0.7-0.9,1.3-0.9s0.9,0.3,1.1,1c0.3-0.6,0.7-1,1.4-1s1.3,0.6,1.3,1.8v4.2h-1
	V242c0-0.7-0.2-1-0.6-1s-0.6,0.3-0.9,0.9v4.2h-0.9V242c0-0.7-0.2-1-0.6-1s-0.7,0.3-1,0.9v4.2h-1L143,240.2z"/>
<path class="st9" d="M150.4,243.1c0-1.6,1.3-3,2.9-3h0.1c1.4-0.1,2.6,1,2.7,2.3c0,0.1,0,0.3,0,0.4c0,0.2,0,0.4-0.1,0.6h-5v-0.8h4.3
	l-0.2,0.3c0-1.4-0.7-2.1-1.8-2.1s-2,1-2,2.1c0,0.1,0,0.1,0,0.2c-0.1,1.2,0.8,2.2,1.9,2.3c0.1,0,0.2,0,0.3,0c0.6,0,1.3-0.2,1.8-0.6
	l0.4,0.6c-0.7,0.5-1.5,0.7-2.3,0.7c-1.7,0.1-3.1-1.2-3.1-2.9C150.4,243.3,150.4,243.2,150.4,243.1z"/>
<path class="st9" d="M158.5,240.2h0.8l0.1,1.4l0,0c0.5-0.9,1.5-1.5,2.6-1.5c0.4,0,0.8,0.1,1.1,0.2l-0.2,0.9
	c-1.4-0.6-2.9,0.1-3.5,1.4l0,0v3.4h-1L158.5,240.2z"/>
<path class="st9" d="M164.7,243.1c0.1-1.6,1.4-2.8,3-2.8c1.6,0.1,2.8,1.4,2.8,3c-0.1,1.5-1.3,2.8-2.9,2.8c-1.6,0-2.9-1.3-2.9-2.8
	C164.7,243.3,164.7,243.2,164.7,243.1z M169.4,243.1c0-1.3-0.7-2.2-1.9-2.2s-1.9,0.9-1.9,2.2s0.7,2.2,1.9,2.2
	S169.4,244.5,169.4,243.1z"/>
<path class="st9" d="M179.1,243.1c-0.2-1.5,1-2.9,2.5-3.1h0.1c0.7,0,1.3,0.3,1.8,0.8l0,0v-1.1v-2.2h1v8.5h-0.8l-0.1-0.8l0,0
	c-0.5,0.5-1.2,0.9-1.9,0.9C180.1,246.2,179.1,245.1,179.1,243.1z M183.4,244.5v-2.9c-0.4-0.4-0.9-0.7-1.5-0.7
	c-1.1,0.1-1.9,1-1.8,2.2c0,0,0,0,0,0.1c0,1.4,0.6,2.2,1.7,2.2C182.4,245.3,183,245,183.4,244.5L183.4,244.5z"/>
<path class="st9" d="M186.4,243.1c0-1.6,1.3-3,2.9-3h0.1c1.4-0.1,2.6,1,2.7,2.4c0,0.1,0,0.2,0,0.4s0,0.4-0.1,0.6h-5v-0.8h4.3
	l-0.2,0.3c0-1.4-0.7-2.1-1.8-2.1s-2,1-2,2.1c0,0.1,0,0.1,0,0.2c-0.1,1.2,0.8,2.2,1.9,2.3c0.1,0,0.2,0,0.3,0c0.6,0,1.3-0.2,1.8-0.6
	l0.4,0.6c-0.7,0.5-1.5,0.7-2.3,0.7c-1.7,0.1-3.1-1.2-3.1-2.9C186.4,243.3,186.4,243.2,186.4,243.1z"/>
<path class="st9" d="M202.4,243.8V241h-1.7v-0.7l1.7-0.1l0.1-1.9h0.8v1.9h2.9v0.8h-2.9v2.8c0,1,0.4,1.6,1.5,1.6
	c0.5,0,0.9-0.1,1.4-0.3l0.2,0.7c-0.6,0.2-1.2,0.3-1.8,0.4C203,246.2,202.4,245.2,202.4,243.8z"/>
<path class="st9" d="M208,243.1c0-1.6,1.3-3,2.9-3h0.1c1.4-0.1,2.6,1,2.7,2.4c0,0.1,0,0.3,0,0.4c0,0.2,0,0.4,0,0.6h-4.9v-0.8h4.3
	l-0.2,0.3c0-1.4-0.7-2.1-1.8-2.1s-2,1-2,2.1c0,0.1,0,0.1,0,0.2c-0.1,1.2,0.8,2.2,1.9,2.3c0.1,0,0.2,0,0.3,0c0.6,0,1.3-0.2,1.8-0.6
	l0.4,0.6c-0.7,0.5-1.5,0.7-2.3,0.7c-1.7,0.1-3.1-1.2-3.2-2.8C208,243.3,208,243.2,208,243.1z"/>
<path class="st9" d="M217.3,244.1v-5.8h-2.1v-0.8h3.1v6.6c-0.1,0.6,0.3,1.1,0.9,1.2c0.1,0,0.2,0,0.3,0c0.4,0,0.8-0.1,1.1-0.3
	l0.3,0.7c-0.5,0.2-1,0.4-1.6,0.4C218,246.2,217.3,245.5,217.3,244.1z"/>
<path class="st9" d="M222.4,243.1c0-1.6,1.3-3,2.9-3h0.1c1.4-0.1,2.6,1,2.7,2.4c0,0.1,0,0.3,0,0.4c0,0.2,0,0.4-0.1,0.6h-5v-0.8h4.3
	l-0.2,0.3c0-1.4-0.7-2.1-1.8-2.1s-2,1-2,2.1c0,0.1,0,0.1,0,0.2c-0.1,1.2,0.8,2.2,1.9,2.3c0.1,0,0.2,0,0.3,0c0.6,0,1.3-0.2,1.8-0.6
	l0.4,0.6c-0.7,0.5-1.5,0.7-2.3,0.7c-1.7,0.1-3.1-1.2-3.1-2.9C222.4,243.3,222.4,243.2,222.4,243.1z M224.6,238.8l1.7-2l0.7,0.7
	l-1.9,1.8L224.6,238.8z"/>
<path class="st9" d="M230,240.3l1.7-0.1h3.4v0.8H230V240.3z M231.7,239.7c-0.1-1.2,0.7-2.2,1.9-2.4c0.2,0,0.3,0,0.5,0
	c0.6,0,1.1,0.1,1.7,0.3l-0.2,0.7c-0.4-0.2-0.9-0.3-1.4-0.3c-1,0-1.5,0.6-1.5,1.5v6.4h-1V239.7z"/>
<path class="st9" d="M236.7,243.1c0.1-1.6,1.4-2.8,3-2.8c1.6,0.1,2.8,1.4,2.8,3c-0.1,1.5-1.3,2.8-2.9,2.8c-1.6,0-2.9-1.3-2.9-2.8
	C236.7,243.3,236.7,243.2,236.7,243.1z M241.4,243.1c0-1.3-0.7-2.2-1.9-2.2s-1.9,0.9-1.9,2.2s0.8,2.2,1.9,2.2
	S241.4,244.5,241.4,243.1z"/>
<path class="st9" d="M244.3,240.2h0.8l0.1,1h0.1c0.5-0.7,1.3-1.1,2.2-1.1c1.4,0,2,0.8,2,2.4v3.6h-1v-3.5c0-1.1-0.4-1.6-1.3-1.6
	c-0.7,0-1.4,0.4-1.8,1v4.1h-1L244.3,240.2z"/>
<path class="st9" d="M251.1,243.1c0.1-1.6,1.4-2.8,3-2.8c1.6,0.1,2.8,1.4,2.8,3c-0.1,1.5-1.3,2.8-2.9,2.8c-1.6,0-2.9-1.3-2.9-2.8
	C251.1,243.3,251.1,243.2,251.1,243.1z M255.8,243.1c0-1.3-0.7-2.2-1.9-2.2s-1.9,0.9-1.9,2.2s0.8,2.2,1.9,2.2
	S255.8,244.5,255.8,243.1z"/>
<path class="st10" d="M72.1,386.8h205.7c5,0,9,4,9,9v26c0,5-4,9-9,9H72.1c-5,0-9-4-9-9v-26C63.1,390.8,67.2,386.8,72.1,386.8z"/>
<path class="st4" d="M145.8,403h1.3l1.5,5c0.3,1.1,0.6,2,0.9,3.1h0.1c0.3-1.1,0.6-2,0.9-3.1l1.5-5h1.2l-2.9,9.3h-1.4L145.8,403z"/>
<path class="st4" d="M154.9,410.5c0-1.5,1.4-2.3,5-2.6c0.1-0.9-0.6-1.7-1.5-1.7c-0.1,0-0.2,0-0.3,0c-0.9,0.1-1.7,0.3-2.4,0.8
	l-0.5-0.8c0.9-0.6,2-1,3.1-1c1.4-0.1,2.6,0.9,2.8,2.3c0,0.2,0,0.3,0,0.5v4.2h-1l-0.1-0.9l0,0c-0.8,0.6-1.7,1-2.7,1.1
	c-1.1,0.1-2.2-0.7-2.3-1.8C154.9,410.5,154.9,410.5,154.9,410.5z M159.9,410.5v-1.8c-3,0.2-3.8,0.8-3.8,1.7s0.7,1.1,1.5,1.1
	C158.4,411.4,159.2,411.1,159.9,410.5L159.9,410.5z"/>
<path class="st4" d="M165.7,410v-6.8h-2.4v-1h3.6v7.8c-0.1,0.7,0.4,1.3,1.1,1.4c0.1,0,0.2,0,0.3,0c0.4,0,0.9-0.1,1.3-0.3l0.3,0.9
	c-0.6,0.3-1.2,0.4-1.8,0.4C166.5,412.4,165.7,411.6,165.7,410z"/>
<path class="st4" d="M175.2,406.3H172v-1h4.4v6.9h-1.2V406.3z M174.7,403c0-0.5,0.4-1,0.9-1s1,0.4,1,0.9s-0.4,1-0.9,1l0,0
	C175.2,404,174.7,403.6,174.7,403C174.7,403.1,174.7,403,174.7,403L174.7,403z"/>
<path class="st4" d="M180.1,408.8c0-2.2,1.5-3.6,3.1-3.6c0.8,0,1.5,0.3,2.1,0.9l0,0l-0.1-1.3v-2.6h1.2v10.1h-1l-0.1-0.9l0,0
	c-0.6,0.6-1.4,1-2.3,1.1C181.2,412.4,180.1,411.1,180.1,408.8z M185.2,410.4V407c-0.5-0.5-1.1-0.8-1.8-0.8c-1.3,0.1-2.3,1.2-2.2,2.5
	v0.1c0,1.6,0.8,2.6,2,2.6C184,411.4,184.7,411,185.2,410.4L185.2,410.4z"/>
<path class="st4" d="M188.8,410.5c0-1.5,1.4-2.3,5-2.6c0.1-0.9-0.6-1.7-1.5-1.7c-0.1,0-0.2,0-0.3,0c-0.9,0.1-1.7,0.3-2.4,0.8
	l-0.5-0.8c0.9-0.6,2-1,3.1-1c1.4-0.1,2.7,0.9,2.8,2.3c0,0.2,0,0.3,0,0.5v4.2h-1l-0.1-0.9l0,0c-0.8,0.6-1.7,1-2.7,1.1
	c-1.1,0.2-2.2-0.6-2.3-1.8C188.8,410.6,188.8,410.5,188.8,410.5z M193.8,410.5v-1.8c-2.9,0.2-3.8,0.8-3.8,1.7s0.7,1.1,1.5,1.1
	C192.4,411.4,193.2,411.1,193.8,410.5L193.8,410.5z"/>
<path class="st4" d="M198.2,405.4h1l0.1,1.6l0,0c0.6-1.1,1.8-1.8,3.1-1.8c0.5,0,0.9,0.1,1.4,0.3l-0.3,1c-0.4-0.1-0.8-0.2-1.3-0.2
	c-1.3,0.1-2.4,0.8-2.8,2v4h-1.2V405.4z"/>
<path class="st9" d="M114.5,498.8c0-2.5,1.5-4.1,3.5-4.1c0.8,0,1.6,0.4,2.2,1l-0.6,0.6c-0.4-0.4-1-0.7-1.6-0.7
	c-1.5,0-2.5,1.2-2.5,3.2s1,3.2,2.5,3.2c0.7,0,1.3-0.3,1.8-0.9l0.6,0.6c-0.6,0.7-1.5,1.2-2.4,1.1C116,502.8,114.5,501.3,114.5,498.8z
	"/>
<path class="st9" d="M122.7,496.9h0.8l0.1,1.4l0,0c0.5-0.9,1.5-1.5,2.6-1.5c0.4,0,0.8,0.1,1.2,0.2l-0.2,0.9
	c-0.3-0.1-0.7-0.2-1.1-0.2c-1.1,0-2,0.7-2.4,1.7v3.4h-1V496.9z"/>
<path class="st9" d="M129,499.8c0-1.6,1.2-3,2.8-3c0.1,0,0.1,0,0.2,0c1.4-0.1,2.6,1,2.7,2.3c0,0.1,0,0.3,0,0.4c0,0.2,0,0.4-0.1,0.6
	h-4.9v-0.8h4.3l-0.2,0.3c0-1.4-0.7-2.1-1.8-2.1s-2,1-2,2.1c0,0.1,0,0.1,0,0.2c-0.1,1.2,0.8,2.2,1.9,2.3c0.1,0,0.2,0,0.3,0
	c0.6,0,1.3-0.2,1.8-0.5l0.4,0.6c-0.7,0.5-1.5,0.7-2.3,0.7c-1.7,0.1-3.1-1.2-3.2-2.8C129,499.9,129,499.9,129,499.8z"/>
<path class="st9" d="M136.3,501.2c0-1.3,1.2-1.9,4.2-2.2c0-0.8-0.5-1.4-1.3-1.5c-0.1,0-0.2,0-0.3,0c-0.7,0-1.4,0.3-2,0.7l-0.4-0.7
	c0.8-0.5,1.7-0.8,2.6-0.8c1.2-0.1,2.2,0.7,2.4,1.9c0,0.2,0,0.3,0,0.5v3.6h-0.8l-0.1-0.8l0,0c-0.6,0.5-1.4,0.9-2.3,0.9
	c-1,0.2-1.9-0.5-2-1.4C136.3,501.3,136.3,501.2,136.3,501.2z M140.6,501.2v-1.5c-2.5,0.2-3.3,0.7-3.3,1.5s0.6,0.9,1.3,0.9
	C139.3,502,140,501.7,140.6,501.2L140.6,501.2z"/>
<path class="st9" d="M144.3,496.9h0.8l0.1,1.4l0,0c0.5-0.9,1.5-1.5,2.6-1.5c0.4,0,0.8,0.1,1.2,0.3l-0.2,0.9
	c-0.3-0.1-0.7-0.2-1.1-0.2c-1.1,0-2,0.7-2.4,1.7v3.4h-1L144.3,496.9z"/>
<path class="st9" d="M158.1,494.8h2.2c1.6,0,2.7,0.5,2.7,1.9c0,0.8-0.6,1.6-1.4,1.7l0,0c1,0,1.8,0.9,1.8,1.9l0,0
	c0,1.5-1.2,2.3-3,2.3H158L158.1,494.8z M160.2,498.1c1.3,0,1.9-0.4,1.9-1.3s-0.6-1.2-1.8-1.2h-1.1v2.5H160.2z M160.4,501.9
	c1.3,0,2.1-0.4,2.1-1.5s-0.7-1.4-2.1-1.4h-1.3v2.9H160.4z"/>
<path class="st9" d="M167.9,497.7h-2.7v-0.8h3.7v5.8h-1V497.7z M167.5,494.9c0-0.4,0.4-0.8,0.9-0.7c0.4,0,0.7,0.3,0.7,0.7
	c0,0.4-0.4,0.8-0.9,0.7C167.9,495.5,167.6,495.2,167.5,494.9z"/>
<path class="st9" d="M179.4,499.8c0-1.6,1.2-3,2.8-3c0.1,0,0.1,0,0.2,0c1.4-0.1,2.6,0.9,2.7,2.3c0,0.1,0,0.3,0,0.4
	c0,0.2,0,0.4,0,0.6h-5v-0.8h4.3l-0.2,0.3c0-1.4-0.7-2.1-1.8-2.1s-2,1-2,2.1c0,0.1,0,0.1,0,0.2c-0.1,1.2,0.8,2.2,1.9,2.3
	c0.1,0,0.2,0,0.3,0c0.6,0,1.2-0.2,1.8-0.5l0.4,0.6c-0.7,0.5-1.4,0.7-2.2,0.7c-1.7,0.1-3.1-1.2-3.1-2.9
	C179.4,499.9,179.4,499.8,179.4,499.8z"/>
<path class="st9" d="M186.9,496.9h0.8l0.1,1l0,0c0.5-0.7,1.3-1.1,2.2-1.1c1.4,0,2,0.8,2,2.4v3.6h-1v-3.5c0-1.1-0.4-1.6-1.3-1.6
	c-0.7,0-1.4,0.4-1.8,1v4.1h-1V496.9z"/>
<path class="st9" d="M201.8,494.8h1v7h3.9v0.9h-4.9V494.8z"/>
<path class="st9" d="M211.1,497.7h-2.7v-0.8h3.7v5.8h-1V497.7z M210.8,495.4l1.7-2l0.7,0.7l-1.9,1.8L210.8,495.4z"/>
<path class="st9" d="M215.7,496.9h0.8l0.1,1h0.1c0.5-0.7,1.3-1.1,2.2-1.1c1.4,0,2,0.8,2,2.4v3.6h-1v-3.5c0-1.1-0.4-1.6-1.3-1.6
	c-0.7,0-1.4,0.4-1.8,1v4.1h-1L215.7,496.9z"/>
<path class="st9" d="M222.6,499.8c0-1.6,1.2-3,2.9-3h0.1c1.4-0.1,2.6,0.9,2.7,2.3c0,0.1,0,0.3,0,0.4c0,0.2,0,0.4,0,0.6h-4.9v-0.8
	h4.4l-0.3,0.3c0-1.4-0.7-2.1-1.8-2.1s-2,0.9-2,2c0,0.1,0,0.2,0,0.3c-0.1,1.2,0.8,2.2,1.9,2.3c0.1,0,0.2,0,0.3,0
	c0.6,0,1.2-0.2,1.8-0.5l0.4,0.6c-0.7,0.5-1.4,0.7-2.2,0.7c-1.7,0.1-3.1-1.1-3.2-2.8C222.6,500,222.6,499.9,222.6,499.8z"/>
<path class="st9" d="M229.9,501.2c0-1.3,1.2-1.9,4.2-2.2c0.1-0.8-0.5-1.4-1.3-1.5c-0.1,0-0.2,0-0.3,0c-0.7,0-1.4,0.3-2,0.7l-0.4-0.7
	c0.8-0.5,1.7-0.8,2.6-0.8c1.2-0.1,2.3,0.7,2.4,1.9c0,0.2,0,0.3,0,0.5v3.6h-0.8l-0.1-0.8l0,0c-0.6,0.5-1.4,0.9-2.3,0.9
	c-1,0.2-1.9-0.5-2-1.4C229.9,501.3,229.9,501.2,229.9,501.2z M234.1,501.2v-1.5c-2.5,0.2-3.2,0.7-3.2,1.5s0.6,0.9,1.3,0.9
	C232.9,502,233.6,501.7,234.1,501.2L234.1,501.2z"/>
<path class="st9" d="M123.4,470.2c0-2.5,1.5-4.1,3.5-4.1c0.8,0,1.6,0.4,2.2,1l-0.6,0.6c-0.4-0.5-1-0.7-1.5-0.7
	c-1.5,0-2.5,1.2-2.5,3.2s1,3.2,2.5,3.2c0.7,0,1.3-0.3,1.8-0.9l0.6,0.6c-0.6,0.7-1.5,1.2-2.4,1.1
	C124.9,474.3,123.4,472.8,123.4,470.2z"/>
<path class="st9" d="M131.6,468.3h0.8l0.1,1.4l0,0c0.5-0.9,1.5-1.5,2.6-1.5c0.4,0,0.8,0.1,1.1,0.2l-0.2,0.9
	c-0.3-0.1-0.7-0.2-1.1-0.2c-1.1,0-2,0.7-2.4,1.7v3.4h-1L131.6,468.3L131.6,468.3z"/>
<path class="st9" d="M137.9,471.2c-0.1-1.6,1.2-3,2.8-3c0.1,0,0.1,0,0.2,0c1.4-0.1,2.6,0.9,2.7,2.3c0,0.1,0,0.3,0,0.4
	c0,0.2,0,0.4,0,0.6h-4.9v-0.8h4.3l-0.2,0.3c0-1.4-0.7-2.1-1.8-2.1s-2,0.9-2,2c0,0.1,0,0.2,0,0.3c-0.1,1.2,0.8,2.2,1.9,2.3
	c0.1,0,0.2,0,0.4,0c0.6,0,1.3-0.2,1.8-0.5l0.4,0.6c-0.7,0.5-1.5,0.7-2.3,0.7c-1.7,0.1-3.1-1.1-3.2-2.8
	C137.9,471.4,137.9,471.3,137.9,471.2z"/>
<path class="st9" d="M145.2,472.6c0-1.3,1.2-1.9,4.2-2.2c0-0.8-0.6-1.4-1.4-1.4c-0.1,0-0.1,0-0.2,0c-0.7,0.1-1.4,0.3-2,0.7l-0.4-0.7
	c0.8-0.5,1.7-0.8,2.6-0.8c1.2-0.1,2.3,0.7,2.4,1.9c0,0.2,0,0.3,0,0.5v3.6h-0.8l-0.1-0.8l0,0c-0.6,0.5-1.4,0.9-2.3,0.9
	c-1,0.2-1.9-0.5-2-1.5C145.2,472.8,145.2,472.7,145.2,472.6z M149.4,472.6v-1.5c-2.5,0.2-3.2,0.7-3.2,1.5s0.6,0.9,1.3,0.9
	C148.2,473.4,148.9,473.1,149.4,472.6L149.4,472.6z"/>
<path class="st9" d="M153.2,468.3h0.8l0.1,1.4l0,0c0.5-0.9,1.5-1.5,2.6-1.5c0.4,0,0.8,0.1,1.1,0.2l-0.2,0.9
	c-0.3-0.1-0.7-0.2-1.1-0.2c-1.1,0-2,0.7-2.4,1.7v3.4h-1L153.2,468.3z"/>
<path class="st9" d="M166.8,471.2c0-1.7,1.3-3,2.9-3.1c0.1,0,0.2,0,0.3,0c0.8,0,1.6,0.3,2.1,0.9l-0.5,0.6c-0.4-0.4-1-0.6-1.6-0.7
	c-1.2,0-2.2,1-2.2,2.2s1,2.2,2.2,2.2l0,0c0.7,0,1.3-0.3,1.8-0.7l0.4,0.6c-0.6,0.6-1.5,0.9-2.3,0.9c-1.6,0.1-3-1-3.2-2.7
	C166.8,471.5,166.8,471.3,166.8,471.2z"/>
<path class="st9" d="M174,471.9v-3.6h1v3.5c0,1.1,0.4,1.6,1.4,1.6c0.7,0,1.4-0.4,1.8-1.1v-4h1v5.8h-0.8l-0.1-1l0,0
	c-0.5,0.7-1.3,1.1-2.2,1.2C174.6,474.3,174,473.4,174,471.9z"/>
<path class="st9" d="M181.1,471.2c-0.1-1.6,1.2-3,2.8-3c0.1,0,0.1,0,0.2,0c1.4-0.1,2.6,1,2.7,2.3c0,0.1,0,0.3,0,0.4
	c0,0.2,0,0.4-0.1,0.6h-4.9v-0.8h4.3l-0.2,0.3c0-1.4-0.7-2.1-1.8-2.1s-2,1-2,2.1c0,0.1,0,0.1,0,0.2c-0.1,1.2,0.8,2.2,1.9,2.3
	c0.1,0,0.2,0,0.3,0c0.6,0,1.3-0.2,1.8-0.5l0.4,0.6c-0.7,0.5-1.5,0.7-2.3,0.7c-1.7,0.1-3.1-1.2-3.2-2.8
	C181.1,471.4,181.1,471.3,181.1,471.2z"/>
<path class="st9" d="M188.6,468.3h0.8l0.1,1h0.1c0.5-0.7,1.3-1.1,2.2-1.1c1.4,0,2,0.8,2,2.4v3.6h-1v-3.5c0-1.1-0.4-1.6-1.3-1.6
	c-0.7,0-1.2,0.4-1.8,1v4.1h-1L188.6,468.3z"/>
<path class="st9" d="M197.1,471.9v-2.8h-1.7v-0.8l1.7-0.1l0.1-1.9h0.8v1.9h2.9v0.8H198v2.8c0,1,0.4,1.6,1.5,1.6
	c0.5,0,0.9-0.1,1.4-0.3l0.2,0.7c-0.6,0.2-1.2,0.3-1.8,0.4C197.7,474.3,197.1,473.3,197.1,471.9z"/>
<path class="st9" d="M202.8,472.6c0-1.3,1.2-1.9,4.2-2.2c0-0.8-0.6-1.4-1.4-1.4c-0.1,0-0.1,0-0.2,0c-0.7,0.1-1.4,0.3-2,0.7L203,469
	c0.8-0.5,1.7-0.8,2.6-0.8c1.2-0.1,2.2,0.7,2.4,1.9c0,0.2,0,0.3,0,0.5v3.6h-0.8l-0.1-0.8l0,0c-0.6,0.5-1.4,0.9-2.3,0.9
	c-1,0.2-1.9-0.5-2-1.5C202.8,472.8,202.8,472.7,202.8,472.6z M207.1,472.6v-1.5c-2.5,0.2-3.2,0.7-3.2,1.5s0.6,0.9,1.3,0.9
	C205.8,473.4,206.5,473.1,207.1,472.6L207.1,472.6z"/>
<path class="st9" d="M217.4,466.2h2.2c1.6,0,2.7,0.5,2.7,1.9c0,0.8-0.6,1.6-1.4,1.7l0,0c1.2,0.2,1.8,0.8,1.8,1.9
	c0,1.5-1.2,2.3-3,2.3h-2.4L217.4,466.2z M219.5,469.5c1.3,0,1.9-0.4,1.9-1.3s-0.6-1.2-1.8-1.2h-1.1v2.5H219.5z M219.7,473.3
	c1.3,0,2.1-0.4,2.1-1.5s-0.7-1.4-2.1-1.4h-1.3v2.9H219.7z"/>
<path class="st9" d="M227.2,469.1h-2.7v-0.8h3.7v5.8h-1V469.1z M226.8,466.3c0-0.4,0.3-0.8,0.8-0.8c0.4,0,0.8,0.3,0.8,0.8
	c0,0.4-0.3,0.8-0.8,0.8l0,0C227.2,467.1,226.9,466.8,226.8,466.3L226.8,466.3L226.8,466.3z"/>
<circle class="st11" cx="107.4" cy="469.9" r="5.7"/>
</svg>
