<?xml version="1.0" encoding="utf-8"?>
<!-- Generator: Adobe Illustrator 26.4.1, SVG Export Plug-In . SVG Version: 6.00 Build 0)  -->
<svg version="1.1" id="Layer_1" xmlns="http://www.w3.org/2000/svg" xmlns:xlink="http://www.w3.org/1999/xlink" x="0px" y="0px"
	 viewBox="0 0 350 650" style="enable-background:new 0 0 350 650;" xml:space="preserve">
<style type="text/css">
	.st0{fill:#163A64;}
	.st1{fill:#163A63;}
	.st2{fill:#172D4A;}
	.st3{fill:#F7B01A;}
	.st4{fill:#FFFFFF;}
	.st5{fill:#3CB3C9;}
	.st6{fill:#193A62;}
	.st7{fill:#223F83;}
	.st8{fill:none;stroke:#ABABAB;stroke-width:0.5;stroke-miterlimit:10;}
	.st9{fill:#CCCCCB;}
	.st10{fill:#2799C5;}
	.st11{fill:#CBC62C;}
</style>
<g id="Layer_1_00000048462000636869236950000003701046377408734876_">
	<rect class="st0" width="350" height="650"/>
</g>
<path class="st0" d="M210.3,45.6h-70.7c-17,0-30.8,13.8-30.8,30.8v70.7c0.1,17,13.9,30.8,30.9,30.8h70.5c17-0.1,30.8-13.8,31-30.9
	V76.5C241.1,59.5,227.3,45.7,210.3,45.6z M184.4,133c-0.2,9.7-5.7,15.8-15.4,17.3c-5.3,0.7-10.9,0.6-16.4,0.6c-2,0-4.2-0.2-6.2,0
	c-1.1,0-1.3-0.4-1.3-1.3v-8.1c0-0.7-0.2-1.1-1.1-1.1c-7,0.2-8.4-0.2-8.6-0.4c-2.3-0.9-3.7-3.2-3.5-5.7c0-14.1,0-28.1-0.2-42
	c0-1.1,0.2-1.5,1.5-1.5h26.1c4.1-0.1,8.1,0.6,11.9,2c7,2.9,9.4,8.4,8.8,15.2c-0.4,5-2.2,7.3-6.8,10.5c1.3,0.3,2.5,0.7,3.7,1.3
	C182.2,122.6,184.6,127.2,184.4,133z M202.4,149c0,1.1-0.2,1.5-1.5,1.5h-10.5c-0.9,0-1.1-0.2-1.1-1.1c0-11.8-0.2-23.3-0.2-35.1
	c0-3.5,2.2-5.5,5.7-5.5h5.9c1.1,0,1.7,0.2,1.7,1.4c-0.2,6.6-0.2,12.8-0.2,19.3C202.3,136,202.3,142.6,202.4,149L202.4,149z
	 M223,85.3L223,85.3c0.1,2.8-2.1,5.2-4.9,5.3c-0.1,0-0.3,0-0.4,0h-15.6V98c0,2-0.9,2.9-2.9,2.9h-9c-0.9,0-1.3-0.2-1.1-1.1v-6.3
	c0-2,1.1-2.9,3.1-2.9c3.3,0,6.6,0.2,9.9,0c0-4.4-0.2-8.6,0-13.1c-0.1-2.8,2.1-5.1,4.8-5.2c0.2,0,0.3,0,0.5,0h14.3
	c0.9,0,1.3,0.2,1.3,1.1L223,85.3z"/>
<path class="st1" d="M184.4,133c-0.2,9.7-5.7,15.8-15.4,17.3c-5.3,0.7-10.9,0.6-16.4,0.6c-2,0-4.2-0.2-6.2,0c-1.1,0-1.3-0.4-1.3-1.3
	v-8.1c0-0.7-0.2-1.1-1.1-1.1c-7,0.2-8.4-0.2-8.6-0.4c-2.3-0.9-3.7-3.2-3.5-5.7c0-14.1,0-28.1-0.2-42c0-1.1,0.2-1.5,1.5-1.5h26.1
	c4.1-0.1,8.1,0.6,11.9,2c7,2.9,9.4,8.4,8.8,15.2c-0.4,5-2.2,7.3-6.8,10.5c1.3,0.3,2.5,0.7,3.7,1.3
	C182.2,122.6,184.6,127.2,184.4,133z"/>
<path class="st2" d="M176.9,119.8c-1.2-0.5-2.4-1-3.7-1.3c4.6-3.1,6.4-5.5,6.8-10.5c0.6-6.8-1.8-12.3-8.8-15.2
	c-3.8-1.4-7.9-2.1-11.9-2h-26.1c-1.3,0-1.5,0.4-1.5,1.5c0.2,14,0.2,27.9,0.2,42c-0.2,2.5,1.2,4.8,3.5,5.7c0.2,0.2,1.7,0.6,8.6,0.4
	c0.9,0,1.1,0.4,1.1,1.1v8.1c0,0.9,0.2,1.3,1.3,1.3c2-0.2,4.2,0,6.2,0c5.5,0,11,0.2,16.4-0.5c9.7-1.5,15.2-7.5,15.4-17.3
	C184.6,127.2,182.2,122.6,176.9,119.8L176.9,119.8z M144.8,113.2c0.2-3.7,0.2-7.2,0.2-10.7c0-0.7,0-1.3,0.9-1.1
	c4.6,0.2,9.4-0.2,14,0.2c1.3,0.1,2.7,0.5,3.9,1.1c2.4,1.5,2.9,3.7,2.8,6.1s-1.7,3.8-4,4.8c-3.1,1.1-6.4,0.7-9.2,0.7h-7.2
	C145.2,114.3,144.8,114.1,144.8,113.2L144.8,113.2z M170.3,136c-1.5,2.9-4.4,3.9-7.5,4.2c-5.5,0.4-11.2,0.2-16.7,0.2
	c-0.7,0-0.9-0.2-0.9-0.9v-13.6c0-0.9,0.4-1.1,1.1-0.9h8.8c3.1,0.2,7-0.6,10.6,0.5c3.9,0.9,6.2,4.8,5.3,8.7
	C170.9,134.8,170.6,135.4,170.3,136z"/>
<path class="st2" d="M202.1,90.6V98c0,2-0.9,2.9-2.9,2.9h-9c-0.9,0-1.3-0.2-1.1-1.1v-6.3c0-2,1.1-2.9,3.1-2.9
	C195.5,90.6,198.8,90.8,202.1,90.6z"/>
<path class="st2" d="M202.3,129.6c0,6.4,0,13,0.2,19.5c0,1.1-0.2,1.5-1.5,1.5h-10.5c-0.9,0-1.1-0.2-1.1-1.1
	c0-11.8-0.2-23.3-0.2-35.1c0-3.5,2.2-5.5,5.7-5.5h5.9c1.1,0,1.7,0.2,1.7,1.5C202.3,116.9,202.3,123.1,202.3,129.6L202.3,129.6z"/>
<path class="st2" d="M223,73.5v11.8c0.1,2.8-2.1,5.2-4.9,5.3c-0.1,0-0.3,0-0.4,0h-15.6c0-4.4-0.2-8.6,0-13.1
	c-0.1-2.8,2.1-5.1,4.8-5.2c0.2,0,0.3,0,0.5,0h14.3C222.6,72.4,223,72.6,223,73.5z"/>
<path class="st3" d="M223,73.5v11.8c0.1,2.8-2.1,5.2-4.9,5.3c-0.1,0-0.3,0-0.4,0h-15.6c0-4.4-0.2-8.6,0-13.1
	c-0.1-2.8,2.1-5.1,4.8-5.2c0.2,0,0.3,0,0.5,0h14.3C222.6,72.4,223,72.6,223,73.5z"/>
<path class="st4" d="M202.4,149c0,1.1-0.2,1.5-1.5,1.5h-10.5c-0.9,0-1.1-0.2-1.1-1.1c0-11.8-0.2-23.3-0.2-35.1
	c0-3.5,2.2-5.5,5.7-5.5h5.9c1.1,0,1.7,0.2,1.7,1.5c-0.2,6.6-0.2,12.8-0.2,19.3C202.2,136.1,202.3,142.6,202.4,149z"/>
<path class="st5" d="M202.1,90.6V98c0,2-0.9,2.9-2.9,2.9h-9c-0.9,0-1.3-0.2-1.1-1.1v-6.3c0-2,1.1-2.9,3.1-2.9
	C195.5,90.6,198.8,90.8,202.1,90.6z"/>
<path class="st4" d="M176.9,119.8c5.3,2.8,7.7,7.4,7.5,13.2c-0.2,9.7-5.7,15.8-15.4,17.3c-5.3,0.7-10.8,0.5-16.4,0.5
	c-2,0-4.2-0.2-6.2,0c-1.1,0-1.3-0.4-1.3-1.3v-8.1c0-0.7-0.2-1.1-1.1-1.1c-7,0.2-8.4-0.2-8.6-0.4c-2.3-0.9-3.7-3.2-3.5-5.7
	c0-14.2,0-28.1-0.2-42c0-1.1,0.2-1.5,1.5-1.5h26.1c4.1-0.1,8.1,0.6,11.9,2c7,2.9,9.4,8.4,8.8,15.2c-0.4,5-2.2,7.4-6.8,10.5
	C174.5,118.9,175.7,119.3,176.9,119.8z M171.2,132.4V132c0-0.1,0-0.2,0-0.3s0-0.1,0-0.2c0-0.1,0-0.1,0-0.1s0-0.1,0-0.2
	c0-0.1,0-0.2-0.1-0.3c0-0.1,0-0.2,0-0.2c0-0.1,0-0.2-0.1-0.2c0-0.1-0.1-0.2-0.1-0.2c-0.1-0.3-0.3-0.7-0.4-1
	c-0.1-0.2-0.1-0.3-0.2-0.5l0,0c-0.1-0.2-0.3-0.4-0.4-0.6l0,0c-0.6-0.8-1.3-1.4-2.1-1.8c-0.1-0.1-0.2-0.1-0.4-0.2l-0.3-0.2l-0.1-0.1
	l-0.3-0.1l0,0l-0.2-0.1l-0.5-0.2c-3.7-1.1-7.5-0.4-10.6-0.5h-8.8c-0.7-0.2-1.1,0-1.1,0.9v13.6c0,0.7,0.2,0.9,0.9,0.9
	c5.5,0,11.2,0.2,16.7-0.2c3.1-0.4,6-1.3,7.5-4.2c0.1-0.2,0.2-0.4,0.3-0.7s0.2-0.6,0.3-0.9c0.1-0.3,0.2-0.7,0.2-1.1
	C171.3,133,171.2,132.7,171.2,132.4z M166.4,108.8c0.1-0.7,0.1-1.3-0.1-2c0-0.3-0.1-0.6-0.2-0.8l0,0v-0.1l-0.1-0.2l-0.1-0.2
	c0,0,0-0.1-0.1-0.1l0,0c0-0.1-0.1-0.2-0.2-0.3c0-0.1-0.1-0.2-0.1-0.3c-0.2-0.3-0.4-0.5-0.6-0.8l-0.2-0.3c-0.4-0.4-0.8-0.7-1.2-0.9
	c-1.2-0.6-2.5-1-3.9-1.1c-4.6-0.4-9.4,0-14-0.2c-0.9-0.2-0.9,0.4-0.9,1.1c0,3.5,0,7-0.2,10.7c0,0.2,0,0.5,0.1,0.7l0,0
	c0,0,0,0.1,0.1,0.1c0.3,0.2,0.7,0.3,1.1,0.3h7.1c2.8,0,6.1,0.4,9.2-0.7c1.8-0.5,3.2-1.8,3.8-3.6c0.1-0.1,0.1-0.3,0.1-0.4
	s0.1-0.3,0.1-0.4l0,0C166.4,109.1,166.4,108.9,166.4,108.8L166.4,108.8L166.4,108.8z"/>
<path class="st1" d="M170.4,129.2c0.2,0.3,0.3,0.7,0.4,1c0,0.1,0,0.1,0.1,0.2c0,0.1,0.1,0.2,0.1,0.2c0,0.1,0,0.2,0,0.2
	c0,0.1,0,0.2,0.1,0.3c0,0.1,0,0.1,0,0.2s0,0.1,0,0.1c0,0.1,0,0.1,0,0.2c0,0.1,0,0.2,0,0.3s0,0.3,0,0.4c0,0.3,0,0.6-0.1,0.9
	c0,0.4-0.1,0.7-0.2,1.1c-0.1,0.3-0.2,0.6-0.3,0.9c-0.1,0.2-0.2,0.5-0.3,0.7c-1.5,2.9-4.4,3.9-7.5,4.2c-5.5,0.4-11.2,0.2-16.7,0.2
	c-0.7,0-0.9-0.2-0.9-0.9v-13.6c0-0.9,0.4-1.1,1.1-0.9h8.8c3.1,0.2,7-0.6,10.6,0.5l0.5,0.2l0.2,0.1c0.3,0.1,0.5,0.2,0.8,0.3
	c0.4,0.2,0,0,0,0c0.8,0.4,1.6,1,2.2,1.8C169.8,128.3,170.1,128.7,170.4,129.2z"/>
<path class="st6" d="M170.4,129.2c-0.1-0.2-0.1-0.3-0.2-0.5C170.3,128.9,170.4,129.1,170.4,129.2z"/>
<path class="st6" d="M170.2,128.8c0.1,0.1,0.2,0.3,0.2,0.5c-0.3-0.5-0.6-1-0.9-1.4c0.1,0.1,0.2,0.2,0.3,0.3l0,0
	C169.9,128.3,170.1,128.5,170.2,128.8L170.2,128.8z"/>
<path class="st6" d="M170.2,128.8c-0.1-0.2-0.3-0.4-0.4-0.6C169.9,128.3,170.1,128.5,170.2,128.8z"/>
<path class="st6" d="M169.8,128.1c-0.1-0.1-0.2-0.2-0.3-0.3c-0.5-0.6-1.1-1.2-1.8-1.6C168.5,126.7,169.2,127.4,169.8,128.1z"/>
<path class="st6" d="M167.7,126.3c0.7,0.4,1.3,0.9,1.8,1.6c-0.6-0.7-1.4-1.3-2.2-1.8C167.4,126.1,167.5,126.2,167.7,126.3z"/>
<path class="st7" d="M167,125.9l0.3,0.2l0,0C167.2,126,167.1,126,167,125.9z"/>
<path class="st6" d="M167,125.9c0.1,0,0.2,0.1,0.3,0.2c-0.2-0.1-0.5-0.2-0.8-0.3l0.3,0.1L167,125.9z"/>
<path class="st7" d="M166.8,125.9l-0.3-0.1l0,0L166.8,125.9z"/>
<path class="st6" d="M166.4,108.8c0.1-0.7,0-1.3-0.1-2C166.5,107.4,166.5,108.1,166.4,108.8z"/>
<path class="st7" d="M166.4,106.8c0.1,0.7,0.1,1.3,0.1,2c0.1-0.9,0-1.9-0.2-2.8C166.3,106.2,166.3,106.5,166.4,106.8z"/>
<path class="st1" d="M166.2,105.9c0.2,0.9,0.3,1.9,0.2,2.8l0,0c0,0.1,0,0.3-0.1,0.4l0,0c0,0.1,0,0.3-0.1,0.4l0,0
	c-0.4,1.9-1.8,3.1-3.9,3.9c-3.1,1.1-6.4,0.7-9.2,0.7h-7.2c-0.4,0-0.7-0.1-1-0.3l-0.1-0.1l0,0c-0.1-0.2-0.1-0.4-0.1-0.7
	c0.2-3.7,0.2-7.2,0.2-10.7c0-0.7,0-1.3,0.9-1.1c4.6,0.2,9.4-0.2,14,0.2c1.3,0.1,2.7,0.5,3.9,1.1c0.4,0.3,0.8,0.6,1.1,0.9l0.2,0.3
	c0.2,0.2,0.4,0.5,0.6,0.8c0.1,0.1,0.1,0.2,0.1,0.3c0.1,0.1,0.1,0.2,0.2,0.3l0,0l0,0c0,0,0,0.1,0.1,0.1c0,0.1,0,0.1,0.1,0.2
	C166.2,105.6,166.3,105.7,166.2,105.9C166.3,106,166.2,105.9,166.2,105.9z"/>
<path class="st7" d="M166.4,108.8L166.4,108.8c0,0.1,0,0.3-0.1,0.4C166.4,109.1,166.4,108.9,166.4,108.8z"/>
<path class="st6" d="M166.4,108.8c0,0.1,0,0.3-0.1,0.4l0,0C166.4,109.1,166.4,108.9,166.4,108.8z"/>
<path class="st7" d="M166.4,109.2L166.4,109.2c0,0.1,0,0.2-0.1,0.4C166.3,109.5,166.4,109.4,166.4,109.2z"/>
<path class="st6" d="M166.4,109.2c0,0.1,0,0.3-0.1,0.4l0,0C166.3,109.5,166.4,109.4,166.4,109.2z"/>
<path class="st6" d="M166.2,110c0-0.1,0.1-0.3,0.1-0.4C166.3,109.7,166.3,109.9,166.2,110z"/>
<path class="st7" d="M166.3,109.6c0,0.1-0.1,0.3-0.1,0.4c-0.6,1.7-2,3-3.8,3.5c-3.1,1.1-6.4,0.7-9.2,0.7H146c-0.4,0-0.7-0.1-1-0.3
	l-0.1-0.1c0,0,0,0.1,0.1,0.1c0.3,0.2,0.6,0.3,1,0.3h7.2c2.8,0,6.1,0.4,9.2-0.7C164.5,112.7,165.9,111.5,166.3,109.6z"/>
<path class="st7" d="M166.2,105.8C166.2,105.9,166.2,105.9,166.2,105.8c0,0-0.1-0.1-0.1-0.2l0,0
	C166.1,105.7,166.2,105.8,166.2,105.8z"/>
<path class="st6" d="M166.2,105.8c0-0.1,0-0.1-0.1-0.2l0,0L166.2,105.8z"/>
<path class="st6" d="M166,105.4l0.1,0.2l0,0C166.1,105.6,166,105.5,166,105.4z"/>
<path class="st6" d="M166,105.4c0,0.1,0.1,0.1,0.1,0.2l0,0C166.1,105.6,166,105.5,166,105.4z"/>
<path class="st6" d="M166,105.3c0,0,0,0.1,0.1,0.1C166,105.4,166,105.3,166,105.3L166,105.3z"/>
<path class="st6" d="M166,105.3L166,105.3L166,105.3z"/>
<path class="st6" d="M166,105.3L166,105.3L166,105.3z"/>
<path class="st6" d="M162.4,113.6c1.8-0.5,3.2-1.9,3.8-3.6C165.6,111.7,164.2,113,162.4,113.6c-3.1,1.1-6.4,0.7-9.2,0.7h-7.1
	c-0.4,0.1-0.8,0-1.1-0.3c0.3,0.2,0.6,0.3,1,0.3h7.2C156,114.3,159.3,114.7,162.4,113.6z"/>
<line class="st8" x1="41.3" y1="331.5" x2="310.8" y2="331.5"/>
<path class="st9" d="M141.6,183.9h-3.3v-1.6h8.5v1.6h-3.3v8.9h-1.9V183.9z"/>
<path class="st9" d="M148.2,188.9c0.1-2.2,1.9-3.9,4.1-3.9c2.2,0.1,3.9,1.9,3.9,4.1c-0.1,2.2-1.9,3.9-4,3.9c-2.2,0-3.9-1.7-4-3.8
	C148.2,189.1,148.2,189,148.2,188.9z M154.2,188.9c0-1.6-0.8-2.6-2.1-2.6s-2,1-2,2.6s0.8,2.6,2,2.6S154.2,190.5,154.2,188.9z"/>
<path class="st9" d="M158.4,181.5h1.9v7.1h0.1l3.5-3.6h2.1l-5.7,5.8v2h-1.9L158.4,181.5L158.4,181.5z M161.5,189l1.1-1.2l3.6,5h-2
	L161.5,189z"/>
<path class="st9" d="M167.5,188.9c-0.1-2.2,1.7-4,3.9-4.1c0.1,0,0.1,0,0.2,0c1.9-0.1,3.5,1.3,3.7,3.2c0,0.2,0,0.4,0,0.5
	c0,0.3,0,0.6-0.1,0.9h-6.3v-1.3h5.1l-0.4,0.4c0-1.6-0.7-2.3-2-2.3s-2.3,0.9-2.3,2.7c-0.1,1.4,0.9,2.6,2.2,2.7c0.2,0,0.3,0,0.5,0
	c0.8,0,1.5-0.2,2.2-0.6l0.6,1.1c-0.9,0.6-2,0.9-3.1,0.9c-2.2,0.2-4.1-1.5-4.3-3.7C167.5,189.2,167.5,189,167.5,188.9z"/>
<path class="st9" d="M177.5,185h1.5l0.1,1.2h0.1c0.7-0.8,1.7-1.3,2.8-1.4c1.8,0,2.6,1.2,2.6,3.2v4.9h-1.9v-4.6
	c0-1.3-0.4-1.8-1.5-1.8c-0.8,0.1-1.5,0.5-2,1.1v5.4h-1.9L177.5,185z"/>
<path class="st9" d="M196.7,182.4h3.3c2.1,0,3.7,0.6,3.7,2.6c0,1.1-0.7,2-1.8,2.3v0.1c1.5,0.3,2.4,1.1,2.4,2.5c0,2.1-1.7,3.1-4,3.1
	h-3.5L196.7,182.4z M199.8,186.7c1.5,0,2.1-0.5,2.1-1.5s-0.7-1.3-2-1.3h-1.3v2.8H199.8z M200.1,191.3c1.5,0,2.4-0.5,2.4-1.7
	s-0.8-1.6-2.4-1.6h-1.5v3.3H200.1z"/>
<path class="st9" d="M209.7,186.4h-3.4V185h5.2v7.9h-1.9L209.7,186.4L209.7,186.4z M209.2,182.3c0-0.7,0.5-1.4,1.2-1.4
	s1.4,0.5,1.4,1.2s-0.5,1.4-1.2,1.4h-0.1C209.8,183.5,209.2,183,209.2,182.3C209.2,182.4,209.2,182.3,209.2,182.3z"/>
<path class="st3" d="M94.3,217.1c0-3.4,2.1-5.4,4.8-5.4c1.1,0,2.2,0.5,3,1.3l-1,1.2c-0.5-0.6-1.2-0.9-2-0.9c-1.7,0-2.9,1.4-2.9,3.8
	s1.2,3.8,3,3.8c0.8,0,1.6-0.4,2.1-1l1,1.1c-0.8,1-2.1,1.5-3.3,1.5C96.4,222.5,94.3,220.6,94.3,217.1z"/>
<path class="st3" d="M103.8,218.4c0.1-2.2,1.9-3.9,4.1-3.8s3.9,1.9,3.8,4.1c-0.1,2.1-1.8,3.8-4,3.8s-3.9-1.7-3.9-3.9
	C103.8,218.6,103.8,218.5,103.8,218.4z M109.8,218.4c0-1.6-0.8-2.6-2.1-2.6s-2,1-2,2.6s0.8,2.6,2,2.6S109.8,220,109.8,218.4z
	 M106.6,212.4l2.4-2.8l1.3,1.2l-2.7,2.5L106.6,212.4z"/>
<path class="st3" d="M113.4,218.4c0-2.6,1.7-4.1,3.4-4.1c0.8,0,1.6,0.3,2.2,0.9l0,0l-0.1-1.3V211h1.8v11.3h-1.5l-0.2-0.9h-0.1
	c-0.6,0.7-1.5,1.1-2.4,1.1C114.7,222.5,113.4,221,113.4,218.4z M119,220.1v-3.5c-0.4-0.4-1-0.7-1.7-0.7c-1.1,0-2,0.9-2,2.6
	s0.7,2.6,1.9,2.6C117.9,221,118.6,220.6,119,220.1L119,220.1z"/>
<path class="st3" d="M126.9,215.9h-3.4v-1.5h5.2v7.9h-1.9v-6.4H126.9z M126.4,211.8c0.1-0.7,0.7-1.3,1.4-1.2
	c0.6,0.1,1.1,0.6,1.2,1.2c-0.1,0.7-0.7,1.3-1.4,1.2C126.9,212.9,126.4,212.4,126.4,211.8z"/>
<path class="st3" d="M132.7,223.7c0.1-0.7,0.6-1.4,1.3-1.7l0,0c-0.5-0.2-0.8-0.8-0.8-1.3c0.1-0.6,0.4-1.2,0.9-1.5v-0.1
	c-0.6-0.5-1-1.2-1-2c0.1-1.6,1.4-2.9,3-2.8c0.1,0,0.1,0,0.2,0c0.4,0,0.8,0.1,1.2,0.2h3.2v1.4H139c0.3,0.4,0.5,0.8,0.5,1.3
	c0,1.7-1.4,2.7-3.1,2.7c-0.4,0-0.8-0.1-1.2-0.2c-0.3,0.1-0.5,0.4-0.5,0.7c0,0.5,0.5,0.7,1.5,0.7h1.6c2,0,3.1,0.6,3.1,1.9
	c0,1.6-1.8,2.8-4.5,2.8C134.2,225.8,132.7,225.1,132.7,223.7z M139.1,223.3c0-0.6-0.5-0.8-1.6-0.8h-1.2c-0.4,0-0.8,0-1.2-0.1
	c-0.6,0.3-0.8,0.7-0.8,1c0,0.7,0.8,1.1,2.3,1.1S139.1,224,139.1,223.3L139.1,223.3z M137.9,217.1c0-0.8-0.8-1.4-1.6-1.4
	s-1.4,0.8-1.4,1.6s0.7,1.4,1.5,1.4s1.5-0.6,1.5-1.4C137.9,217.2,137.9,217.2,137.9,217.1L137.9,217.1z"/>
<path class="st3" d="M142.2,218.4c0.1-2.2,1.9-3.9,4.1-3.8c2.2,0.1,3.9,1.9,3.8,4.1c-0.1,2.1-1.8,3.8-4,3.8s-3.9-1.7-3.9-3.9
	C142.2,218.6,142.2,218.5,142.2,218.4z M148.2,218.4c0-1.6-0.8-2.6-2.1-2.6s-2.1,1-2.1,2.6s0.8,2.6,2.1,2.6S148.2,220,148.2,218.4z"
	/>
<path class="st3" d="M161.9,220.8h2.5v-7.3h-2.5v-1.6h6.9v1.6h-2.5v7.3h2.5v1.6h-6.9V220.8z"/>
<path class="st3" d="M171.5,214.5h1.5l0.1,1.2h0.1c0.7-0.8,1.7-1.3,2.8-1.4c1.8,0,2.6,1.2,2.6,3.2v4.9h-1.9v-4.6
	c0-1.3-0.4-1.8-1.5-1.8c-0.8,0.1-1.5,0.5-2,1.1v5.4h-1.9L171.5,214.5z"/>
<path class="st3" d="M180.9,218.4c0-2.6,2.1-4.1,4.5-4.1c1.1,0,2.1,0.4,2.9,1.1l-0.9,1.2c-0.5-0.5-1.2-0.7-1.9-0.8
	c-1.4-0.1-2.7,1-2.8,2.4s1,2.7,2.4,2.8c0.1,0,0.2,0,0.3,0c0.8,0,1.6-0.3,2.2-0.9l0.8,1.2c-0.9,0.8-2,1.2-3.2,1.2
	c-2.2,0.2-4.1-1.4-4.3-3.6C180.9,218.7,180.9,218.6,180.9,218.4z"/>
<path class="st3" d="M190.2,218.4c0.1-2.2,1.9-3.9,4.1-3.9s3.9,1.9,3.9,4.1c-0.1,2.2-1.8,3.9-4,3.9c-2.2,0.1-3.9-1.6-4-3.8
	C190.2,218.6,190.2,218.5,190.2,218.4z M196.2,218.4c0-1.6-0.8-2.6-2-2.6s-2.1,1-2.1,2.6s0.8,2.6,2.1,2.6S196.2,220,196.2,218.4z"/>
<path class="st3" d="M201,214.5h1.5l0.1,1.8l0,0c0.7-1.2,1.9-2,3.3-2c0.5,0,1.1,0.1,1.5,0.3l-0.4,1.6c-0.5-0.2-0.9-0.3-1.4-0.2
	c-1.3,0-2.5,0.9-2.9,2.1v4.3H201V214.5z"/>
<path class="st3" d="M210.6,214.5h1.5l0.1,1.8h0.1c0.7-1.2,1.9-2,3.3-2c0.5,0,1.1,0.1,1.5,0.3l-0.4,1.6c-0.5-0.2-0.9-0.3-1.4-0.2
	c-1.3,0-2.5,0.9-2.9,2.1v4.3h-1.9L210.6,214.5z"/>
<path class="st3" d="M219.1,218.4c-0.1-2.2,1.7-4,3.9-4.1c0.1,0,0.1,0,0.2,0c1.9-0.1,3.5,1.3,3.7,3.2c0,0.2,0,0.3,0,0.5
	c0,0.3,0,0.6-0.1,0.9h-6.3v-1.3h5.1l-0.4,0.4c0-1.6-0.7-2.3-2-2.3s-2.3,0.9-2.3,2.7c-0.1,1.4,0.9,2.6,2.2,2.7c0.2,0,0.3,0,0.5,0
	c0.8,0,1.5-0.2,2.2-0.6l0.6,1.1c-0.9,0.6-2,0.9-3.1,0.9c-2.2,0.1-4.1-1.5-4.3-3.7C219.1,218.7,219.1,218.5,219.1,218.4z"/>
<path class="st3" d="M228.9,218.4c0-2.6,2.1-4.1,4.5-4.1c1.1,0,2.1,0.4,2.9,1.1l-0.9,1.2c-0.5-0.5-1.2-0.7-1.9-0.8
	c-1.4-0.1-2.7,1-2.8,2.4s1,2.7,2.4,2.8c0.1,0,0.2,0,0.3,0c0.8,0,1.6-0.3,2.2-0.9l0.8,1.2c-0.9,0.8-2,1.2-3.2,1.2
	c-2.2,0.2-4.1-1.4-4.3-3.6C228.9,218.7,228.9,218.6,228.9,218.4z"/>
<path class="st3" d="M240.4,219.2V216h-2.1v-1.4l2.2-0.1l0.2-2.5h1.5v2.5h3.6v1.5h-3.6v3.2c0,1.3,0.5,1.9,1.8,1.9
	c0.6,0,1.2-0.1,1.7-0.3l0.4,1.4c-0.8,0.3-1.7,0.4-2.5,0.4C241.2,222.5,240.4,221.2,240.4,219.2z"/>
<path class="st3" d="M247.8,218.4c0.1-2.2,1.9-3.9,4.1-3.9c2.2,0.1,3.9,1.9,3.9,4.1c-0.1,2.2-1.9,3.9-4,3.9c-2.2,0-3.9-1.7-4-3.8
	C247.8,218.6,247.8,218.5,247.8,218.4z M253.8,218.4c0-1.6-0.8-2.6-2.1-2.6s-2.1,1-2.1,2.6s0.8,2.6,2.1,2.6S253.8,220,253.8,218.4z"
	/>
<path class="st9" d="M60.8,237.4h2.4c1.7,0,2.9,0.6,2.9,2.3s-1.2,2.4-2.9,2.4h-1.4v3.1h-1L60.8,237.4z M63,241.3c1.4,0,2-0.5,2-1.6
	s-0.7-1.5-2-1.5h-1.2v3.1H63z"/>
<path class="st9" d="M67.5,242.4c0.1-1.6,1.5-2.8,3-2.7s2.8,1.5,2.7,3c-0.1,1.5-1.3,2.7-2.9,2.7s-2.9-1.3-2.9-2.8
	C67.5,242.5,67.5,242.4,67.5,242.4z M72.2,242.4c0-1.3-0.8-2.2-1.9-2.2s-1.9,0.9-1.9,2.2s0.7,2.2,1.9,2.2S72.2,243.7,72.2,242.4z"/>
<path class="st9" d="M75.7,239.4h0.8l0.1,1.4l0,0c0.5-0.9,1.5-1.5,2.6-1.5c0.4,0,0.8,0.1,1.2,0.2l-0.2,0.9c-1.4-0.6-2.9,0.1-3.5,1.4
	l0,0v3.4h-1V239.4z"/>
<path class="st9" d="M89.6,239.5l1.7-0.1h3.4v0.8h-5.1V239.5z M91.2,238.9c-0.1-1.2,0.7-2.2,1.9-2.4c0.2,0,0.3,0,0.5,0
	c0.6,0,1.1,0.1,1.7,0.3l-0.2,0.7c-0.4-0.2-0.9-0.3-1.3-0.3c-1,0-1.5,0.6-1.5,1.5v6.4h-1L91.2,238.9z"/>
<path class="st9" d="M96.5,243.8c0-1.3,1.2-1.9,4.2-2.2c0.1-0.8-0.5-1.4-1.3-1.5c-0.1,0-0.2,0-0.3,0c-0.7,0.1-1.4,0.3-2,0.7
	l-0.4-0.7c0.8-0.5,1.7-0.8,2.6-0.8c1.2-0.1,2.3,0.7,2.4,1.9c0,0.2,0,0.3,0,0.5v3.6h-0.8l-0.1-0.8l0,0c-0.6,0.6-1.4,0.9-2.3,0.9
	C97.5,245.6,96.6,244.9,96.5,243.8C96.5,243.9,96.5,243.8,96.5,243.8z M100.7,243.8v-1.5c-2.5,0.2-3.2,0.7-3.2,1.4s0.6,0.9,1.3,0.9
	C99.5,244.6,100.2,244.3,100.7,243.8L100.7,243.8z"/>
<path class="st9" d="M103.3,239.4h1l1.3,3.3c0.2,0.6,0.4,1.2,0.7,1.7l0,0c0.2-0.6,0.4-1.1,0.6-1.7l1.3-3.3h1l-2.4,5.8h-1.1
	L103.3,239.4z"/>
<path class="st9" d="M110.7,242.4c0.1-1.6,1.5-2.8,3-2.7s2.8,1.5,2.7,3c-0.1,1.5-1.3,2.7-2.9,2.7s-2.9-1.3-2.9-2.8
	C110.7,242.5,110.7,242.4,110.7,242.4z M115.4,242.4c0-1.3-0.7-2.2-1.8-2.2s-1.9,0.9-1.9,2.2s0.7,2.2,1.9,2.2
	S115.4,243.7,115.4,242.4z"/>
<path class="st9" d="M118.9,239.4h0.8l0.1,1.4l0,0c0.5-0.9,1.5-1.5,2.6-1.5c0.4,0,0.8,0.1,1.2,0.2l-0.2,0.9
	c-1.4-0.6-2.9,0.1-3.5,1.4l0,0v3.4h-1V239.4z"/>
<path class="st9" d="M135.3,240.2h-2.7v-0.8h3.7v5.8h-1V240.2z M134.9,237.4c0-0.4,0.3-0.8,0.8-0.8c0.4,0,0.8,0.3,0.8,0.8
	c0,0.4-0.3,0.8-0.8,0.8l0,0C135.3,238.2,135,237.9,134.9,237.4C134.9,237.5,134.9,237.5,134.9,237.4L134.9,237.4z"/>
<path class="st9" d="M139.9,239.4h0.8l0.1,1h0.1c0.5-0.7,1.3-1.1,2.2-1.1c1.4,0,2,0.8,2,2.4v3.6h-1v-3.5c0-1.1-0.4-1.6-1.3-1.6
	c-0.7,0-1.2,0.4-1.8,1v4.1h-1L139.9,239.4z"/>
<path class="st9" d="M146.8,246.3c0.1-0.6,0.5-1.1,1-1.3l0,0c-0.4-0.2-0.6-0.6-0.6-1c0-0.5,0.3-0.9,0.7-1.1v-0.1
	c-0.5-0.4-0.7-0.9-0.7-1.5c0-1.2,1-2.1,2.2-2.1h0.1c0.3,0,0.6,0,0.9,0.1h2.4v0.8h-1.5c0.3,0.3,0.5,0.7,0.5,1.2c0,1.1-0.9,2-2,2
	c-0.1,0-0.2,0-0.3,0c-0.3,0-0.7-0.1-1-0.2c-0.3,0.1-0.4,0.4-0.4,0.7c0,0.4,0.4,0.7,1.2,0.7h1.3c1.5,0,2.2,0.4,2.2,1.4s-1.3,2-3.2,2
	C147.8,247.9,146.8,247.4,146.8,246.3z M151.8,246.1c0-0.6-0.4-0.7-1.3-0.7h-1.1c-0.3,0-0.6,0-0.9-0.1c-0.6,0.3-0.7,0.6-0.7,1
	c0,0.6,0.7,1,1.9,1S151.8,246.7,151.8,246.1L151.8,246.1z M150.8,241.4c0-0.7-0.5-1.3-1.3-1.4c0,0,0,0-0.1,0
	c-0.8,0.1-1.3,0.7-1.3,1.5c0.1,0.7,0.6,1.2,1.3,1.3c0.7,0,1.3-0.5,1.4-1.3C150.8,241.5,150.8,241.4,150.8,241.4L150.8,241.4z"/>
<path class="st9" d="M154.9,239.4h0.8l0.1,1.4l0,0c0.5-0.9,1.5-1.5,2.6-1.5c0.4,0,0.8,0.1,1.1,0.2l-0.2,0.9
	c-0.3-0.1-0.7-0.2-1.1-0.2c-1.1,0-2,0.7-2.4,1.7v3.4h-1L154.9,239.4z"/>
<path class="st9" d="M161.2,242.3c-0.1-1.6,1.2-3,2.8-3c0.1,0,0.1,0,0.2,0c1.4-0.1,2.6,1,2.6,2.4c0,0.1,0,0.2,0,0.3
	c0,0.2,0,0.4-0.1,0.6h-4.9v-0.8h4.3l-0.2,0.3c0-1.4-0.7-2.1-1.8-2.1s-2,1-2,2.1c0,0.1,0,0.1,0,0.2c-0.1,1.2,0.8,2.2,1.9,2.3
	c0.1,0,0.2,0,0.3,0c0.6,0,1.3-0.2,1.8-0.6l0.4,0.6c-0.7,0.5-1.5,0.7-2.3,0.7c-1.7,0.1-3.1-1.2-3.2-2.8
	C161.2,242.5,161.2,242.4,161.2,242.3z"/>
<path class="st9" d="M168.4,244.5l0.4-0.7c0.7,0.5,1.6,0.8,2.5,0.8c1,0,1.5-0.4,1.5-0.9s-0.2-0.8-1.8-1.1s-2.3-0.8-2.3-1.7
	s0.8-1.7,2.4-1.7c0.8,0,1.7,0.3,2.4,0.8l-0.5,0.6c-0.6-0.4-1.3-0.6-2-0.6c-1,0-1.4,0.4-1.4,0.8s0.5,0.7,1.7,1
	c1.9,0.4,2.4,0.9,2.4,1.8s-0.9,1.7-2.6,1.7C170.2,245.4,169.2,245.1,168.4,244.5z"/>
<path class="st9" d="M175.6,242.3c-0.1-1.6,1.2-3,2.8-3c0.1,0,0.1,0,0.2,0c1.4-0.1,2.6,1,2.6,2.4c0,0.1,0,0.2,0,0.3
	c0,0.2,0,0.4,0,0.6h-4.9v-0.8h4.3l-0.2,0.3c0-1.4-0.7-2.1-1.8-2.1s-2,1-2,2.1c0,0.1,0,0.1,0,0.2c-0.1,1.2,0.8,2.2,1.9,2.3
	c0.1,0,0.2,0,0.3,0c0.6,0,1.3-0.2,1.8-0.6l0.4,0.6c-0.7,0.5-1.5,0.7-2.3,0.7c-1.7,0.1-3.1-1.1-3.2-2.8
	C175.6,242.5,175.6,242.4,175.6,242.3z"/>
<path class="st9" d="M190,242.3c-0.1-1.6,1.2-3,2.8-3c0.1,0,0.1,0,0.2,0c1.4,0,2.6,1,2.6,2.4c0,0.1,0,0.2,0,0.3c0,0.2,0,0.4,0,0.6
	h-4.9v-0.8h4.3l-0.2,0.3c0-1.4-0.7-2.1-1.8-2.1s-2,1-2,2.1c0,0.1,0,0.1,0,0.2c-0.1,1.2,0.8,2.2,1.9,2.3c0.1,0,0.2,0,0.3,0
	c0.6,0,1.3-0.2,1.8-0.6l0.4,0.6c-0.7,0.5-1.5,0.7-2.3,0.7c-1.7,0.1-3.1-1.2-3.2-2.8C190,242.5,190,242.4,190,242.3z"/>
<path class="st9" d="M199.3,243.3v-5.8h-2.1v-0.8h3.1v6.6c-0.1,0.6,0.3,1.1,0.9,1.2c0.1,0,0.2,0,0.3,0c0.4,0,0.8-0.1,1.1-0.3
	l0.3,0.7c-0.5,0.2-1,0.4-1.6,0.4C200,245.4,199.3,244.7,199.3,243.3z"/>
<path class="st9" d="M211.7,242.4c0-1.7,1.3-3,2.9-3.1c0.1,0,0.2,0,0.3,0c0.8,0,1.6,0.3,2.1,0.9l-0.5,0.6c-0.4-0.4-1-0.6-1.6-0.7
	c-1.2-0.1-2.2,0.8-2.3,2c0,0.1,0,0.2,0,0.2c-0.1,1.2,0.8,2.2,2,2.2c0.1,0,0.2,0,0.2,0c0.7,0,1.3-0.3,1.8-0.7l0.4,0.6
	c-0.6,0.6-1.5,0.9-2.3,0.9c-1.6,0.1-3-1.1-3.2-2.7C211.7,242.6,211.7,242.5,211.7,242.4z"/>
<path class="st9" d="M218.7,242.4c0.1-1.6,1.5-2.8,3-2.7c1.6,0.1,2.8,1.5,2.7,3s-1.3,2.7-2.9,2.7c-1.6,0-2.9-1.3-2.9-2.8
	C218.7,242.5,218.7,242.4,218.7,242.4z M223.4,242.4c0-1.3-0.7-2.2-1.9-2.2s-1.9,0.9-1.9,2.2s0.8,2.2,1.9,2.2
	S223.4,243.7,223.4,242.4L223.4,242.4z M220.8,238l1.7-2l0.7,0.7l-1.9,1.8L220.8,238z"/>
<path class="st9" d="M225.9,242.4c-0.1-1.5,1-2.9,2.5-3.1h0.1c0.7,0,1.3,0.3,1.8,0.8l0,0l-0.1-1.1v-2.2h1v8.5h-0.8l-0.1-0.8l0,0
	c-0.5,0.5-1.2,0.9-1.9,0.9C226.9,245.4,225.9,244.3,225.9,242.4z M230.2,243.7v-2.9c-0.4-0.4-0.9-0.7-1.5-0.7
	c-1.1,0.1-1.9,1-1.8,2.2c0,0,0,0,0,0.1c0,1.4,0.6,2.2,1.7,2.2C229.2,244.5,229.8,244.2,230.2,243.7L230.2,243.7z"/>
<path class="st9" d="M236.1,240.2h-2.7v-0.8h3.7v5.8h-1V240.2z M235.7,237.4c0-0.4,0.3-0.8,0.8-0.8c0.4,0,0.8,0.3,0.8,0.8
	c0,0.4-0.3,0.8-0.8,0.8l0,0C236.1,238.2,235.8,237.9,235.7,237.4C235.7,237.5,235.7,237.5,235.7,237.4z"/>
<path class="st9" d="M240.4,246.3c0.1-0.6,0.5-1.1,1-1.3l0,0c-0.4-0.2-0.6-0.6-0.6-1c0-0.5,0.3-0.9,0.7-1.1v-0.1
	c-0.5-0.4-0.7-0.9-0.7-1.5c0-1.2,1-2.1,2.2-2.1h0.1c0.3,0,0.6,0,0.9,0.1h2.4v0.8h-1.5c0.3,0.3,0.5,0.7,0.5,1.2c0,1.1-1,2-2.1,2
	c-0.1,0-0.1,0-0.2,0c-0.3,0-0.7-0.1-1-0.2c-0.3,0.1-0.4,0.4-0.5,0.7c0,0.4,0.4,0.7,1.2,0.7h1.3c1.5,0,2.2,0.4,2.2,1.4s-1.3,2-3.2,2
	C241.4,247.9,240.4,247.4,240.4,246.3z M245.4,246.1c0-0.6-0.4-0.7-1.3-0.7H243c-0.3,0-0.6,0-0.9-0.1c-0.6,0.3-0.7,0.6-0.7,1
	c0,0.6,0.7,1,1.9,1S245.4,246.7,245.4,246.1L245.4,246.1z M244.4,241.4c0-0.7-0.6-1.3-1.4-1.3c-0.7,0-1.3,0.6-1.3,1.4
	c0,0.7,0.6,1.3,1.3,1.3C243.8,242.8,244.4,242.2,244.4,241.4L244.4,241.4L244.4,241.4z"/>
<path class="st9" d="M247.5,242.4c0.1-1.6,1.5-2.8,3-2.7c1.6,0.1,2.8,1.5,2.7,3s-1.3,2.7-2.9,2.7c-1.6,0-2.9-1.3-2.9-2.8
	C247.5,242.5,247.5,242.4,247.5,242.4z M252.2,242.4c0-1.3-0.7-2.2-1.9-2.2s-1.9,0.9-1.9,2.2s0.8,2.2,1.9,2.2
	S252.2,243.7,252.2,242.4L252.2,242.4z"/>
<path class="st9" d="M261.9,242.4c-0.1-1.5,1-2.9,2.5-3.1h0.1c0.7,0,1.3,0.3,1.8,0.8l0,0V239v-2.2h1v8.5h-0.8l-0.1-0.8l0,0
	c-0.5,0.5-1.2,0.9-1.9,0.9C262.9,245.4,261.9,244.3,261.9,242.4z M266.2,243.7v-2.9c-0.4-0.4-0.9-0.7-1.5-0.7
	c-1.1,0.1-1.9,1-1.8,2.2c0,0,0,0,0,0.1c0,1.4,0.6,2.2,1.7,2.2C265.2,244.5,265.8,244.2,266.2,243.7L266.2,243.7z"/>
<path class="st9" d="M269.2,242.3c-0.1-1.6,1.2-3,2.8-3c0.1,0,0.1,0,0.2,0c1.4-0.1,2.6,1,2.6,2.4c0,0.1,0,0.2,0,0.3
	c0,0.2,0,0.4,0,0.6h-4.9v-0.8h4.3l-0.2,0.3c0-1.4-0.7-2.1-1.8-2.1c-1.1,0-2,1-2,2.1c0,0.1,0,0.1,0,0.2c-0.1,1.2,0.8,2.2,1.9,2.3
	c0.1,0,0.2,0,0.3,0c0.6,0,1.3-0.2,1.8-0.6l0.4,0.6c-0.7,0.5-1.5,0.7-2.3,0.7c-1.7,0.1-3.1-1.2-3.2-2.8
	C269.2,242.5,269.2,242.4,269.2,242.3z"/>
<path class="st9" d="M283.7,241.7c0-3.1,1.5-4.3,3.2-4.3c0.8,0,1.6,0.3,2.1,0.8l-0.6,0.6c-0.4-0.4-1-0.6-1.5-0.6
	c-1.2,0-2.3,0.9-2.3,3.4c0,1.9,0.7,2.9,2,2.9c0.9,0,1.6-0.7,1.6-1.6v-0.1c0.1-0.8-0.5-1.5-1.3-1.6c-0.1,0-0.2,0-0.3,0
	c-0.8,0-1.5,0.4-2,1.1v-0.8c0.6-0.6,1.4-1,2.2-1c1.2-0.1,2.3,0.7,2.4,1.9c0,0.1,0,0.3,0,0.4c0,1.4-1.1,2.5-2.5,2.5h-0.1
	C284.9,245.4,283.7,244.2,283.7,241.7z"/>
<path class="st9" d="M67.5,256.8c-0.1-1.5,1-2.9,2.5-3.1h0.1c0.7,0,1.3,0.3,1.8,0.8l0,0v-1.1v-2.2h1v8.5H72l-0.1-0.8l0,0
	c-0.5,0.5-1.2,0.9-1.9,0.9C68.5,259.8,67.5,258.7,67.5,256.8z M71.8,258.1v-2.9c-0.4-0.4-0.9-0.7-1.5-0.7c-1.1,0.1-1.9,1.1-1.8,2.2
	c0,0,0,0,0,0.1c0,1.4,0.7,2.2,1.7,2.2C70.8,258.9,71.4,258.6,71.8,258.1z"/>
<path class="st9" d="M77.7,254.6H75v-0.8h3.7v5.8h-1V254.6z M77.4,252.4l1.7-2l0.7,0.7l-1.9,1.8L77.4,252.4z"/>
<path class="st9" d="M82,260.7c0.1-0.6,0.5-1.1,1-1.3l0,0c-0.4-0.2-0.6-0.6-0.6-1c0-0.5,0.3-0.9,0.7-1.1l0,0
	c-0.5-0.4-0.7-0.9-0.7-1.5c0-1.2,1-2.1,2.2-2.1h0.1c0.3,0,0.6,0,0.9,0.1H88v0.8h-1.5c0.3,0.3,0.5,0.7,0.5,1.2c0,1.1-0.9,2-2,2
	c-0.1,0-0.2,0-0.3,0c-0.3,0-0.7-0.1-1-0.2c-0.3,0.1-0.4,0.4-0.5,0.7c0,0.5,0.4,0.7,1.2,0.7h1.3c1.5,0,2.2,0.4,2.2,1.4s-1.3,2-3.2,2
	C83,262.3,82,261.8,82,260.7z M87,260.5c0-0.5-0.4-0.7-1.3-0.7h-1.2c-0.3,0-0.6,0-0.9-0.1c-0.6,0.3-0.8,0.6-0.8,1c0,0.6,0.7,1,1.9,1
	S87,261.1,87,260.5z M86,255.8c0-0.7-0.6-1.3-1.4-1.3s-1.3,0.6-1.3,1.4c0,0.7,0.6,1.3,1.3,1.3C85.4,257.2,86,256.6,86,255.8
	L86,255.8L86,255.8z"/>
<path class="st9" d="M92.1,254.6h-2.7v-0.8h3.7v5.8h-1V254.6z M91.7,251.8c0-0.4,0.4-0.8,0.8-0.8s0.8,0.4,0.8,0.8s-0.4,0.8-0.8,0.8
	S91.7,252.3,91.7,251.8z"/>
<path class="st9" d="M98,257.4v-2.8h-1.6v-0.7l1.7-0.1l0.1-1.9H99v1.9h2.9v0.8H99v2.8c0,1,0.3,1.6,1.5,1.6c0.5,0,0.9-0.1,1.4-0.3
	l0.2,0.7c-0.6,0.2-1.2,0.4-1.8,0.4C98.6,259.8,98,258.8,98,257.4z"/>
<path class="st9" d="M103.5,256.8c0.1-1.6,1.5-2.8,3-2.7s2.8,1.5,2.7,3c-0.1,1.5-1.3,2.7-2.9,2.7s-2.9-1.3-2.9-2.8
	C103.5,256.9,103.5,256.8,103.5,256.8z M108.2,256.8c0-1.3-0.8-2.2-1.9-2.2s-1.9,0.9-1.9,2.2c0,1.3,0.7,2.2,1.9,2.2
	S108.2,258.1,108.2,256.8z"/>
<path class="st9" d="M110.8,258.9l0.4-0.7c0.7,0.5,1.6,0.8,2.5,0.8c1,0,1.5-0.4,1.5-0.9s-0.2-0.8-1.8-1.1s-2.3-0.8-2.3-1.7
	s0.8-1.7,2.4-1.7c0.8,0,1.7,0.3,2.3,0.8l-0.5,0.6c-0.6-0.4-1.3-0.6-2-0.6c-1,0-1.3,0.4-1.3,0.8s0.5,0.7,1.7,1
	c1.9,0.4,2.4,0.9,2.4,1.8s-0.9,1.7-2.6,1.7C112.6,259.8,111.6,259.5,110.8,258.9z"/>
<path class="st9" d="M129.4,260v-1.1l0,0c-0.5,0.5-1.2,0.9-1.9,0.9c-1.5,0-2.5-1.1-2.5-3c-0.1-1.5,1-2.9,2.5-3.1h0.1
	c0.7,0,1.3,0.3,1.8,0.8l0,0l0.1-0.6h0.8v8.3h-1L129.4,260z M129.4,258.1v-2.9c-0.4-0.4-0.9-0.7-1.5-0.7c-1.1,0.1-1.9,1.1-1.8,2.2
	c0,0,0,0,0,0.1c0,1.4,0.6,2.2,1.7,2.2C128.4,258.9,129,258.6,129.4,258.1L129.4,258.1z"/>
<path class="st9" d="M132.5,257.5v-3.6h1v3.5c0,1.1,0.4,1.6,1.3,1.6c0.7,0,1.4-0.4,1.8-1.1v-4h1v5.8h-0.8l-0.1-1l0,0
	c-0.5,0.7-1.3,1.1-2.2,1.2C133.1,259.8,132.5,259,132.5,257.5z"/>
<path class="st9" d="M139.6,256.7c-0.1-1.6,1.2-3,2.8-3c0.1,0,0.1,0,0.2,0c1.4-0.1,2.6,1,2.7,2.3c0,0.1,0,0.3,0,0.4
	c0,0.2,0,0.4,0,0.6h-4.9v-0.8h4.3l-0.2,0.3c0-1.4-0.7-2.1-1.8-2.1s-2,1-2,2.1c0,0.1,0,0.1,0,0.2c-0.1,1.2,0.8,2.2,1.9,2.3
	c0.1,0,0.2,0,0.3,0c0.6,0,1.3-0.2,1.8-0.5l0.4,0.6c-0.7,0.5-1.4,0.7-2.2,0.7c-1.7,0.1-3.1-1.1-3.2-2.7
	C139.6,256.9,139.6,256.8,139.6,256.7z"/>
<path class="st9" d="M154.3,251.1h1v2.3l-0.1,1.4l0,0c0.5-0.7,1.3-1.1,2.2-1.1c1.4,0,2,0.8,2,2.4v3.6h-1v-3.5c0-1.1-0.4-1.6-1.3-1.6
	c-0.7,0-1.2,0.4-1.8,1v4.1h-1L154.3,251.1z"/>
<path class="st9" d="M161.2,256.7c-0.1-1.6,1.2-3,2.8-3c0.1,0,0.1,0,0.2,0c1.4-0.1,2.6,1,2.7,2.4c0,0.1,0,0.2,0,0.4
	c0,0.2,0,0.4-0.1,0.6h-4.9v-0.8h4.3l-0.2,0.3c0-1.4-0.7-2.1-1.8-2.1s-2,1-2,2.1c0,0.1,0,0.1,0,0.2c-0.1,1.2,0.8,2.2,1.9,2.3
	c0.1,0,0.2,0,0.3,0c0.6,0,1.3-0.2,1.8-0.5l0.4,0.6c-0.7,0.5-1.5,0.7-2.3,0.7c-1.7,0.1-3.1-1.2-3.2-2.8
	C161.2,256.9,161.2,256.8,161.2,256.7z"/>
<path class="st9" d="M168.2,253.8h0.8l0.1,0.8l0,0c0.2-0.5,0.7-0.9,1.3-0.9s0.9,0.3,1.1,1c0.3-0.6,0.7-1,1.4-1
	c0.8,0,1.3,0.6,1.3,1.8v4.2h-1v-4.1c0-0.7-0.2-1-0.6-1s-0.6,0.3-0.9,0.9v4.2h-0.9v-4.1c0-0.7-0.2-1-0.6-1s-0.7,0.3-1,0.9v4.2h-1
	L168.2,253.8z"/>
<path class="st9" d="M175.5,256.8c0.1-1.6,1.5-2.8,3-2.7c1.6,0.1,2.8,1.5,2.7,3c-0.1,1.5-1.3,2.7-2.9,2.7c-1.6,0-2.9-1.3-2.9-2.8
	C175.5,256.9,175.5,256.8,175.5,256.8z M180.2,256.8c0-1.3-0.7-2.2-1.9-2.2s-1.9,0.9-1.9,2.2c0,1.3,0.8,2.2,1.9,2.2
	S180.2,258.1,180.2,256.8L180.2,256.8z"/>
<path class="st9" d="M182.8,258.9l0.4-0.7c0.7,0.5,1.6,0.8,2.5,0.8c1,0,1.5-0.4,1.5-0.9s-0.2-0.8-1.8-1.1s-2.3-0.8-2.3-1.7
	s0.8-1.7,2.4-1.7c0.8,0,1.7,0.3,2.4,0.8l-0.5,0.6c-0.6-0.4-1.3-0.6-1.9-0.6c-1,0-1.4,0.4-1.4,0.8s0.5,0.7,1.7,1
	c1.9,0.4,2.4,0.9,2.4,1.8s-0.9,1.7-2.6,1.7C184.6,259.8,183.6,259.5,182.8,258.9z"/>
<path class="st9" d="M197.2,256.7c-0.1-1.6,1.2-3,2.8-3c0.1,0,0.1,0,0.2,0c1.4-0.1,2.6,1,2.7,2.4c0,0.1,0,0.3,0,0.4
	c0,0.2,0,0.4-0.1,0.6h-4.9v-0.8h4.3l-0.2,0.3c0-1.4-0.7-2.1-1.8-2.1s-2,1-2,2.1c0,0.1,0,0.1,0,0.2c-0.1,1.2,0.8,2.2,1.9,2.3
	c0.1,0,0.2,0,0.3,0c0.6,0,1.3-0.2,1.8-0.5l0.4,0.6c-0.7,0.5-1.5,0.7-2.3,0.7c-1.7,0.1-3.1-1.1-3.2-2.8
	C197.2,256.9,197.2,256.8,197.2,256.7z"/>
<path class="st9" d="M204.7,253.8h0.8l0.1,1h0.1c0.5-0.7,1.3-1.1,2.2-1.1c1.4,0,2,0.8,2,2.4v3.6h-1v-3.5c0-1.1-0.4-1.6-1.3-1.6
	c-0.7,0-1.2,0.4-1.8,1v4.1h-1L204.7,253.8z"/>
<path class="st9" d="M211.3,253.8h1l1.4,3.3c0.2,0.6,0.4,1.2,0.6,1.7h0.1c0.2-0.6,0.4-1.1,0.6-1.7l1.3-3.3h1l-2.4,5.8h-1.1
	L211.3,253.8z"/>
<path class="st9" d="M221.7,254.6H219v-0.8h3.7v5.8h-1V254.6z M221.3,251.8c0-0.4,0.3-0.8,0.8-0.8c0.4,0,0.8,0.3,0.8,0.8
	c0,0.4-0.3,0.8-0.8,0.8l0,0C221.7,252.6,221.4,252.3,221.3,251.8C221.3,251.9,221.3,251.9,221.3,251.8L221.3,251.8z"/>
<path class="st9" d="M226.1,258.1c0-1.3,1.2-2,4.2-2.2c0-0.8-0.5-1.4-1.3-1.5c-0.1,0-0.2,0-0.2,0c-0.7,0-1.4,0.3-2,0.7l-0.4-0.7
	c0.8-0.5,1.7-0.8,2.6-0.8c1.2-0.1,2.3,0.8,2.4,1.9c0,0.2,0,0.3,0,0.5v3.6h-0.8l-0.1-0.8l0,0c-0.6,0.5-1.4,0.9-2.3,0.9
	c-1,0.2-1.9-0.5-2-1.4C226.1,258.3,226.1,258.2,226.1,258.1z M230.3,258.1v-1.5c-2.5,0.2-3.2,0.7-3.2,1.5s0.6,0.9,1.3,0.9
	S229.8,258.7,230.3,258.1L230.3,258.1z"/>
<path class="st9" d="M233.1,256.8c-0.1-1.5,1-2.9,2.5-3.1h0.1c0.7,0,1.3,0.3,1.8,0.8l0,0v-1.1v-2.2h1v8.5h-0.8l-0.1-0.8l0,0
	c-0.5,0.5-1.2,0.9-1.9,0.9C234.1,259.8,233.1,258.7,233.1,256.8z M237.4,258.1v-2.9c-0.4-0.4-0.9-0.7-1.5-0.7
	c-1.1,0.1-1.9,1-1.8,2.2c0,0,0,0,0,0.1c0,1.4,0.6,2.2,1.7,2.2C236.4,258.9,237,258.6,237.4,258.1z"/>
<path class="st9" d="M240.3,256.8c0.1-1.6,1.5-2.8,3-2.7c1.6,0.1,2.8,1.5,2.7,3c-0.1,1.5-1.3,2.7-2.9,2.7c-1.6,0-2.9-1.3-2.9-2.8
	C240.3,256.9,240.3,256.8,240.3,256.8z M245,256.8c0-1.3-0.7-2.2-1.9-2.2s-1.9,0.9-1.9,2.2c0,1.3,0.7,2.2,1.9,2.2
	S245,258.1,245,256.8z"/>
<path class="st9" d="M254.9,258.1c0-1.3,1.2-2,4.2-2.2c0-0.8-0.5-1.4-1.3-1.5c-0.1,0-0.2,0-0.2,0c-0.7,0-1.4,0.3-2,0.7l-0.4-0.7
	c0.8-0.5,1.7-0.8,2.6-0.8c1.2-0.1,2.3,0.8,2.4,1.9c0,0.2,0,0.3,0,0.5v3.6h-0.8l-0.1-0.8l0,0c-0.6,0.5-1.5,0.9-2.3,0.9
	c-1,0.2-1.9-0.5-2-1.5C254.9,258.3,254.9,258.2,254.9,258.1z M259.1,258.1v-1.5c-2.5,0.2-3.2,0.7-3.2,1.5s0.6,0.9,1.3,0.9
	C257.9,259,258.6,258.7,259.1,258.1L259.1,258.1z"/>
<path class="st9" d="M269.2,258.9l0.5-0.7c0.7,0.5,1.6,0.8,2.5,0.8c1,0,1.5-0.4,1.5-0.9s-0.2-0.8-1.8-1.1s-2.3-0.8-2.3-1.7
	s0.8-1.7,2.4-1.7c0.8,0,1.7,0.3,2.4,0.8l-0.5,0.6c-0.6-0.4-1.3-0.6-2-0.6c-1,0-1.3,0.4-1.3,0.8s0.5,0.7,1.7,1
	c1.9,0.4,2.4,0.9,2.4,1.8s-0.9,1.7-2.6,1.7C271,259.8,270,259.5,269.2,258.9z"/>
<path class="st9" d="M276.5,257.5v-3.6h1v3.5c0,1.1,0.4,1.6,1.4,1.6c0.7,0,1.4-0.4,1.8-1.1v-4h1v5.8h-0.8l-0.1-1l0,0
	c-0.5,0.7-1.3,1.1-2.2,1.2C277.1,259.8,276.5,259,276.5,257.5z"/>
<path class="st9" d="M111.1,268.2h0.8l0.1,1l0,0c0.5-0.7,1.3-1.1,2.2-1.1c1.4,0,2,0.8,2,2.4v3.6h-1v-3.5c0-1.1-0.4-1.6-1.3-1.6
	c-0.7,0-1.4,0.4-1.8,1v4.1h-1L111.1,268.2z"/>
<path class="st9" d="M118.1,271.9v-3.6h1v3.5c0,1.1,0.4,1.6,1.3,1.6c0.7,0,1.4-0.4,1.8-1.1v-4h1v5.8h-0.8l-0.1-1l0,0
	c-0.5,0.7-1.3,1.1-2.2,1.2C118.7,274.2,118.1,273.4,118.1,271.9z M119.9,266.8l1.7-2l0.7,0.7l-1.9,1.8L119.9,266.8z"/>
<path class="st9" d="M125,268.2h0.8l0.1,0.8l0,0c0.2-0.5,0.7-0.9,1.3-0.9c0.6,0,0.9,0.3,1.1,1c0.3-0.6,0.7-1,1.4-1s1.3,0.6,1.3,1.8
	v4.2h-1V270c0-0.7-0.2-1-0.6-1s-0.6,0.3-0.9,0.9v4.2h-0.9V270c0-0.7-0.2-1-0.6-1s-0.7,0.3-1,0.9v4.2h-1V268.2z"/>
<path class="st9" d="M132.4,271.1c-0.1-1.6,1.2-3,2.8-3c0.1,0,0.1,0,0.2,0c1.4-0.1,2.6,1,2.7,2.3c0,0.1,0,0.3,0,0.4
	c0,0.2,0,0.4-0.1,0.6h-5v-0.8h4.4l-0.3,0.3c0-1.4-0.7-2.1-1.8-2.1s-2,1-2,2.1c0,0.1,0,0.1,0,0.2c-0.1,1.2,0.8,2.2,1.9,2.3
	c0.1,0,0.2,0,0.3,0c0.6,0,1.2-0.2,1.8-0.5l0.4,0.6c-0.7,0.5-1.4,0.7-2.2,0.7c-1.7,0.1-3.1-1.2-3.1-2.9
	C132.4,271.3,132.4,271.2,132.4,271.1z"/>
<path class="st9" d="M140.5,268.2h0.8l0.1,1.4l0,0c0.5-0.9,1.5-1.5,2.6-1.5c0.4,0,0.8,0.1,1.1,0.2l-0.2,0.9
	c-1.4-0.6-2.9,0.1-3.5,1.4l0,0v3.4h-1L140.5,268.2z"/>
<path class="st9" d="M146.7,271.1c0.1-1.6,1.5-2.8,3-2.7c1.6,0.1,2.8,1.5,2.7,3s-1.3,2.7-2.9,2.7c-1.6,0-2.9-1.3-2.9-2.8
	C146.7,271.3,146.7,271.2,146.7,271.1z M151.4,271.1c0-1.3-0.7-2.2-1.9-2.2s-1.9,0.9-1.9,2.2s0.7,2.2,1.9,2.2
	S151.4,272.5,151.4,271.1z"/>
<path class="st9" d="M161.1,271.1c-0.1-1.5,1-2.9,2.5-3.1h0.1c0.7,0,1.3,0.3,1.8,0.8l0,0v-1.1v-2.2h1v8.5h-0.8l-0.1-0.8l0,0
	c-0.5,0.5-1.2,0.9-1.9,0.9C162.1,274.2,161.1,273.1,161.1,271.1z M165.4,272.5v-2.9c-0.4-0.4-0.9-0.7-1.5-0.7
	c-1.1,0.1-1.9,1.1-1.8,2.2c0,0,0,0,0,0.1c0,1.4,0.6,2.2,1.7,2.2C164.4,273.3,165,273,165.4,272.5L165.4,272.5z"/>
<path class="st9" d="M168.4,271.1c-0.1-1.6,1.2-3,2.8-3c0.1,0,0.1,0,0.2,0c1.4-0.1,2.6,1,2.7,2.3c0,0.1,0,0.3,0,0.4
	c0,0.2,0,0.4-0.1,0.6h-5v-0.8h4.3l-0.2,0.3c0-1.4-0.7-2.1-1.8-2.1s-2,1-2,2.1c0,0.1,0,0.1,0,0.2c-0.1,1.2,0.8,2.2,1.9,2.3
	c0.1,0,0.2,0,0.3,0c0.6,0,1.3-0.2,1.8-0.5l0.4,0.6c-0.7,0.5-1.5,0.7-2.3,0.7c-1.7,0.1-3.1-1.2-3.1-2.9
	C168.4,271.3,168.4,271.2,168.4,271.1z"/>
<path class="st9" d="M184.4,271.8V269h-1.7v-0.7l1.7-0.1l0.1-1.9h0.8v1.9h2.9v0.8h-2.9v2.8c0,1,0.4,1.6,1.5,1.6
	c0.5,0,0.9-0.1,1.4-0.3l0.2,0.7c-0.6,0.2-1.2,0.3-1.8,0.4C185,274.2,184.4,273.2,184.4,271.8z"/>
<path class="st9" d="M190,271.1c-0.1-1.6,1.2-3,2.8-3c0.1,0,0.1,0,0.2,0c1.4-0.1,2.6,1,2.7,2.3c0,0.1,0,0.3,0,0.4c0,0.2,0,0.4,0,0.6
	h-4.9v-0.8h4.3l-0.2,0.3c0-1.4-0.7-2.1-1.8-2.1s-2,1-2,2.1c0,0.1,0,0.1,0,0.2c-0.1,1.2,0.8,2.2,1.9,2.3c0.1,0,0.2,0,0.3,0
	c0.6,0,1.3-0.2,1.8-0.5l0.4,0.6c-0.7,0.5-1.5,0.7-2.3,0.7c-1.7,0.1-3.1-1.2-3.1-2.8C190,271.3,190,271.2,190,271.1z"/>
<path class="st9" d="M199.3,272.1v-5.8h-2.1v-0.8h3.1v6.6c-0.1,0.6,0.3,1.1,0.9,1.2c0.1,0,0.2,0,0.3,0c0.4,0,0.8-0.1,1.1-0.3
	l0.3,0.7c-0.5,0.2-1,0.4-1.6,0.4C200,274.2,199.3,273.5,199.3,272.1z"/>
<path class="st9" d="M204.4,271.1c-0.1-1.6,1.2-3,2.8-3c0.1,0,0.1,0,0.2,0c1.4-0.1,2.6,1,2.7,2.4c0,0.1,0,0.2,0,0.4
	c0,0.2,0,0.4-0.1,0.6h-5v-0.8h4.3l-0.2,0.3c0-1.4-0.7-2.1-1.8-2.1s-2,1-2,2.1c0,0.1,0,0.1,0,0.2c-0.1,1.2,0.8,2.2,1.9,2.3
	c0.1,0,0.2,0,0.3,0c0.6,0,1.3-0.2,1.8-0.5l0.4,0.6c-0.7,0.5-1.5,0.7-2.3,0.7c-1.7,0.1-3.1-1.2-3.1-2.9
	C204.4,271.3,204.4,271.2,204.4,271.1z M206.6,266.8l1.7-2l0.7,0.7l-1.9,1.8L206.6,266.8z"/>
<path class="st9" d="M212,268.3l1.7-0.1h3.4v0.8H212V268.3z M213.7,267.7c-0.1-1.2,0.7-2.2,1.9-2.4c0.2,0,0.3,0,0.5,0
	c0.6,0,1.1,0.1,1.7,0.3l-0.2,0.7c-0.4-0.2-0.9-0.3-1.4-0.3c-1,0-1.5,0.6-1.5,1.5v6.4h-1V267.7z"/>
<path class="st9" d="M218.7,271.1c0.1-1.6,1.5-2.8,3-2.7c1.6,0.1,2.8,1.5,2.7,3s-1.4,2.7-2.9,2.7c-1.6,0-2.9-1.3-2.9-2.8
	C218.7,271.3,218.7,271.2,218.7,271.1z M223.4,271.1c0-1.3-0.7-2.2-1.9-2.2s-1.9,0.9-1.9,2.2s0.8,2.2,1.9,2.2
	S223.4,272.5,223.4,271.1z"/>
<path class="st9" d="M226.3,268.2h0.8l0.1,1h0.1c0.5-0.7,1.3-1.1,2.2-1.1c1.4,0,2,0.8,2,2.4v3.6h-1v-3.5c0-1.1-0.4-1.6-1.3-1.6
	c-0.7,0-1.4,0.4-1.8,1v4.1h-1L226.3,268.2z"/>
<path class="st9" d="M233.1,271.1c0.1-1.6,1.5-2.8,3-2.7c1.6,0.1,2.8,1.5,2.7,3s-1.4,2.7-2.9,2.7c-1.6,0-2.9-1.3-2.9-2.8
	C233.1,271.3,233.1,271.2,233.1,271.1z M237.8,271.1c0-1.3-0.7-2.2-1.9-2.2s-1.9,0.9-1.9,2.2s0.8,2.2,1.9,2.2
	S237.8,272.5,237.8,271.1z"/>
<path class="st10" d="M72.1,386.8h205.7c5,0,9,4,9,9v26c0,5-4,9-9,9H72.1c-5,0-9-4-9-9v-26C63.1,390.8,67.2,386.8,72.1,386.8z"/>
<path class="st4" d="M145.8,403h1.3l1.5,5c0.3,1.1,0.6,2,0.9,3.1h0.1c0.3-1.1,0.6-2,0.9-3.1l1.5-5h1.2l-2.9,9.3h-1.4L145.8,403z"/>
<path class="st4" d="M154.9,410.5c0-1.5,1.4-2.3,5-2.6c0.1-0.9-0.6-1.7-1.5-1.7c-0.1,0-0.2,0-0.3,0c-0.9,0.1-1.7,0.3-2.4,0.8
	l-0.5-0.8c0.9-0.6,2-1,3.1-1c1.4-0.1,2.6,0.9,2.8,2.3c0,0.2,0,0.3,0,0.5v4.2h-1l-0.1-0.9l0,0c-0.8,0.6-1.7,1-2.7,1.1
	c-1.1,0.1-2.2-0.7-2.3-1.8C154.9,410.5,154.9,410.5,154.9,410.5z M159.9,410.5v-1.8c-3,0.2-3.8,0.8-3.8,1.7s0.7,1.1,1.5,1.1
	C158.4,411.4,159.2,411.1,159.9,410.5L159.9,410.5z"/>
<path class="st4" d="M165.7,410v-6.8h-2.4v-1h3.6v7.8c-0.1,0.7,0.4,1.3,1.1,1.4c0.1,0,0.2,0,0.3,0c0.4,0,0.9-0.1,1.3-0.3l0.3,0.9
	c-0.6,0.3-1.2,0.4-1.8,0.4C166.5,412.4,165.7,411.6,165.7,410z"/>
<path class="st4" d="M175.2,406.3H172v-1h4.4v6.9h-1.2V406.3z M174.7,403c0-0.5,0.4-1,0.9-1s1,0.4,1,0.9s-0.4,1-0.9,1l0,0
	C175.2,404,174.7,403.6,174.7,403C174.7,403.1,174.7,403,174.7,403L174.7,403z"/>
<path class="st4" d="M180.1,408.8c0-2.2,1.5-3.6,3.1-3.6c0.8,0,1.5,0.3,2.1,0.9l0,0l-0.1-1.3v-2.6h1.2v10.1h-1l-0.1-0.9l0,0
	c-0.6,0.6-1.4,1-2.3,1.1C181.2,412.4,180.1,411.1,180.1,408.8z M185.2,410.4V407c-0.5-0.5-1.1-0.8-1.8-0.8c-1.3,0.1-2.3,1.2-2.2,2.5
	v0.1c0,1.6,0.8,2.6,2,2.6C184,411.4,184.7,411,185.2,410.4L185.2,410.4z"/>
<path class="st4" d="M188.8,410.5c0-1.5,1.4-2.3,5-2.6c0.1-0.9-0.6-1.7-1.5-1.7c-0.1,0-0.2,0-0.3,0c-0.9,0.1-1.7,0.3-2.4,0.8
	l-0.5-0.8c0.9-0.6,2-1,3.1-1c1.4-0.1,2.7,0.9,2.8,2.3c0,0.2,0,0.3,0,0.5v4.2h-1l-0.1-0.9l0,0c-0.8,0.6-1.7,1-2.7,1.1
	c-1.1,0.2-2.2-0.6-2.3-1.8C188.8,410.6,188.8,410.5,188.8,410.5z M193.8,410.5v-1.8c-2.9,0.2-3.8,0.8-3.8,1.7s0.7,1.1,1.5,1.1
	C192.4,411.4,193.2,411.1,193.8,410.5L193.8,410.5z"/>
<path class="st4" d="M198.2,405.4h1l0.1,1.6l0,0c0.6-1.1,1.8-1.8,3.1-1.8c0.5,0,0.9,0.1,1.4,0.3l-0.3,1c-0.4-0.1-0.8-0.2-1.3-0.2
	c-1.3,0.1-2.4,0.8-2.8,2v4h-1.2V405.4z"/>
<path class="st9" d="M114.5,498.8c0-2.5,1.5-4.1,3.5-4.1c0.8,0,1.6,0.4,2.2,1l-0.6,0.6c-0.4-0.4-1-0.7-1.6-0.7
	c-1.5,0-2.5,1.2-2.5,3.2s1,3.2,2.5,3.2c0.7,0,1.3-0.3,1.8-0.9l0.6,0.6c-0.6,0.7-1.5,1.2-2.4,1.1C116,502.8,114.5,501.3,114.5,498.8z
	"/>
<path class="st9" d="M122.7,496.9h0.8l0.1,1.4l0,0c0.5-0.9,1.5-1.5,2.6-1.5c0.4,0,0.8,0.1,1.2,0.2l-0.2,0.9
	c-0.3-0.1-0.7-0.2-1.1-0.2c-1.1,0-2,0.7-2.4,1.7v3.4h-1V496.9z"/>
<path class="st9" d="M129,499.8c0-1.6,1.2-3,2.8-3c0.1,0,0.1,0,0.2,0c1.4-0.1,2.6,1,2.7,2.3c0,0.1,0,0.3,0,0.4c0,0.2,0,0.4-0.1,0.6
	h-4.9v-0.8h4.3l-0.2,0.3c0-1.4-0.7-2.1-1.8-2.1s-2,1-2,2.1c0,0.1,0,0.1,0,0.2c-0.1,1.2,0.8,2.2,1.9,2.3c0.1,0,0.2,0,0.3,0
	c0.6,0,1.3-0.2,1.8-0.5l0.4,0.6c-0.7,0.5-1.5,0.7-2.3,0.7c-1.7,0.1-3.1-1.2-3.2-2.8C129,499.9,129,499.9,129,499.8z"/>
<path class="st9" d="M136.3,501.2c0-1.3,1.2-1.9,4.2-2.2c0-0.8-0.5-1.4-1.3-1.5c-0.1,0-0.2,0-0.3,0c-0.7,0-1.4,0.3-2,0.7l-0.4-0.7
	c0.8-0.5,1.7-0.8,2.6-0.8c1.2-0.1,2.2,0.7,2.4,1.9c0,0.2,0,0.3,0,0.5v3.6h-0.8l-0.1-0.8l0,0c-0.6,0.5-1.4,0.9-2.3,0.9
	c-1,0.2-1.9-0.5-2-1.4C136.3,501.3,136.3,501.2,136.3,501.2z M140.6,501.2v-1.5c-2.5,0.2-3.3,0.7-3.3,1.5s0.6,0.9,1.3,0.9
	C139.3,502,140,501.7,140.6,501.2L140.6,501.2z"/>
<path class="st9" d="M144.3,496.9h0.8l0.1,1.4l0,0c0.5-0.9,1.5-1.5,2.6-1.5c0.4,0,0.8,0.1,1.2,0.3l-0.2,0.9
	c-0.3-0.1-0.7-0.2-1.1-0.2c-1.1,0-2,0.7-2.4,1.7v3.4h-1L144.3,496.9z"/>
<path class="st9" d="M158.1,494.8h2.2c1.6,0,2.7,0.5,2.7,1.9c0,0.8-0.6,1.6-1.4,1.7l0,0c1,0,1.8,0.9,1.8,1.9l0,0
	c0,1.5-1.2,2.3-3,2.3H158L158.1,494.8z M160.2,498.1c1.3,0,1.9-0.4,1.9-1.3s-0.6-1.2-1.8-1.2h-1.1v2.5H160.2z M160.4,501.9
	c1.3,0,2.1-0.4,2.1-1.5s-0.7-1.4-2.1-1.4h-1.3v2.9H160.4z"/>
<path class="st9" d="M167.9,497.7h-2.7v-0.8h3.7v5.8h-1V497.7z M167.5,494.9c0-0.4,0.4-0.8,0.9-0.7c0.4,0,0.7,0.3,0.7,0.7
	c0,0.4-0.4,0.8-0.9,0.7C167.9,495.5,167.6,495.2,167.5,494.9z"/>
<path class="st9" d="M179.4,499.8c0-1.6,1.2-3,2.8-3c0.1,0,0.1,0,0.2,0c1.4-0.1,2.6,0.9,2.7,2.3c0,0.1,0,0.3,0,0.4
	c0,0.2,0,0.4,0,0.6h-5v-0.8h4.3l-0.2,0.3c0-1.4-0.7-2.1-1.8-2.1s-2,1-2,2.1c0,0.1,0,0.1,0,0.2c-0.1,1.2,0.8,2.2,1.9,2.3
	c0.1,0,0.2,0,0.3,0c0.6,0,1.2-0.2,1.8-0.5l0.4,0.6c-0.7,0.5-1.4,0.7-2.2,0.7c-1.7,0.1-3.1-1.2-3.1-2.9
	C179.4,499.9,179.4,499.8,179.4,499.8z"/>
<path class="st9" d="M186.9,496.9h0.8l0.1,1l0,0c0.5-0.7,1.3-1.1,2.2-1.1c1.4,0,2,0.8,2,2.4v3.6h-1v-3.5c0-1.1-0.4-1.6-1.3-1.6
	c-0.7,0-1.4,0.4-1.8,1v4.1h-1V496.9z"/>
<path class="st9" d="M201.8,494.8h1v7h3.9v0.9h-4.9V494.8z"/>
<path class="st9" d="M211.1,497.7h-2.7v-0.8h3.7v5.8h-1V497.7z M210.8,495.4l1.7-2l0.7,0.7l-1.9,1.8L210.8,495.4z"/>
<path class="st9" d="M215.7,496.9h0.8l0.1,1h0.1c0.5-0.7,1.3-1.1,2.2-1.1c1.4,0,2,0.8,2,2.4v3.6h-1v-3.5c0-1.1-0.4-1.6-1.3-1.6
	c-0.7,0-1.4,0.4-1.8,1v4.1h-1L215.7,496.9z"/>
<path class="st9" d="M222.6,499.8c0-1.6,1.2-3,2.9-3h0.1c1.4-0.1,2.6,0.9,2.7,2.3c0,0.1,0,0.3,0,0.4c0,0.2,0,0.4,0,0.6h-4.9v-0.8
	h4.4l-0.3,0.3c0-1.4-0.7-2.1-1.8-2.1s-2,0.9-2,2c0,0.1,0,0.2,0,0.3c-0.1,1.2,0.8,2.2,1.9,2.3c0.1,0,0.2,0,0.3,0
	c0.6,0,1.2-0.2,1.8-0.5l0.4,0.6c-0.7,0.5-1.4,0.7-2.2,0.7c-1.7,0.1-3.1-1.1-3.2-2.8C222.6,500,222.6,499.9,222.6,499.8z"/>
<path class="st9" d="M229.9,501.2c0-1.3,1.2-1.9,4.2-2.2c0.1-0.8-0.5-1.4-1.3-1.5c-0.1,0-0.2,0-0.3,0c-0.7,0-1.4,0.3-2,0.7l-0.4-0.7
	c0.8-0.5,1.7-0.8,2.6-0.8c1.2-0.1,2.3,0.7,2.4,1.9c0,0.2,0,0.3,0,0.5v3.6h-0.8l-0.1-0.8l0,0c-0.6,0.5-1.4,0.9-2.3,0.9
	c-1,0.2-1.9-0.5-2-1.4C229.9,501.3,229.9,501.2,229.9,501.2z M234.1,501.2v-1.5c-2.5,0.2-3.2,0.7-3.2,1.5s0.6,0.9,1.3,0.9
	C232.9,502,233.6,501.7,234.1,501.2L234.1,501.2z"/>
<path class="st9" d="M123.4,470.2c0-2.5,1.5-4.1,3.5-4.1c0.8,0,1.6,0.4,2.2,1l-0.6,0.6c-0.4-0.5-1-0.7-1.5-0.7
	c-1.5,0-2.5,1.2-2.5,3.2s1,3.2,2.5,3.2c0.7,0,1.3-0.3,1.8-0.9l0.6,0.6c-0.6,0.7-1.5,1.2-2.4,1.1
	C124.9,474.3,123.4,472.8,123.4,470.2z"/>
<path class="st9" d="M131.6,468.3h0.8l0.1,1.4l0,0c0.5-0.9,1.5-1.5,2.6-1.5c0.4,0,0.8,0.1,1.1,0.2l-0.2,0.9
	c-0.3-0.1-0.7-0.2-1.1-0.2c-1.1,0-2,0.7-2.4,1.7v3.4h-1L131.6,468.3L131.6,468.3z"/>
<path class="st9" d="M137.9,471.2c-0.1-1.6,1.2-3,2.8-3c0.1,0,0.1,0,0.2,0c1.4-0.1,2.6,0.9,2.7,2.3c0,0.1,0,0.3,0,0.4
	c0,0.2,0,0.4,0,0.6h-4.9v-0.8h4.3l-0.2,0.3c0-1.4-0.7-2.1-1.8-2.1s-2,0.9-2,2c0,0.1,0,0.2,0,0.3c-0.1,1.2,0.8,2.2,1.9,2.3
	c0.1,0,0.2,0,0.4,0c0.6,0,1.3-0.2,1.8-0.5l0.4,0.6c-0.7,0.5-1.5,0.7-2.3,0.7c-1.7,0.1-3.1-1.1-3.2-2.8
	C137.9,471.4,137.9,471.3,137.9,471.2z"/>
<path class="st9" d="M145.2,472.6c0-1.3,1.2-1.9,4.2-2.2c0-0.8-0.6-1.4-1.4-1.4c-0.1,0-0.1,0-0.2,0c-0.7,0.1-1.4,0.3-2,0.7l-0.4-0.7
	c0.8-0.5,1.7-0.8,2.6-0.8c1.2-0.1,2.3,0.7,2.4,1.9c0,0.2,0,0.3,0,0.5v3.6h-0.8l-0.1-0.8l0,0c-0.6,0.5-1.4,0.9-2.3,0.9
	c-1,0.2-1.9-0.5-2-1.5C145.2,472.8,145.2,472.7,145.2,472.6z M149.4,472.6v-1.5c-2.5,0.2-3.2,0.7-3.2,1.5s0.6,0.9,1.3,0.9
	C148.2,473.4,148.9,473.1,149.4,472.6L149.4,472.6z"/>
<path class="st9" d="M153.2,468.3h0.8l0.1,1.4l0,0c0.5-0.9,1.5-1.5,2.6-1.5c0.4,0,0.8,0.1,1.1,0.2l-0.2,0.9
	c-0.3-0.1-0.7-0.2-1.1-0.2c-1.1,0-2,0.7-2.4,1.7v3.4h-1L153.2,468.3z"/>
<path class="st9" d="M166.8,471.2c0-1.7,1.3-3,2.9-3.1c0.1,0,0.2,0,0.3,0c0.8,0,1.6,0.3,2.1,0.9l-0.5,0.6c-0.4-0.4-1-0.6-1.6-0.7
	c-1.2,0-2.2,1-2.2,2.2s1,2.2,2.2,2.2l0,0c0.7,0,1.3-0.3,1.8-0.7l0.4,0.6c-0.6,0.6-1.5,0.9-2.3,0.9c-1.6,0.1-3-1-3.2-2.7
	C166.8,471.5,166.8,471.3,166.8,471.2z"/>
<path class="st9" d="M174,471.9v-3.6h1v3.5c0,1.1,0.4,1.6,1.4,1.6c0.7,0,1.4-0.4,1.8-1.1v-4h1v5.8h-0.8l-0.1-1l0,0
	c-0.5,0.7-1.3,1.1-2.2,1.2C174.6,474.3,174,473.4,174,471.9z"/>
<path class="st9" d="M181.1,471.2c-0.1-1.6,1.2-3,2.8-3c0.1,0,0.1,0,0.2,0c1.4-0.1,2.6,1,2.7,2.3c0,0.1,0,0.3,0,0.4
	c0,0.2,0,0.4-0.1,0.6h-4.9v-0.8h4.3l-0.2,0.3c0-1.4-0.7-2.1-1.8-2.1s-2,1-2,2.1c0,0.1,0,0.1,0,0.2c-0.1,1.2,0.8,2.2,1.9,2.3
	c0.1,0,0.2,0,0.3,0c0.6,0,1.3-0.2,1.8-0.5l0.4,0.6c-0.7,0.5-1.5,0.7-2.3,0.7c-1.7,0.1-3.1-1.2-3.2-2.8
	C181.1,471.4,181.1,471.3,181.1,471.2z"/>
<path class="st9" d="M188.6,468.3h0.8l0.1,1h0.1c0.5-0.7,1.3-1.1,2.2-1.1c1.4,0,2,0.8,2,2.4v3.6h-1v-3.5c0-1.1-0.4-1.6-1.3-1.6
	c-0.7,0-1.2,0.4-1.8,1v4.1h-1L188.6,468.3z"/>
<path class="st9" d="M197.1,471.9v-2.8h-1.7v-0.8l1.7-0.1l0.1-1.9h0.8v1.9h2.9v0.8H198v2.8c0,1,0.4,1.6,1.5,1.6
	c0.5,0,0.9-0.1,1.4-0.3l0.2,0.7c-0.6,0.2-1.2,0.3-1.8,0.4C197.7,474.3,197.1,473.3,197.1,471.9z"/>
<path class="st9" d="M202.8,472.6c0-1.3,1.2-1.9,4.2-2.2c0-0.8-0.6-1.4-1.4-1.4c-0.1,0-0.1,0-0.2,0c-0.7,0.1-1.4,0.3-2,0.7L203,469
	c0.8-0.5,1.7-0.8,2.6-0.8c1.2-0.1,2.2,0.7,2.4,1.9c0,0.2,0,0.3,0,0.5v3.6h-0.8l-0.1-0.8l0,0c-0.6,0.5-1.4,0.9-2.3,0.9
	c-1,0.2-1.9-0.5-2-1.5C202.8,472.8,202.8,472.7,202.8,472.6z M207.1,472.6v-1.5c-2.5,0.2-3.2,0.7-3.2,1.5s0.6,0.9,1.3,0.9
	C205.8,473.4,206.5,473.1,207.1,472.6L207.1,472.6z"/>
<path class="st9" d="M217.4,466.2h2.2c1.6,0,2.7,0.5,2.7,1.9c0,0.8-0.6,1.6-1.4,1.7l0,0c1.2,0.2,1.8,0.8,1.8,1.9
	c0,1.5-1.2,2.3-3,2.3h-2.4L217.4,466.2z M219.5,469.5c1.3,0,1.9-0.4,1.9-1.3s-0.6-1.2-1.8-1.2h-1.1v2.5H219.5z M219.7,473.3
	c1.3,0,2.1-0.4,2.1-1.5s-0.7-1.4-2.1-1.4h-1.3v2.9H219.7z"/>
<path class="st9" d="M227.2,469.1h-2.7v-0.8h3.7v5.8h-1V469.1z M226.8,466.3c0-0.4,0.3-0.8,0.8-0.8c0.4,0,0.8,0.3,0.8,0.8
	c0,0.4-0.3,0.8-0.8,0.8l0,0C227.2,467.1,226.9,466.8,226.8,466.3L226.8,466.3L226.8,466.3z"/>
<circle class="st11" cx="107.4" cy="469.9" r="5.7"/>
</svg>
