<?xml version="1.0" encoding="utf-8"?>
<!-- Generator: Adobe Illustrator 26.4.1, SVG Export Plug-In . SVG Version: 6.00 Build 0)  -->
<svg version="1.1" id="Layer_1" xmlns="http://www.w3.org/2000/svg" xmlns:xlink="http://www.w3.org/1999/xlink" x="0px" y="0px"
	 viewBox="0 0 350 650" style="enable-background:new 0 0 350 650;" xml:space="preserve">
<style type="text/css">
	.st0{fill:#163A64;}
	.st1{fill:#163A63;}
	.st2{fill:#172D4A;}
	.st3{fill:#F7B01A;}
	.st4{fill:#FFFFFF;}
	.st5{fill:#3CB3C9;}
	.st6{fill:#193A62;}
	.st7{fill:#223F83;}
	.st8{fill:#CCCCCB;}
	.st9{fill:#2799C5;}
	.st10{fill:#2799C6;}
</style>
<g id="Layer_1_00000041999996273372420310000014512410044227264653_">
	<rect class="st0" width="350" height="650"/>
</g>
<path class="st0" d="M210.3,45.6h-70.7c-17,0-30.8,13.8-30.8,30.8v70.7c0.1,17,13.9,30.8,30.9,30.8h70.5c17-0.1,30.8-13.8,31-30.9
	V76.5C241.1,59.5,227.3,45.7,210.3,45.6z M184.4,133c-0.2,9.7-5.7,15.8-15.4,17.3c-5.3,0.7-10.9,0.6-16.4,0.6c-2,0-4.2-0.2-6.2,0
	c-1.1,0-1.3-0.4-1.3-1.3v-8.1c0-0.7-0.2-1.1-1.1-1.1c-7,0.2-8.4-0.2-8.6-0.4c-2.3-0.9-3.7-3.2-3.5-5.7c0-14.1,0-28.1-0.2-42
	c0-1.1,0.2-1.5,1.5-1.5h26.1c4.1-0.1,8.1,0.6,11.9,2c7,2.9,9.4,8.4,8.8,15.2c-0.4,5-2.2,7.3-6.8,10.5c1.3,0.3,2.5,0.7,3.7,1.3
	C182.2,122.6,184.6,127.2,184.4,133z M202.4,149c0,1.1-0.2,1.5-1.5,1.5h-10.5c-0.9,0-1.1-0.2-1.1-1.1c0-11.8-0.2-23.3-0.2-35.1
	c0-3.5,2.2-5.5,5.7-5.5h5.9c1.1,0,1.7,0.2,1.7,1.4c-0.2,6.6-0.2,12.8-0.2,19.3C202.3,136,202.3,142.6,202.4,149L202.4,149z
	 M223,85.3L223,85.3c0.1,2.8-2.1,5.2-4.9,5.3c-0.1,0-0.3,0-0.4,0h-15.6V98c0,2-0.9,2.9-2.9,2.9h-9c-0.9,0-1.3-0.2-1.1-1.1v-6.3
	c0-2,1.1-2.9,3.1-2.9c3.3,0,6.6,0.2,9.9,0c0-4.4-0.2-8.6,0-13.1c-0.1-2.8,2.1-5.1,4.8-5.2c0.2,0,0.3,0,0.5,0h14.3
	c0.9,0,1.3,0.2,1.3,1.1L223,85.3z"/>
<path class="st1" d="M184.4,133c-0.2,9.7-5.7,15.8-15.4,17.3c-5.3,0.7-10.9,0.6-16.4,0.6c-2,0-4.2-0.2-6.2,0c-1.1,0-1.3-0.4-1.3-1.3
	v-8.1c0-0.7-0.2-1.1-1.1-1.1c-7,0.2-8.4-0.2-8.6-0.4c-2.3-0.9-3.7-3.2-3.5-5.7c0-14.1,0-28.1-0.2-42c0-1.1,0.2-1.5,1.5-1.5h26.1
	c4.1-0.1,8.1,0.6,11.9,2c7,2.9,9.4,8.4,8.8,15.2c-0.4,5-2.2,7.3-6.8,10.5c1.3,0.3,2.5,0.7,3.7,1.3
	C182.2,122.6,184.6,127.2,184.4,133z"/>
<path class="st2" d="M176.9,119.8c-1.2-0.5-2.4-1-3.7-1.3c4.6-3.1,6.4-5.5,6.8-10.5c0.6-6.8-1.8-12.3-8.8-15.2
	c-3.8-1.4-7.9-2.1-11.9-2h-26.1c-1.3,0-1.5,0.4-1.5,1.5c0.2,14,0.2,27.9,0.2,42c-0.2,2.5,1.2,4.8,3.5,5.7c0.2,0.2,1.7,0.6,8.6,0.4
	c0.9,0,1.1,0.4,1.1,1.1v8.1c0,0.9,0.2,1.3,1.3,1.3c2-0.2,4.2,0,6.2,0c5.5,0,11,0.2,16.4-0.5c9.7-1.5,15.2-7.5,15.4-17.3
	C184.6,127.2,182.2,122.6,176.9,119.8L176.9,119.8z M144.8,113.2c0.2-3.7,0.2-7.2,0.2-10.7c0-0.7,0-1.3,0.9-1.1
	c4.6,0.2,9.4-0.2,14,0.2c1.3,0.1,2.7,0.5,3.9,1.1c2.4,1.5,2.9,3.7,2.8,6.1s-1.7,3.8-4,4.8c-3.1,1.1-6.4,0.7-9.2,0.7h-7.2
	C145.2,114.3,144.8,114.1,144.8,113.2L144.8,113.2z M170.3,136c-1.5,2.9-4.4,3.9-7.5,4.2c-5.5,0.4-11.2,0.2-16.7,0.2
	c-0.7,0-0.9-0.2-0.9-0.9v-13.6c0-0.9,0.4-1.1,1.1-0.9h8.8c3.1,0.2,7-0.6,10.6,0.5c3.9,0.9,6.2,4.8,5.3,8.7
	C170.9,134.8,170.6,135.4,170.3,136z"/>
<path class="st2" d="M202.1,90.6V98c0,2-0.9,2.9-2.9,2.9h-9c-0.9,0-1.3-0.2-1.1-1.1v-6.3c0-2,1.1-2.9,3.1-2.9
	C195.5,90.6,198.8,90.8,202.1,90.6z"/>
<path class="st2" d="M202.3,129.6c0,6.4,0,13,0.2,19.5c0,1.1-0.2,1.5-1.5,1.5h-10.5c-0.9,0-1.1-0.2-1.1-1.1
	c0-11.8-0.2-23.3-0.2-35.1c0-3.5,2.2-5.5,5.7-5.5h5.9c1.1,0,1.7,0.2,1.7,1.5C202.3,116.9,202.3,123.1,202.3,129.6L202.3,129.6z"/>
<path class="st2" d="M223,73.5v11.8c0.1,2.8-2.1,5.2-4.9,5.3c-0.1,0-0.3,0-0.4,0h-15.6c0-4.4-0.2-8.6,0-13.1
	c-0.1-2.8,2.1-5.1,4.8-5.2c0.2,0,0.3,0,0.5,0h14.3C222.6,72.4,223,72.6,223,73.5z"/>
<path class="st3" d="M223,73.5v11.8c0.1,2.8-2.1,5.2-4.9,5.3c-0.1,0-0.3,0-0.4,0h-15.6c0-4.4-0.2-8.6,0-13.1
	c-0.1-2.8,2.1-5.1,4.8-5.2c0.2,0,0.3,0,0.5,0h14.3C222.6,72.4,223,72.6,223,73.5z"/>
<path class="st4" d="M202.4,149c0,1.1-0.2,1.5-1.5,1.5h-10.5c-0.9,0-1.1-0.2-1.1-1.1c0-11.8-0.2-23.3-0.2-35.1
	c0-3.5,2.2-5.5,5.7-5.5h5.9c1.1,0,1.7,0.2,1.7,1.5c-0.2,6.6-0.2,12.8-0.2,19.3C202.2,136.1,202.3,142.6,202.4,149z"/>
<path class="st5" d="M202.1,90.6V98c0,2-0.9,2.9-2.9,2.9h-9c-0.9,0-1.3-0.2-1.1-1.1v-6.3c0-2,1.1-2.9,3.1-2.9
	C195.5,90.6,198.8,90.8,202.1,90.6z"/>
<path class="st4" d="M176.9,119.8c5.3,2.8,7.7,7.4,7.5,13.2c-0.2,9.7-5.7,15.8-15.4,17.3c-5.3,0.7-10.8,0.5-16.4,0.5
	c-2,0-4.2-0.2-6.2,0c-1.1,0-1.3-0.4-1.3-1.3v-8.1c0-0.7-0.2-1.1-1.1-1.1c-7,0.2-8.4-0.2-8.6-0.4c-2.3-0.9-3.7-3.2-3.5-5.7
	c0-14.2,0-28.1-0.2-42c0-1.1,0.2-1.5,1.5-1.5h26.1c4.1-0.1,8.1,0.6,11.9,2c7,2.9,9.4,8.4,8.8,15.2c-0.4,5-2.2,7.4-6.8,10.5
	C174.5,118.9,175.7,119.3,176.9,119.8z M171.2,132.4V132c0-0.1,0-0.2,0-0.3s0-0.1,0-0.2c0-0.1,0-0.1,0-0.1s0-0.1,0-0.2
	c0-0.1,0-0.2-0.1-0.3c0-0.1,0-0.2,0-0.2c0-0.1,0-0.2-0.1-0.2c0-0.1-0.1-0.2-0.1-0.2c-0.1-0.3-0.3-0.7-0.4-1
	c-0.1-0.2-0.1-0.3-0.2-0.5l0,0c-0.1-0.2-0.3-0.4-0.4-0.6l0,0c-0.6-0.8-1.3-1.4-2.1-1.8c-0.1-0.1-0.2-0.1-0.4-0.2l-0.3-0.2l-0.1-0.1
	l-0.3-0.1l0,0l-0.2-0.1l-0.5-0.2c-3.7-1.1-7.5-0.4-10.6-0.5h-8.8c-0.7-0.2-1.1,0-1.1,0.9v13.6c0,0.7,0.2,0.9,0.9,0.9
	c5.5,0,11.2,0.2,16.7-0.2c3.1-0.4,6-1.3,7.5-4.2c0.1-0.2,0.2-0.4,0.3-0.7s0.2-0.6,0.3-0.9c0.1-0.3,0.2-0.7,0.2-1.1
	C171.3,133,171.2,132.7,171.2,132.4z M166.4,108.8c0.1-0.7,0.1-1.3-0.1-2c0-0.3-0.1-0.6-0.2-0.8l0,0v-0.1l-0.1-0.2l-0.1-0.2
	c0,0,0-0.1-0.1-0.1l0,0c0-0.1-0.1-0.2-0.2-0.3c0-0.1-0.1-0.2-0.1-0.3c-0.2-0.3-0.4-0.5-0.6-0.8l-0.2-0.3c-0.4-0.4-0.8-0.7-1.2-0.9
	c-1.2-0.6-2.5-1-3.9-1.1c-4.6-0.4-9.4,0-14-0.2c-0.9-0.2-0.9,0.4-0.9,1.1c0,3.5,0,7-0.2,10.7c0,0.2,0,0.5,0.1,0.7l0,0
	c0,0,0,0.1,0.1,0.1c0.3,0.2,0.7,0.3,1.1,0.3h7.1c2.8,0,6.1,0.4,9.2-0.7c1.8-0.5,3.2-1.8,3.8-3.6c0.1-0.1,0.1-0.3,0.1-0.4
	s0.1-0.3,0.1-0.4l0,0C166.4,109.1,166.4,108.9,166.4,108.8L166.4,108.8L166.4,108.8z"/>
<path class="st1" d="M170.4,129.2c0.2,0.3,0.3,0.7,0.4,1c0,0.1,0,0.1,0.1,0.2c0,0.1,0.1,0.2,0.1,0.2c0,0.1,0,0.2,0,0.2
	c0,0.1,0,0.2,0.1,0.3c0,0.1,0,0.1,0,0.2s0,0.1,0,0.1c0,0.1,0,0.1,0,0.2c0,0.1,0,0.2,0,0.3s0,0.3,0,0.4c0,0.3,0,0.6-0.1,0.9
	c0,0.4-0.1,0.7-0.2,1.1c-0.1,0.3-0.2,0.6-0.3,0.9c-0.1,0.2-0.2,0.5-0.3,0.7c-1.5,2.9-4.4,3.9-7.5,4.2c-5.5,0.4-11.2,0.2-16.7,0.2
	c-0.7,0-0.9-0.2-0.9-0.9v-13.6c0-0.9,0.4-1.1,1.1-0.9h8.8c3.1,0.2,7-0.6,10.6,0.5l0.5,0.2l0.2,0.1c0.3,0.1,0.5,0.2,0.8,0.3
	c0.4,0.2,0,0,0,0c0.8,0.4,1.6,1,2.2,1.8C169.8,128.3,170.1,128.7,170.4,129.2z"/>
<path class="st6" d="M170.4,129.2c-0.1-0.2-0.1-0.3-0.2-0.5C170.3,128.9,170.4,129.1,170.4,129.2z"/>
<path class="st6" d="M170.2,128.8c0.1,0.1,0.2,0.3,0.2,0.5c-0.3-0.5-0.6-1-0.9-1.4c0.1,0.1,0.2,0.2,0.3,0.3l0,0
	C169.9,128.3,170.1,128.5,170.2,128.8L170.2,128.8z"/>
<path class="st6" d="M170.2,128.8c-0.1-0.2-0.3-0.4-0.4-0.6C169.9,128.3,170.1,128.5,170.2,128.8z"/>
<path class="st6" d="M169.8,128.1c-0.1-0.1-0.2-0.2-0.3-0.3c-0.5-0.6-1.1-1.2-1.8-1.6C168.5,126.7,169.2,127.4,169.8,128.1z"/>
<path class="st6" d="M167.7,126.3c0.7,0.4,1.3,0.9,1.8,1.6c-0.6-0.7-1.4-1.3-2.2-1.8C167.4,126.1,167.5,126.2,167.7,126.3z"/>
<path class="st7" d="M167,125.9l0.3,0.2l0,0C167.2,126,167.1,126,167,125.9z"/>
<path class="st6" d="M167,125.9c0.1,0,0.2,0.1,0.3,0.2c-0.2-0.1-0.5-0.2-0.8-0.3l0.3,0.1L167,125.9z"/>
<path class="st7" d="M166.8,125.9l-0.3-0.1l0,0L166.8,125.9z"/>
<path class="st6" d="M166.4,108.8c0.1-0.7,0-1.3-0.1-2C166.5,107.4,166.5,108.1,166.4,108.8z"/>
<path class="st7" d="M166.4,106.8c0.1,0.7,0.1,1.3,0.1,2c0.1-0.9,0-1.9-0.2-2.8C166.3,106.2,166.3,106.5,166.4,106.8z"/>
<path class="st1" d="M166.2,105.9c0.2,0.9,0.3,1.9,0.2,2.8l0,0c0,0.1,0,0.3-0.1,0.4l0,0c0,0.1,0,0.3-0.1,0.4l0,0
	c-0.4,1.9-1.8,3.1-3.9,3.9c-3.1,1.1-6.4,0.7-9.2,0.7h-7.2c-0.4,0-0.7-0.1-1-0.3l-0.1-0.1l0,0c-0.1-0.2-0.1-0.4-0.1-0.7
	c0.2-3.7,0.2-7.2,0.2-10.7c0-0.7,0-1.3,0.9-1.1c4.6,0.2,9.4-0.2,14,0.2c1.3,0.1,2.7,0.5,3.9,1.1c0.4,0.3,0.8,0.6,1.1,0.9l0.2,0.3
	c0.2,0.2,0.4,0.5,0.6,0.8c0.1,0.1,0.1,0.2,0.1,0.3c0.1,0.1,0.1,0.2,0.2,0.3l0,0l0,0c0,0,0,0.1,0.1,0.1c0,0.1,0,0.1,0.1,0.2
	C166.2,105.6,166.3,105.7,166.2,105.9C166.3,106,166.2,105.9,166.2,105.9z"/>
<path class="st7" d="M166.4,108.8L166.4,108.8c0,0.1,0,0.3-0.1,0.4C166.4,109.1,166.4,108.9,166.4,108.8z"/>
<path class="st6" d="M166.4,108.8c0,0.1,0,0.3-0.1,0.4l0,0C166.4,109.1,166.4,108.9,166.4,108.8z"/>
<path class="st7" d="M166.4,109.2L166.4,109.2c0,0.1,0,0.2-0.1,0.4C166.3,109.5,166.4,109.4,166.4,109.2z"/>
<path class="st6" d="M166.4,109.2c0,0.1,0,0.3-0.1,0.4l0,0C166.3,109.5,166.4,109.4,166.4,109.2z"/>
<path class="st6" d="M166.2,110c0-0.1,0.1-0.3,0.1-0.4C166.3,109.7,166.3,109.9,166.2,110z"/>
<path class="st7" d="M166.3,109.6c0,0.1-0.1,0.3-0.1,0.4c-0.6,1.7-2,3-3.8,3.5c-3.1,1.1-6.4,0.7-9.2,0.7H146c-0.4,0-0.7-0.1-1-0.3
	l-0.1-0.1c0,0,0,0.1,0.1,0.1c0.3,0.2,0.6,0.3,1,0.3h7.2c2.8,0,6.1,0.4,9.2-0.7C164.5,112.7,165.9,111.5,166.3,109.6z"/>
<path class="st7" d="M166.2,105.8C166.2,105.9,166.2,105.9,166.2,105.8c0,0-0.1-0.1-0.1-0.2l0,0
	C166.1,105.7,166.2,105.8,166.2,105.8z"/>
<path class="st6" d="M166.2,105.8c0-0.1,0-0.1-0.1-0.2l0,0L166.2,105.8z"/>
<path class="st6" d="M166,105.4l0.1,0.2l0,0C166.1,105.6,166,105.5,166,105.4z"/>
<path class="st6" d="M166,105.4c0,0.1,0.1,0.1,0.1,0.2l0,0C166.1,105.6,166,105.5,166,105.4z"/>
<path class="st6" d="M166,105.3c0,0,0,0.1,0.1,0.1C166,105.4,166,105.3,166,105.3L166,105.3z"/>
<path class="st6" d="M166,105.3L166,105.3L166,105.3z"/>
<path class="st6" d="M166,105.3L166,105.3L166,105.3z"/>
<path class="st6" d="M162.4,113.6c1.8-0.5,3.2-1.9,3.8-3.6C165.6,111.7,164.2,113,162.4,113.6c-3.1,1.1-6.4,0.7-9.2,0.7h-7.1
	c-0.4,0.1-0.8,0-1.1-0.3c0.3,0.2,0.6,0.3,1,0.3h7.2C156,114.3,159.3,114.7,162.4,113.6z"/>
<path class="st8" d="M84.9,200.5l1.1-1.3c0.8,0.7,1.8,1.2,2.9,1.2c1.2,0,1.9-0.5,1.9-1.3c0-0.9-0.7-1.2-1.7-1.6l-1.4-0.6
	c-1.3-0.3-2.2-1.5-2.2-2.8c0-1.7,1.5-3,3.6-3c1.2,0,2.4,0.5,3.3,1.3l-1,1.2c-0.7-0.6-1.6-0.9-2.5-0.9c-1,0-1.7,0.4-1.7,1.2
	s0.8,1.1,1.8,1.5l1.4,0.6c1.3,0.5,2.3,1.3,2.3,2.8c0,1.7-1.4,3.1-3.9,3.1C87.3,202,85.9,201.4,84.9,200.5z"/>
<path class="st8" d="M94.4,197.9c0.1-2.2,1.9-3.9,4.1-3.9c2.2,0.1,3.9,1.9,3.9,4.1c-0.1,2.2-1.8,3.9-4,3.9c-2.2,0.1-3.9-1.6-4-3.8
	C94.4,198.1,94.4,198,94.4,197.9z M100.4,197.9c0-1.6-0.8-2.6-2-2.6s-2,1-2,2.6s0.8,2.6,2,2.6S100.4,199.5,100.4,197.9z"/>
<path class="st8" d="M106.7,199v-7h-2.6v-1.5h4.5v8.5c-0.1,0.7,0.4,1.3,1.1,1.4c0.1,0,0.2,0,0.3,0c0.5,0,0.9-0.1,1.3-0.3l0.4,1.4
	c-0.7,0.3-1.5,0.4-2.2,0.4C107.7,202,106.7,200.9,106.7,199z"/>
<path class="st8" d="M117.5,195.4h-3.4V194h5.2v7.9h-1.8C117.5,201.9,117.5,195.4,117.5,195.4z M117,191.3c0-0.7,0.5-1.4,1.2-1.4
	s1.4,0.5,1.4,1.2s-0.5,1.4-1.2,1.4h-0.1C117.6,192.6,117,192,117,191.3L117,191.3L117,191.3z"/>
<path class="st8" d="M123.5,197.9c0-2.6,2.1-4.1,4.5-4.1c1.1,0,2.1,0.4,2.9,1.1L130,196c-0.5-0.5-1.2-0.7-1.9-0.8
	c-1.4-0.1-2.6,1-2.7,2.3c0,0.1,0,0.2,0,0.3c-0.1,1.4,1,2.5,2.3,2.6c0.1,0,0.2,0,0.3,0c0.8,0,1.6-0.3,2.3-0.9l0.8,1.2
	c-0.9,0.8-2,1.2-3.2,1.2C125.4,202,123.5,200.5,123.5,197.9z"/>
<path class="st8" d="M136.7,195.4h-3.4V194h5.2v7.9h-1.9L136.7,195.4L136.7,195.4z M136.2,191.3c0-0.7,0.5-1.4,1.2-1.4
	s1.4,0.5,1.4,1.2s-0.5,1.4-1.2,1.4h-0.1C136.8,192.5,136.2,192,136.2,191.3C136.2,191.4,136.2,191.3,136.2,191.3z"/>
<path class="st8" d="M144.6,198.7v-3.2h-2.1v-1.4l2.2-0.1l0.2-2.5h1.5v2.5h3.6v1.5h-3.6v3.2c0,1.3,0.5,1.9,1.8,1.9
	c0.6,0,1.2-0.1,1.7-0.3l0.4,1.4c-0.8,0.3-1.7,0.4-2.5,0.4C145.4,202,144.6,200.7,144.6,198.7z"/>
<path class="st8" d="M152.2,198.8V194h1.9v4.6c0,1.2,0.4,1.8,1.5,1.8c0.8,0,1.6-0.5,2-1.2V194h1.9v7.9H158l-0.1-1.2h-0.1
	c-0.7,0.9-1.7,1.4-2.8,1.4C153,202,152.2,200.9,152.2,198.8z"/>
<path class="st8" d="M161.6,197.9c0-2.6,1.7-4.1,3.5-4.1c0.8,0,1.6,0.3,2.2,0.9h0.1l-0.1-1.3v-2.9h1.8v11.3h-1.5l-0.1-0.9h-0.1
	c-0.6,0.7-1.5,1.1-2.4,1.1C162.9,202,161.6,200.5,161.6,197.9z M167.2,199.5V196c-0.4-0.4-1-0.7-1.7-0.7c-1.1,0-2,0.9-2,2.6
	s0.7,2.6,1.9,2.6C166.1,200.4,166.7,200.1,167.2,199.5z"/>
<path class="st8" d="M181.3,191.4h3.4c2.3,0,4,0.8,4,3.2s-1.7,3.4-4,3.4h-1.6v3.8h-1.9v-10.4H181.3z M184.6,196.5
	c1.6,0,2.3-0.6,2.3-1.9s-0.8-1.7-2.3-1.7h-1.4v3.6L184.6,196.5z"/>
<path class="st8" d="M191.6,194h1.5l0.2,1.8l0,0c0.7-1.2,2-2,3.4-2c0.5,0,1.1,0.1,1.5,0.3l-0.4,1.6c-0.5-0.2-0.9-0.2-1.4-0.2
	c-1.3,0-2.5,0.9-2.9,2.1v4.3h-1.8V194H191.6z"/>
<path class="st8" d="M200,197.9c0.1-2.2,1.9-3.9,4.1-3.8c2.2,0.1,3.9,1.9,3.8,4.1c-0.1,2.1-1.8,3.8-3.9,3.8c-2.1,0.1-3.9-1.6-4-3.8
	C200,198.1,200,198,200,197.9z M206,197.9c0-1.6-0.8-2.6-2-2.6s-2.1,1-2.1,2.6s0.8,2.6,2.1,2.6S206,199.5,206,197.9z"/>
<path class="st8" d="M209.9,197.9c0-2.6,2.1-4.1,4.5-4.1c1.1,0,2.1,0.4,2.9,1.1l-0.9,1.1c-0.6-0.5-1.3-0.7-2-0.8
	c-1.4-0.1-2.6,1-2.7,2.3c0,0.1,0,0.2,0,0.3c-0.1,1.4,1,2.5,2.3,2.6c0.1,0,0.2,0,0.3,0c0.8,0,1.6-0.3,2.2-0.9l0.8,1.2
	c-0.9,0.8-2,1.2-3.2,1.2C211.8,202,209.9,200.5,209.9,197.9z"/>
<path class="st8" d="M219.3,197.9c-0.1-2.2,1.7-4,3.9-4.1c0.1,0,0.1,0,0.2,0c1.9-0.1,3.5,1.3,3.6,3.2c0,0.2,0,0.4,0,0.5
	c0,0.3,0,0.6-0.1,0.9h-6.3v-1.3h5.1l-0.4,0.4c0-1.6-0.7-2.3-2-2.3s-2.3,0.9-2.3,2.7c-0.1,1.4,0.9,2.6,2.2,2.7c0.2,0,0.4,0,0.5,0
	c0.8,0,1.5-0.2,2.2-0.6l0.6,1.1c-0.9,0.6-2,0.9-3.1,0.9c-2.2,0.1-4.1-1.5-4.3-3.7C219.3,198.1,219.3,198,219.3,197.9z"/>
<path class="st8" d="M228.9,200.8l0.8-1.2c1,0.7,2.1,1,3.3,1c1.1,0,1.6-0.4,1.6-0.9s-0.4-0.8-2.2-1.2c-2.1-0.4-3-1.2-3-2.4
	c0-1.4,1.2-2.4,3.4-2.4c1.2,0,2.3,0.4,3.3,1l-0.9,1.1c-0.8-0.5-1.7-0.8-2.6-0.8c-1,0-1.4,0.4-1.4,0.9s0.6,0.8,2,1.1
	c2.5,0.6,3.2,1.2,3.2,2.5s-1.3,2.4-3.7,2.4C231.4,202,230.1,201.6,228.9,200.8z"/>
<path class="st8" d="M238.6,199.7c0-1.8,1.6-2.6,5.4-2.9c-0.1-0.9-0.6-1.5-1.9-1.5c-0.9,0.1-1.8,0.3-2.6,0.8l-0.7-1.2
	c1.1-0.7,2.3-1.1,3.6-1.1c1.7-0.2,3.2,1,3.4,2.7c0,0.2,0,0.5,0,0.7v4.6h-1.5l-0.1-1h-0.1c-0.8,0.7-1.9,1.1-2.9,1.2
	c-1.3,0.1-2.5-0.8-2.6-2.1C238.7,199.8,238.7,199.8,238.6,199.7z M244.1,199.6V198c-2.8,0.2-3.6,0.8-3.6,1.6c0,0.7,0.6,1,1.4,1
	C242.7,200.6,243.5,200.2,244.1,199.6L244.1,199.6z"/>
<path class="st8" d="M248,197.9c0-2.6,1.7-4.1,3.4-4.1c0.8,0,1.6,0.3,2.2,0.9l0,0l-0.1-1.3v-2.9h1.9v11.3h-1.5l-0.1-0.9h-0.1
	c-0.6,0.7-1.5,1.1-2.4,1.1C249.3,202,248,200.5,248,197.9z M253.6,199.5V196c-0.4-0.4-1-0.7-1.7-0.7c-1.1,0-2,0.9-2,2.6
	s0.7,2.6,1.9,2.6C252.5,200.4,253.1,200.1,253.6,199.5L253.6,199.5z"/>
<path class="st8" d="M257.9,199.7c0-1.8,1.5-2.6,5.4-2.9c-0.1-0.9-0.6-1.5-1.9-1.5c-0.9,0.1-1.8,0.3-2.6,0.8l-0.7-1.2
	c1.1-0.7,2.3-1.1,3.6-1.1c1.7-0.2,3.2,1,3.4,2.7c0,0.2,0,0.5,0,0.7v4.6h-1.5l-0.1-1l0,0c-0.8,0.7-1.9,1.1-2.9,1.2
	c-1.3,0.1-2.5-0.8-2.6-2.1C257.9,199.8,257.9,199.8,257.9,199.7z M263.3,199.6V198c-2.8,0.2-3.6,0.8-3.6,1.6c0,0.7,0.6,1,1.4,1
	C261.9,200.6,262.7,200.2,263.3,199.6z"/>
<path class="st8" d="M75.2,349.7h1v3.3h3.3v-3.3h1v7.9h-1v-3.7h-3.2v3.7h-1L75.2,349.7z"/>
<path class="st8" d="M82.2,354.6c0-1.6,1.2-3,2.8-3c0.1,0,0.1,0,0.2,0c1.4-0.1,2.6,0.9,2.7,2.3c0,0.1,0,0.3,0,0.4c0,0.2,0,0.4,0,0.6
	h-5v-0.8h4.3l-0.2,0.3c0-1.4-0.7-2.1-1.8-2.1c-1.1,0-2,1-2,2.1c0,0.1,0,0.1,0,0.2c-0.1,1.2,0.8,2.2,1.9,2.3c0.1,0,0.2,0,0.4,0
	c0.6,0,1.2-0.2,1.8-0.5l0.4,0.6c-0.7,0.5-1.4,0.7-2.2,0.7c-1.7,0.1-3.1-1.2-3.1-2.8C82.2,354.8,82.2,354.7,82.2,354.6z"/>
<path class="st8" d="M89.3,351.7h0.8l0.1,0.8l0,0c0.2-0.5,0.7-0.9,1.3-0.9c0.6,0,0.9,0.3,1.1,1c0.3-0.6,0.7-1,1.4-1s1.3,0.6,1.3,1.8
	v4.2h-1v-4.1c0-0.7-0.2-1-0.6-1s-0.6,0.3-0.9,0.9v4.2h-0.9v-4.1c0-0.7-0.2-1-0.6-1s-0.7,0.3-1,0.9v4.2h-1L89.3,351.7z"/>
<path class="st8" d="M96.5,354.6c0.1-1.6,1.5-2.8,3-2.7s2.8,1.5,2.7,3c-0.1,1.5-1.3,2.7-2.9,2.7s-2.9-1.2-2.9-2.8
	C96.5,354.8,96.5,354.7,96.5,354.6z M101.3,354.6c0-1.3-0.8-2.2-1.9-2.2s-1.9,0.9-1.9,2.2s0.7,2.2,1.9,2.2S101.3,356,101.3,354.6z"
	/>
<path class="st8" d="M103.8,356.8l0.5-0.7c0.7,0.5,1.6,0.8,2.5,0.8c1,0,1.5-0.4,1.5-0.9s-0.2-0.8-1.8-1.1s-2.3-0.8-2.3-1.7
	s0.8-1.6,2.4-1.6c0.8,0,1.7,0.3,2.4,0.7l-0.5,0.6c-0.6-0.4-1.3-0.6-2-0.6c-1,0-1.3,0.4-1.3,0.8s0.5,0.7,1.7,1
	c1.9,0.4,2.4,0.9,2.4,1.8s-0.9,1.7-2.6,1.7C105.7,357.7,104.7,357.4,103.8,356.8z"/>
<path class="st8" d="M119.1,351.7h0.9l0.1,1.4l0,0c0.5-0.9,1.5-1.5,2.6-1.5c0.4,0,0.8,0.1,1.2,0.2l-0.2,0.9
	c-0.3-0.1-0.7-0.2-1.1-0.2c-1.1,0-2,0.7-2.4,1.7v3.4h-1L119.1,351.7z"/>
<path class="st8" d="M125.4,354.6c0-1.6,1.2-3,2.8-3c0.1,0,0.1,0,0.2,0c1.4-0.1,2.6,0.9,2.7,2.3c0,0.1,0,0.3,0,0.4
	c0,0.2,0,0.4-0.1,0.6h-4.9v-0.8h4.3l-0.3,0.3c0-1.4-0.7-2.1-1.8-2.1c-1.1,0-2,0.9-2,2c0,0.1,0,0.2,0,0.3c-0.1,1.2,0.8,2.2,1.9,2.3
	c0.1,0,0.2,0,0.4,0c0.6,0,1.2-0.2,1.8-0.5l0.4,0.6c-0.7,0.5-1.4,0.7-2.2,0.7c-1.7,0.1-3.1-1.2-3.2-2.8
	C125.4,354.8,125.4,354.7,125.4,354.6z"/>
<path class="st8" d="M132.8,354.6c0-1.7,1.3-3,2.9-3.1c0.1,0,0.2,0,0.3,0c0.8,0,1.6,0.3,2.1,0.9l-0.5,0.6c-0.4-0.4-1-0.6-1.6-0.7
	c-1.2,0-2.2,1-2.2,2.2s1,2.2,2.2,2.2l0,0c0.7,0,1.3-0.3,1.8-0.7l0.4,0.6c-0.6,0.6-1.5,0.9-2.3,0.9c-1.6,0.2-3-1-3.2-2.7
	C132.8,354.9,132.8,354.8,132.8,354.6z"/>
<path class="st8" d="M142.8,352.5h-2.7v-0.8h3.7v5.8h-1V352.5z M142.4,349.7c0-0.4,0.4-0.8,0.8-0.8c0.4,0,0.8,0.4,0.8,0.8
	s-0.4,0.8-0.8,0.8C142.7,350.5,142.4,350.2,142.4,349.7z"/>
<path class="st8" d="M148.2,356.9L148.2,356.9l-0.1,0.6h-0.8V349h1v2.3l-0.1,1.1l0,0c0.5-0.5,1.2-0.9,1.9-0.9c1.6,0,2.4,1.2,2.4,3
	c0,2-1.2,3.2-2.6,3.2C149.4,357.7,148.7,357.4,148.2,356.9z M151.7,354.5c0-1.3-0.5-2.1-1.6-2.1c-0.7,0-1.3,0.4-1.7,0.9v2.9
	c0.4,0.4,1,0.7,1.6,0.7C150.9,356.9,151.7,356,151.7,354.5z"/>
<path class="st8" d="M157.2,352.5h-2.7v-0.8h3.7v5.8h-1V352.5z M156.8,349.7c0-0.4,0.4-0.8,0.8-0.8c0.4,0,0.8,0.4,0.8,0.8
	s-0.4,0.8-0.8,0.8C157.1,350.5,156.8,350.2,156.8,349.7z"/>
<path class="st8" d="M161.3,354.6c-0.2-1.5,1-2.9,2.5-3.1h0.1c0.7,0,1.3,0.3,1.8,0.7l0,0v-1.1V349h1v8.5h-0.8l-0.1-0.8l0,0
	c-0.5,0.5-1.2,0.9-1.9,0.9C162.3,357.7,161.3,356.6,161.3,354.6z M165.7,356v-2.9c-0.4-0.4-0.9-0.7-1.5-0.7
	c-1.1,0.1-1.9,1.1-1.8,2.2c0,0,0,0,0,0.1c0,1.4,0.6,2.2,1.7,2.2C164.7,356.8,165.3,356.5,165.7,356L165.7,356z"/>
<path class="st8" d="M168.5,354.6c0.1-1.6,1.5-2.8,3-2.7c1.6,0.1,2.8,1.5,2.7,3s-1.3,2.7-2.9,2.7c-1.6,0-2.9-1.2-2.9-2.8
	C168.5,354.8,168.5,354.7,168.5,354.6z M173.2,354.6c0-1.3-0.7-2.2-1.9-2.2s-1.9,0.9-1.9,2.2s0.7,2.2,1.9,2.2S173.2,356,173.2,354.6
	z"/>
<path class="st8" d="M183.1,356.8l0.4-0.7c0.7,0.5,1.6,0.8,2.5,0.8c1,0,1.5-0.4,1.5-0.9s-0.2-0.8-1.8-1.1s-2.3-0.8-2.3-1.7
	s0.8-1.6,2.4-1.6c0.8,0,1.7,0.3,2.4,0.7l-0.5,0.6c-0.6-0.4-1.3-0.6-1.9-0.6c-1,0-1.4,0.4-1.4,0.8s0.5,0.7,1.7,1
	c1.9,0.4,2.4,0.9,2.4,1.8s-0.9,1.7-2.6,1.7C184.9,357.7,183.9,357.4,183.1,356.8z"/>
<path class="st8" d="M190.3,355.3v-3.6h1v3.5c0,1.1,0.4,1.6,1.3,1.6c0.7,0,1.4-0.4,1.8-1.1v-4h1v5.8h-0.8l-0.1-1l0,0
	c-0.5,0.7-1.3,1.1-2.2,1.2C191,357.7,190.3,356.9,190.3,355.3z"/>
<path class="st8" d="M204.6,356.8l0.4-0.7c0.7,0.5,1.6,0.8,2.5,0.8c1,0,1.5-0.4,1.5-0.9s-0.2-0.8-1.8-1.1s-2.3-0.8-2.3-1.7
	s0.8-1.6,2.4-1.6c0.8,0,1.7,0.3,2.4,0.7l-0.5,0.6c-0.6-0.4-1.3-0.6-2-0.6c-1,0-1.4,0.4-1.4,0.8s0.5,0.7,1.7,1
	c1.9,0.4,2.4,0.9,2.4,1.8s-0.9,1.7-2.6,1.7C206.4,357.7,205.5,357.4,204.6,356.8z"/>
<path class="st8" d="M211.7,354.6c0.1-1.6,1.5-2.8,3-2.7c1.6,0.1,2.8,1.5,2.7,3s-1.4,2.7-2.9,2.7c-1.6,0-2.9-1.2-2.9-2.8
	C211.7,354.8,211.7,354.7,211.7,354.6z M216.4,354.6c0-1.3-0.7-2.2-1.9-2.2s-1.9,0.9-1.9,2.2s0.7,2.2,1.9,2.2S216.4,356,216.4,354.6
	z"/>
<path class="st8" d="M221.1,355.6v-5.8H219V349h3.1v6.7c-0.1,0.6,0.3,1.1,0.9,1.2c0.1,0,0.2,0,0.3,0c0.4,0,0.8-0.1,1.1-0.3l0.3,0.8
	c-0.5,0.2-1,0.4-1.6,0.4C221.8,357.7,221.1,357,221.1,355.6z"/>
<path class="st8" d="M229.2,352.5h-2.7v-0.8h3.7v5.8h-1V352.5z M228.8,349.7c0-0.4,0.4-0.8,0.8-0.8c0.4,0,0.8,0.4,0.8,0.8
	s-0.4,0.8-0.8,0.8C229.1,350.5,228.8,350.2,228.8,349.7z"/>
<path class="st8" d="M233.6,354.6c0-1.7,1.3-3,2.9-3.1c0.1,0,0.2,0,0.3,0c0.8,0,1.6,0.3,2.1,0.9l-0.5,0.6c-0.4-0.4-1-0.6-1.6-0.7
	c-1.2,0-2.2,1-2.2,2.2s1,2.2,2.2,2.2l0,0c0.7,0,1.3-0.3,1.8-0.7l0.4,0.6c-0.6,0.6-1.5,0.9-2.3,0.9c-1.6,0.2-3-1-3.2-2.7
	C233.6,354.9,233.6,354.8,233.6,354.6z"/>
<path class="st8" d="M243.6,352.5h-2.7v-0.8h3.7v5.8h-1V352.5z M243.2,349.7c0-0.4,0.4-0.8,0.8-0.8c0.4,0,0.8,0.4,0.8,0.8
	s-0.4,0.8-0.8,0.8C243.5,350.5,243.2,350.2,243.2,349.7z"/>
<path class="st8" d="M249.5,355.3v-2.8h-1.7v-0.8l1.7-0.1l0.1-1.9h0.8v1.9h2.9v0.8h-2.9v2.8c0,1,0.4,1.6,1.5,1.6
	c0.5,0,0.9-0.1,1.4-0.3l0.2,0.7c-0.6,0.2-1.2,0.3-1.8,0.4C250,357.7,249.5,356.7,249.5,355.3z"/>
<path class="st8" d="M255.1,355.3v-3.6h1v3.5c0,1.1,0.4,1.6,1.3,1.6c0.7,0,1.4-0.4,1.8-1.1v-4h1v5.8h-0.8l-0.1-1l0,0
	c-0.5,0.7-1.3,1.1-2.2,1.2C255.8,357.7,255.1,356.9,255.1,355.3z"/>
<path class="st8" d="M262.1,354.6c-0.2-1.5,1-2.9,2.5-3.1h0.1c0.7,0,1.3,0.3,1.8,0.7l0,0v-1.1V349h1v8.5h-0.8l-0.1-0.8l0,0
	c-0.5,0.5-1.2,0.9-1.9,0.9C263.1,357.7,262.1,356.6,262.1,354.6z M266.5,356v-2.9c-0.4-0.4-0.9-0.7-1.5-0.7
	c-1.1,0.1-1.9,1.1-1.8,2.2c0,0,0,0,0,0.1c0,1.4,0.6,2.2,1.7,2.2C265.5,356.8,266.1,356.5,266.5,356L266.5,356z"/>
<path class="st8" d="M271,359.5c0.9-0.3,1.5-1.1,1.5-2.1l-0.2-1.1l0.7,1c-0.2,0.2-0.4,0.3-0.7,0.3c-0.5,0-0.9-0.3-0.9-0.8v-0.1
	c0-0.5,0.4-0.9,0.9-0.9h0.1c0.7,0,1.1,0.6,1.1,1.5c0,1.3-0.8,2.5-2.1,2.9L271,359.5z"/>
<path class="st8" d="M70,370v-5.8h-2.1v-0.8H71v6.7c-0.1,0.5,0.2,1.1,0.8,1.2c0.1,0,0.3,0,0.4,0c0.4,0,0.7-0.1,1.1-0.3l0.2,0.8
	c-0.5,0.2-1,0.4-1.6,0.4C70.6,372.1,70,371.4,70,370z"/>
<path class="st8" d="M75.1,369.8v-3.6h1v3.5c0,1.1,0.4,1.6,1.3,1.6c0.7,0,1.4-0.4,1.8-1.1v-4h1v5.9h-0.8l-0.1-1l0,0
	c-0.5,0.7-1.3,1.1-2.2,1.2C75.8,372.1,75.1,371.3,75.1,369.8z"/>
<path class="st8" d="M82.2,369c0-1.6,1.2-3,2.9-3h0.1c1.4-0.1,2.6,0.9,2.7,2.3c0,0.1,0,0.3,0,0.4c0,0.2,0,0.4,0,0.6h-5v-0.8h4.3
	l-0.2,0.3c0-1.4-0.7-2.1-1.8-2.1c-1.1,0-2,0.9-2,2c0,0.1,0,0.2,0,0.3c-0.1,1.2,0.8,2.2,1.9,2.3c0.1,0,0.2,0,0.3,0
	c0.6,0,1.2-0.2,1.8-0.5l0.4,0.6c-0.7,0.5-1.4,0.7-2.2,0.7c-1.7,0.1-3.1-1.2-3.1-2.8C82.2,369.2,82.2,369.1,82.2,369z"/>
<path class="st8" d="M89.5,373c0.1-0.6,0.5-1.1,1-1.3l0,0c-0.4-0.2-0.6-0.6-0.6-1c0-0.5,0.3-0.9,0.7-1.1l0,0
	c-0.5-0.4-0.7-0.9-0.7-1.5c0-1.2,1-2.1,2.2-2.1c0,0,0,0,0.1,0c0.3,0,0.6,0,0.9,0.1h2.4v0.8H94c0.3,0.3,0.5,0.7,0.5,1.2
	c0,1.1-1,2-2.1,2c-0.1,0-0.1,0-0.2,0c-0.3,0-0.7-0.1-1-0.2c-0.3,0.1-0.4,0.4-0.5,0.7c0,0.5,0.4,0.7,1.2,0.7h1.3
	c1.5,0,2.2,0.4,2.2,1.4s-1.3,2-3.2,2C90.4,374.6,89.5,374,89.5,373z M94.5,372.7c0-0.6-0.4-0.7-1.3-0.7H92c-0.3,0-0.6,0-0.9-0.1
	c-0.6,0.3-0.7,0.6-0.7,1c0,0.6,0.7,1,1.9,1S94.4,373.4,94.5,372.7L94.5,372.7z M93.5,368c0-0.7-0.6-1.3-1.4-1.3s-1.3,0.6-1.3,1.4
	c0,0.7,0.6,1.3,1.3,1.3S93.4,368.8,93.5,368C93.4,368.1,93.4,368.1,93.5,368L93.5,368z"/>
<path class="st8" d="M96.5,369c0.1-1.6,1.5-2.8,3-2.7s2.8,1.5,2.7,3c-0.1,1.5-1.3,2.7-2.9,2.7s-2.9-1.2-2.9-2.8
	C96.5,369.2,96.5,369.1,96.5,369z M101.3,369c0-1.3-0.8-2.2-1.9-2.2s-1.9,0.9-1.9,2.2s0.7,2.2,1.9,2.2S101.3,370.4,101.3,369z"/>
<path class="st8" d="M110.9,369c-0.1-1.5,1-2.9,2.5-3.1h0.1c0.7,0,1.3,0.3,1.8,0.7l0,0v-1.1v-2.2h1v8.6h-0.8l-0.1-0.8l0,0
	c-0.5,0.5-1.2,0.9-1.9,0.9C111.9,372.1,110.9,371,110.9,369z M115.3,370.4v-2.9c-0.4-0.4-1-0.7-1.5-0.7c-1.1,0.1-1.9,1.1-1.8,2.2
	c0,0,0,0,0,0.1c0,1.4,0.7,2.2,1.7,2.2C114.3,371.2,114.9,370.9,115.3,370.4L115.3,370.4z"/>
<path class="st8" d="M118.2,369c0-1.6,1.2-3,2.9-3h0.1c1.4-0.1,2.6,0.9,2.7,2.3c0,0.1,0,0.3,0,0.4c0,0.2,0,0.4,0,0.6H119v-0.8h4.3
	l-0.3,0.3c0-1.4-0.7-2.1-1.8-2.1c-1.1,0-2,0.9-2,2c0,0.1,0,0.2,0,0.3c-0.1,1.2,0.8,2.2,1.9,2.3c0.1,0,0.2,0,0.3,0
	c0.6,0,1.2-0.2,1.8-0.5l0.4,0.6c-0.7,0.5-1.4,0.7-2.2,0.7c-1.7,0.1-3.1-1.1-3.2-2.8C118.2,369.2,118.2,369.1,118.2,369z"/>
<path class="st8" d="M132.6,371.2l0.5-0.6c0.7,0.5,1.6,0.8,2.5,0.8c1,0,1.5-0.4,1.5-0.9s-0.2-0.8-1.8-1.1s-2.3-0.8-2.3-1.7
	s0.8-1.6,2.4-1.6c0.8,0,1.7,0.3,2.4,0.7l-0.5,0.6c-0.6-0.4-1.3-0.6-2-0.6c-1,0-1.3,0.4-1.3,0.8s0.5,0.7,1.7,1
	c1.9,0.4,2.4,0.9,2.4,1.8s-0.9,1.7-2.6,1.7C134.5,372.1,133.5,371.8,132.6,371.2z"/>
<path class="st8" d="M139.8,369c0-1.6,1.2-3,2.9-3h0.1c1.4-0.1,2.6,0.9,2.7,2.3c0,0.1,0,0.3,0,0.4c0,0.2,0,0.4,0,0.6h-4.9v-0.8h4.4
	l-0.3,0.3c0-1.4-0.7-2.1-1.8-2.1s-2,0.9-2,2c0,0.1,0,0.2,0,0.3c-0.1,1.2,0.8,2.2,1.9,2.3c0.1,0,0.2,0,0.3,0c0.6,0,1.2-0.2,1.8-0.5
	l0.4,0.6c-0.7,0.5-1.4,0.7-2.2,0.7c-1.7,0.1-3.1-1.1-3.2-2.8C139.8,369.2,139.8,369.1,139.8,369z"/>
<path class="st8" d="M147.9,366.1h0.8l0.1,1.4l0,0c0.5-0.9,1.5-1.5,2.6-1.5c0.4,0,0.8,0.1,1.1,0.2l-0.2,0.9
	c-0.3-0.1-0.7-0.2-1.1-0.2c-1.1,0-2,0.7-2.4,1.7v3.4h-1L147.9,366.1z"/>
<path class="st8" d="M161.2,366.1h1l1.3,3.3c0.2,0.6,0.4,1.2,0.6,1.7l0,0c0.2-0.6,0.4-1.1,0.6-1.7l1.3-3.3h1l-2.4,5.9h-1.1
	L161.2,366.1z"/>
<path class="st8" d="M168.8,370.4c0-1.3,1.2-1.9,4.2-2.2c0-0.8-0.5-1.4-1.3-1.5c-0.1,0-0.2,0-0.3,0c-0.7,0.1-1.4,0.3-2,0.7l-0.4-0.7
	c0.8-0.5,1.7-0.8,2.6-0.8c1.2-0.1,2.3,0.7,2.4,1.9c0,0.2,0,0.3,0,0.5v3.6h-0.8l-0.1-0.8l0,0c-0.6,0.5-1.4,0.9-2.3,0.9
	c-1,0.2-1.9-0.5-2-1.5C168.8,370.6,168.8,370.5,168.8,370.4z M173,370.4v-1.5c-2.5,0.2-3.2,0.7-3.2,1.5s0.6,0.9,1.3,0.9
	S172.5,370.9,173,370.4L173,370.4z"/>
<path class="st8" d="M178,370v-5.8h-2.1v-0.8h3.1v6.7c-0.1,0.6,0.3,1.1,0.9,1.2c0.1,0,0.2,0,0.3,0c0.4,0,0.8-0.1,1.1-0.3l0.2,0.8
	c-0.5,0.2-1,0.4-1.6,0.4C178.6,372.1,178,371.4,178,370z"/>
<path class="st8" d="M186,366.9h-2.7v-0.8h3.7v5.9h-1V366.9z M185.6,364.1c0-0.4,0.3-0.8,0.8-0.8c0.4,0,0.8,0.3,0.8,0.8
	c0,0.4-0.3,0.8-0.8,0.8l0,0C186,364.9,185.6,364.7,185.6,364.1C185.6,364.2,185.6,364.2,185.6,364.1L185.6,364.1z"/>
<path class="st8" d="M190.1,369c-0.1-1.5,1-2.9,2.5-3.1h0.1c0.7,0,1.3,0.3,1.8,0.7l0,0l-0.1-1.1v-2.2h1v8.6h-0.8l-0.1-0.8l0,0
	c-0.5,0.5-1.2,0.9-1.9,0.9C191.1,372.1,190.1,371,190.1,369z M194.5,370.4v-2.9c-0.4-0.4-0.9-0.7-1.5-0.7c-1.1,0.1-1.9,1.1-1.8,2.2
	c0,0,0,0,0,0.1c0,1.4,0.6,2.2,1.7,2.2C193.5,371.2,194.1,370.9,194.5,370.4L194.5,370.4z"/>
<path class="st8" d="M197.6,370.4c0-1.3,1.2-1.9,4.2-2.2c0-0.8-0.5-1.4-1.3-1.5c-0.1,0-0.2,0-0.3,0c-0.7,0.1-1.4,0.3-2,0.7l-0.4-0.7
	c0.8-0.5,1.7-0.8,2.6-0.8c1.2-0.1,2.3,0.7,2.4,1.9c0,0.2,0,0.3,0,0.5v3.6H202l-0.1-0.8l0,0c-0.6,0.5-1.4,0.9-2.3,0.9
	c-1,0.2-1.9-0.5-2-1.5C197.6,370.6,197.6,370.5,197.6,370.4z M201.8,370.4v-1.5c-2.5,0.2-3.2,0.7-3.2,1.5s0.6,0.9,1.3,0.9
	S201.3,370.9,201.8,370.4L201.8,370.4z"/>
<path class="st8" d="M204.5,369c-0.1-1.5,1-2.9,2.5-3.1h0.1c0.7,0,1.3,0.3,1.8,0.7l0,0l-0.1-1.1v-2.2h1v8.6H209l-0.1-0.8l0,0
	c-0.5,0.5-1.2,0.9-1.9,0.9C205.5,372.1,204.5,371,204.5,369z M208.9,370.4v-2.9c-0.4-0.4-0.9-0.7-1.5-0.7c-1.1,0.1-1.9,1.1-1.8,2.2
	c0,0,0,0,0,0.1c0,1.4,0.6,2.2,1.7,2.2C207.9,371.2,208.5,370.9,208.9,370.4L208.9,370.4z"/>
<path class="st8" d="M212,370.4c0-1.3,1.2-1.9,4.2-2.2c0-0.8-0.5-1.4-1.3-1.5c-0.1,0-0.2,0-0.3,0c-0.7,0.1-1.4,0.3-2,0.7l-0.4-0.7
	c0.8-0.5,1.7-0.8,2.6-0.8c1.2-0.1,2.3,0.8,2.4,1.9c0,0.2,0,0.3,0,0.5v3.6h-0.8l-0.1-0.8l0,0c-0.6,0.5-1.4,0.9-2.3,0.9
	c-1,0.2-1.9-0.5-2-1.5C212,370.6,212,370.5,212,370.4z M216.2,370.4v-1.5c-2.5,0.2-3.2,0.7-3.2,1.5s0.6,0.9,1.3,0.9
	C215,371.2,215.7,370.9,216.2,370.4L216.2,370.4z"/>
<path class="st8" d="M227.1,366.1h0.9l0.1,1.4l0,0c0.5-0.9,1.5-1.5,2.6-1.5c0.4,0,0.8,0.1,1.2,0.2l-0.2,0.9
	c-0.3-0.1-0.7-0.2-1.1-0.2c-1.1,0-2,0.7-2.4,1.7v3.4h-1L227.1,366.1z"/>
<path class="st8" d="M233.4,369c0-1.6,1.2-3,2.9-3h0.1c1.4-0.1,2.6,1,2.7,2.3c0,0.1,0,0.3,0,0.4c0,0.2,0,0.4-0.1,0.6h-4.9v-0.8h4.3
	l-0.2,0.3c0-1.4-0.7-2.1-1.8-2.1s-2,1-2,2.1c0,0.1,0,0.1,0,0.2c-0.1,1.2,0.8,2.2,1.9,2.3c0.1,0,0.2,0,0.3,0c0.6,0,1.3-0.2,1.8-0.5
	l0.4,0.6c-0.7,0.5-1.5,0.7-2.3,0.7c-1.7,0.1-3.1-1.2-3.2-2.8C233.4,369.2,233.4,369.1,233.4,369z"/>
<path class="st8" d="M240.8,369c0-1.7,1.3-3,2.9-3.1c0.1,0,0.2,0,0.3,0c0.8,0,1.6,0.3,2.1,0.9l-0.5,0.6c-0.4-0.4-1-0.6-1.6-0.7
	c-1.2,0-2.2,1-2.2,2.2s1,2.2,2.2,2.2l0,0c0.7,0,1.3-0.3,1.8-0.7l0.4,0.6c-0.6,0.6-1.5,0.9-2.3,0.9c-1.6,0.1-3-1-3.2-2.7
	C240.8,369.3,240.8,369.2,240.8,369z"/>
<path class="st8" d="M250.8,366.9h-2.7v-0.8h3.7v5.9h-1V366.9z M250.4,364.1c0-0.4,0.3-0.8,0.8-0.8c0.4,0,0.8,0.3,0.8,0.8
	c0,0.4-0.3,0.8-0.8,0.8l0,0C250.8,364.9,250.4,364.6,250.4,364.1C250.4,364.2,250.4,364.2,250.4,364.1z"/>
<path class="st8" d="M256.2,371.3L256.2,371.3l-0.1,0.6h-0.8v-8.5h1v2.3v1.1l0,0c0.5-0.5,1.2-0.9,2-0.9c1.6,0,2.4,1.2,2.4,3
	c0,2-1.2,3.2-2.6,3.2C257.4,372.1,256.7,371.8,256.2,371.3z M259.6,368.9c0-1.3-0.5-2.1-1.6-2.1c-0.7,0-1.3,0.4-1.7,0.9v2.9
	c0.4,0.4,1,0.7,1.6,0.7C258.9,371.3,259.6,370.4,259.6,368.9L259.6,368.9z"/>
<path class="st8" d="M265.2,366.9h-2.7v-0.8h3.7v5.9h-1V366.9z M264.8,364.1c0-0.4,0.3-0.8,0.8-0.8c0.4,0,0.8,0.3,0.8,0.8
	c0,0.4-0.3,0.8-0.8,0.8l0,0C265.2,364.9,264.8,364.6,264.8,364.1C264.8,364.2,264.8,364.2,264.8,364.1z"/>
<path class="st8" d="M270.3,366.1h0.8l0.1,1.4l0,0c0.5-0.9,1.5-1.5,2.6-1.5c0.4,0,0.8,0.1,1.1,0.2l-0.2,0.9
	c-0.3-0.1-0.7-0.2-1.1-0.2c-1.1,0-2,0.7-2.4,1.7v3.4h-1L270.3,366.1z"/>
<path class="st8" d="M276.8,370.4c0-1.3,1.2-1.9,4.2-2.2c0-0.8-0.5-1.4-1.3-1.5c-0.1,0-0.2,0-0.3,0c-0.7,0.1-1.4,0.3-2,0.7l-0.4-0.7
	c0.8-0.5,1.7-0.8,2.6-0.8c1.2-0.1,2.3,0.7,2.4,1.9c0,0.2,0,0.3,0,0.5v3.6h-0.8l-0.1-0.8l0,0c-0.6,0.5-1.4,0.9-2.3,0.9
	c-1,0.2-1.9-0.5-2-1.5C276.8,370.6,276.8,370.5,276.8,370.4z M281,370.4v-1.5c-2.5,0.2-3.2,0.7-3.2,1.5s0.6,0.9,1.3,0.9
	C279.8,371.3,280.5,370.9,281,370.4L281,370.4z M278.9,364.7l1.7-2l0.7,0.7l-1.9,1.8L278.9,364.7z"/>
<path class="st8" d="M103.9,384.1v-3.6h1v3.5c0,1.1,0.4,1.6,1.3,1.6c0.7,0,1.4-0.4,1.8-1.1v-4h1v5.8h-0.8l-0.1-1l0,0
	c-0.5,0.7-1.3,1.1-2.2,1.2C104.6,386.5,103.9,385.7,103.9,384.1z"/>
<path class="st8" d="M111.3,380.5h0.8l0.1,1l0,0c0.5-0.7,1.3-1.1,2.2-1.1c1.4,0,2,0.8,2,2.4v3.6h-1v-3.5c0-1.1-0.4-1.6-1.3-1.6
	c-0.7,0-1.2,0.4-1.8,1v4.1h-1L111.3,380.5z"/>
<path class="st8" d="M125.3,380.5h0.8l0.1,0.8l0,0c0.2-0.5,0.7-0.9,1.3-0.9c0.6,0,0.9,0.3,1.1,1c0.3-0.6,0.7-1,1.4-1
	s1.3,0.6,1.3,1.8v4.2h-1v-4.1c0-0.7-0.2-1-0.6-1s-0.6,0.3-0.9,0.9v4.2h-0.9v-4.1c0-0.7-0.2-1-0.6-1s-0.7,0.3-1,0.9v4.2h-1V380.5z"/>
<path class="st8" d="M132.6,383.4c0-1.6,1.2-3,2.8-3c0.1,0,0.1,0,0.2,0c1.4-0.1,2.6,0.9,2.7,2.3c0,0.1,0,0.3,0,0.4
	c0,0.2,0,0.4-0.1,0.6h-4.9V383h4.3l-0.2,0.3c0-1.4-0.7-2.1-1.8-2.1s-2,0.9-2,2c0,0.1,0,0.2,0,0.3c-0.1,1.2,0.8,2.2,1.9,2.3
	c0.1,0,0.2,0,0.4,0c0.6,0,1.2-0.2,1.8-0.5l0.4,0.6c-0.7,0.5-1.4,0.7-2.2,0.7c-1.7,0.1-3.1-1.2-3.2-2.8
	C132.6,383.6,132.6,383.5,132.6,383.4z"/>
<path class="st8" d="M140.1,380.5h0.8l0.1,1h0.1c0.5-0.7,1.3-1.1,2.2-1.1c1.4,0,2,0.8,2,2.4v3.6h-1v-3.5c0-1.1-0.4-1.6-1.3-1.6
	c-0.7,0-1.2,0.4-1.8,1v4.1h-1L140.1,380.5z"/>
<path class="st8" d="M147.1,385.6l0.5-0.7c0.7,0.5,1.6,0.8,2.5,0.8c1,0,1.5-0.4,1.5-0.9s-0.2-0.8-1.8-1.1s-2.3-0.8-2.3-1.7
	s0.8-1.6,2.4-1.6c0.8,0,1.7,0.3,2.4,0.7l-0.5,0.6c-0.6-0.4-1.3-0.6-1.9-0.6c-1,0-1.3,0.4-1.3,0.8s0.5,0.7,1.7,1
	c1.9,0.4,2.4,0.9,2.4,1.8s-0.9,1.7-2.6,1.7C148.9,386.5,147.9,386.2,147.1,385.6z"/>
<path class="st8" d="M154.4,384.8c0-1.3,1.2-1.9,4.2-2.2c0-0.8-0.5-1.4-1.3-1.5c-0.1,0-0.2,0-0.3,0c-0.7,0-1.4,0.3-2,0.7l-0.4-0.7
	c0.8-0.5,1.7-0.8,2.6-0.8c1.2-0.1,2.3,0.7,2.4,1.9c0,0.2,0,0.3,0,0.5v3.6h-0.8l-0.1-0.8l0,0c-0.6,0.5-1.4,0.9-2.3,0.9
	c-1,0.2-1.9-0.5-2-1.5C154.4,385,154.4,384.9,154.4,384.8z M158.6,384.8v-1.5c-2.5,0.2-3.2,0.7-3.2,1.5s0.6,0.9,1.3,0.9
	C157.4,385.7,158.1,385.3,158.6,384.8L158.6,384.8z"/>
<path class="st8" d="M161.3,388.6l0.3-0.8c0.4,0.2,0.9,0.3,1.3,0.3c1.1,0,1.5-0.6,1.5-1.6v-5.2h-2.7v-0.8h3.7v6
	c0.2,1.2-0.6,2.3-1.8,2.4c-0.2,0-0.4,0-0.7,0C162.3,389,161.8,388.8,161.3,388.6z M164,378.6c0-0.4,0.4-0.8,0.8-0.8
	c0.4,0,0.8,0.4,0.8,0.8s-0.4,0.8-0.8,0.8C164.3,379.4,164,379,164,378.6z"/>
<path class="st8" d="M168.6,383.4c0-1.6,1.2-3,2.9-3h0.1c1.4-0.1,2.6,0.9,2.7,2.3c0,0.1,0,0.3,0,0.4c0,0.2,0,0.4-0.1,0.6h-4.9V383
	h4.4l-0.3,0.3c0-1.4-0.7-2.1-1.8-2.1s-2,0.9-2,2c0,0.1,0,0.2,0,0.3c-0.1,1.2,0.8,2.2,1.9,2.3c0.1,0,0.2,0,0.4,0
	c0.6,0,1.2-0.2,1.8-0.5l0.4,0.6c-0.7,0.5-1.4,0.7-2.2,0.7c-1.7,0.1-3.1-1.2-3.2-2.8C168.6,383.6,168.6,383.5,168.6,383.4z"/>
<path class="st8" d="M183.3,380.5h0.8l0.1,0.8l0,0c0.5-0.5,1.2-0.8,2-0.9c1.6,0,2.4,1.2,2.4,3c0,2-1.2,3.1-2.6,3.1
	c-0.6,0-1.3-0.3-1.7-0.8l0,0l0.1,1.1v2h-1L183.3,380.5z M187.6,383.3c0-1.3-0.5-2.1-1.6-2.1c-0.7,0-1.3,0.4-1.7,0.9v2.9
	c0.4,0.4,1,0.6,1.6,0.7C186.9,385.7,187.6,384.8,187.6,383.3L187.6,383.3z"/>
<path class="st8" d="M190.1,383.5c0.1-1.6,1.5-2.8,3-2.7c1.6,0.1,2.8,1.5,2.7,3s-1.3,2.7-2.9,2.7c-1.6,0-2.9-1.2-2.9-2.8
	C190.1,383.6,190.1,383.5,190.1,383.5z M194.8,383.5c0-1.3-0.7-2.2-1.9-2.2s-1.9,0.9-1.9,2.2s0.7,2.2,1.9,2.2
	S194.9,384.8,194.8,383.5L194.8,383.5z"/>
<path class="st8" d="M198.3,380.5h0.8l0.1,1.4l0,0c0.5-0.9,1.5-1.5,2.6-1.5c0.4,0,0.8,0.1,1.1,0.2l-0.2,0.9
	c-0.3-0.1-0.7-0.2-1.1-0.2c-1.1,0-2,0.7-2.4,1.7v3.4h-1L198.3,380.5z"/>
<path class="st8" d="M211.8,383.4c0-1.6,1.2-3,2.9-3h0.1c1.4-0.1,2.6,0.9,2.7,2.3c0,0.1,0,0.3,0,0.4c0,0.2,0,0.4,0,0.6h-4.9V383h4.3
	l-0.2,0.3c0-1.4-0.7-2.1-1.8-2.1s-2,0.9-2,2c0,0.1,0,0.2,0,0.3c-0.1,1.2,0.8,2.2,1.9,2.3c0.1,0,0.2,0,0.3,0c0.6,0,1.3-0.2,1.8-0.5
	l0.4,0.6c-0.7,0.5-1.5,0.7-2.3,0.7c-1.7,0.1-3.1-1.1-3.2-2.8C211.8,383.7,211.8,383.5,211.8,383.4z"/>
<path class="st8" d="M218.9,380.5h0.8l0.1,0.8l0,0c0.2-0.5,0.7-0.9,1.3-0.9s0.9,0.3,1.1,1c0.3-0.6,0.7-1,1.4-1s1.3,0.6,1.3,1.8v4.2
	h-1v-4.1c0-0.7-0.2-1-0.6-1s-0.6,0.3-0.9,0.9v4.2h-0.9v-4.1c0-0.7-0.2-1-0.6-1s-0.7,0.3-1,0.9v4.2h-1L218.9,380.5z"/>
<path class="st8" d="M226.4,384.8c0-1.3,1.2-1.9,4.2-2.2c0-0.8-0.5-1.4-1.3-1.5c-0.1,0-0.2,0-0.3,0c-0.7,0-1.4,0.3-2,0.7l-0.4-0.7
	c0.8-0.5,1.7-0.8,2.6-0.8c1.2-0.1,2.2,0.7,2.4,1.9c0,0.2,0,0.3,0,0.5v3.6h-0.8l-0.1-0.8l0,0c-0.6,0.5-1.4,0.9-2.3,0.9
	c-1,0.2-1.9-0.5-2-1.5C226.4,385,226.4,384.9,226.4,384.8z M230.6,384.8v-1.5c-2.5,0.2-3.2,0.7-3.2,1.5s0.6,0.9,1.3,0.9
	C229.4,385.7,230.1,385.3,230.6,384.8L230.6,384.8z"/>
<path class="st8" d="M236.4,381.3h-2.7v-0.8h3.7v5.8h-1V381.3z M236,378.5c0-0.4,0.4-0.8,0.8-0.8c0.4,0,0.8,0.4,0.8,0.8
	s-0.4,0.8-0.8,0.8C236.3,379.3,236,379,236,378.5z"/>
<path class="st8" d="M242.8,384.4v-5.8h-2.1v-0.8h3.1v6.7c-0.1,0.6,0.3,1.1,0.9,1.2c0.1,0,0.2,0,0.3,0c0.4,0,0.8-0.1,1.1-0.3
	l0.2,0.8c-0.5,0.2-1,0.4-1.6,0.4C243.4,386.5,242.8,385.8,242.8,384.4z"/>
<path class="st9" d="M72.1,420h205.7c5,0,9,4,9,9v26c0,5-4,9-9,9H72.1c-5,0-9-4-9-9v-26C63.1,424,67.2,420,72.1,420z"/>
<path class="st10" d="M175,251.7c16.6,0,30.1,13.5,30.1,30.1s-13.5,30.1-30.1,30.1s-30.1-13.5-30.1-30.1l0,0
	C144.9,265.2,158.4,251.8,175,251.7z M175,245.7c-19.9,0-36.1,16.2-36.1,36.1s16.2,36.1,36.1,36.1s36.1-16.2,36.1-36.1
	S194.9,245.7,175,245.7L175,245.7L175,245.7z M188.2,268.3l-17,17.4l-8-7.5l-5.6,5.6l13.5,13.1l22.6-23L188.2,268.3z"/>
<path class="st4" d="M147.2,445c-0.4,0.2-0.8,0.4-1.2,0.5s-0.7,0.2-1.1,0.2c-0.4,0.1-0.8,0.1-1.2,0.1c-1.5,0.1-3-0.5-4-1.6
	c-0.9-1.2-1.3-2.6-1.3-4.1c-0.1-1.5,0.4-2.9,1.3-4.1c1-1.1,2.5-1.7,4-1.6c1.1,0,2.3,0.2,3.4,0.5v1.4c-0.7-0.3-1.5-0.5-2.2-0.7
	c-0.4-0.1-0.8-0.1-1.2-0.1c-1.1,0-2.1,0.5-2.8,1.4c-0.6,1-0.9,2.1-0.9,3.2c-0.1,1.2,0.3,2.3,1,3.2c0.7,0.8,1.8,1.3,2.9,1.2
	c0.3,0,0.7,0,1-0.1s0.7-0.2,1-0.3c0.4-0.2,0.8-0.4,1.2-0.6L147.2,445z"/>
<path class="st4" d="M153,445.8c-0.7,0-1.4-0.1-2-0.5c-0.6-0.3-1-0.8-1.3-1.5s-0.5-1.5-0.5-2.2s0.1-1.5,0.4-2.2
	c0.3-0.6,0.7-1.1,1.3-1.5c1.3-0.6,2.7-0.6,4,0c0.6,0.3,1.1,0.9,1.3,1.5c0.3,0.7,0.5,1.5,0.5,2.2s-0.1,1.5-0.5,2.2
	c-0.3,0.6-0.7,1.1-1.3,1.5C154.4,445.6,153.7,445.8,153,445.8z M153,444.7c0.7,0,1.3-0.3,1.7-0.8c0.8-1.4,0.8-3.1,0-4.5
	c-0.4-0.5-1-0.8-1.7-0.8s-1.3,0.3-1.7,0.8c-0.8,1.4-0.8,3.1,0,4.5C151.7,444.4,152.3,444.7,153,444.7z"/>
<path class="st4" d="M159.3,445.6v-8h1.4v1.5c0.3-0.5,0.8-0.9,1.3-1.2c0.5-0.3,1-0.4,1.5-0.4c0.6,0,1.2,0.2,1.6,0.6
	c0.4,0.5,0.7,1.1,0.6,1.8v5.7h-1.4v-5.2c0-0.4,0-0.7-0.1-1.1c-0.1-0.2-0.2-0.3-0.4-0.4s-0.4-0.2-0.6-0.1c-0.4,0-0.8,0.1-1.1,0.3
	c-0.6,0.4-1,0.8-1.4,1.4v5.2L159.3,445.6z"/>
<path class="st4" d="M172.4,445.6c-0.4,0.1-0.8,0.2-1.2,0.2c-1.2,0.1-2.2-0.8-2.3-2c0-0.1,0-0.3,0-0.4v-4.7h-1v-1.1h1v-1.4l1.4-0.1
	v1.6h2.1v1.1h-2.1v4.4c0,0.4,0.1,0.9,0.3,1.2c0.3,0.3,0.6,0.4,1,0.4c0.2,0,0.5,0,0.7-0.1L172.4,445.6z"/>
<path class="st4" d="M174.8,436.2v-1.4h1.4v1.4H174.8z M174.8,445.6v-8h1.4v8H174.8z"/>
<path class="st4" d="M179.4,445.6v-8h1.4v1.5c0.3-0.5,0.8-0.9,1.3-1.2c0.5-0.3,1-0.4,1.5-0.4c0.6,0,1.2,0.2,1.6,0.6
	c0.4,0.5,0.7,1.1,0.6,1.8v5.7h-1.4v-5.2c0-0.4,0-0.7-0.1-1.1c-0.1-0.2-0.2-0.3-0.4-0.4s-0.4-0.2-0.6-0.1c-0.4,0-0.8,0.1-1.1,0.3
	c-0.6,0.4-1,0.8-1.4,1.4v5.2L179.4,445.6z"/>
<path class="st4" d="M194,445.6v-1.5c-0.3,0.5-0.8,0.9-1.3,1.2c-0.5,0.3-1,0.4-1.5,0.4c-0.6,0-1.2-0.2-1.6-0.6
	c-0.4-0.5-0.7-1.1-0.6-1.8v-5.7h1.4v5.2c0,0.4,0,0.7,0.1,1.1c0.1,0.2,0.2,0.3,0.4,0.4s0.4,0.1,0.6,0.1c0.4,0,0.8-0.1,1.1-0.3
	c0.6-0.4,1-0.8,1.4-1.4v-5.2h1.4v8L194,445.6z"/>
<path class="st4" d="M202.8,444.6c-0.4,0.4-0.8,0.7-1.3,0.9c-0.4,0.2-0.8,0.3-1.2,0.3c-0.6,0-1.1-0.2-1.6-0.6s-0.8-1-0.7-1.6
	c0-0.8,0.4-1.5,1-1.9c1-0.6,2.1-0.9,3.3-0.8h0.3v-1c0-0.3,0-0.6-0.1-0.8c-0.1-0.2-0.3-0.3-0.5-0.4c-0.3-0.1-0.5-0.2-0.8-0.1
	c-0.9,0-1.7,0.3-2.5,0.7V438c0.9-0.4,1.8-0.6,2.8-0.6c0.4,0,0.9,0.1,1.3,0.2c0.4,0.1,0.7,0.4,0.9,0.7c0.3,0.5,0.4,1,0.4,1.5v3.6
	c0,0.3,0,0.5,0.1,0.8c0.1,0.1,0.1,0.2,0.3,0.3c0.1,0.1,0.3,0.1,0.4,0.1h0.3l0.1,0.8c-0.3,0.2-0.7,0.2-1.1,0.2
	c-0.3,0-0.5-0.1-0.8-0.3C203,445.3,202.8,444.9,202.8,444.6z M202.5,443.8v-2.1H202c-0.7,0-1.3,0.1-1.9,0.4
	c-0.5,0.2-0.8,0.7-0.8,1.2c0,0.3,0.1,0.7,0.4,0.9c0.2,0.2,0.6,0.4,0.9,0.4c0.3,0,0.6-0.1,0.9-0.2C201.9,444.2,202.2,444,202.5,443.8
	z"/>
<path class="st4" d="M207.2,445.6v-8h1.4v1.5c0.2-0.5,0.6-0.9,1.1-1.2c0.4-0.3,0.9-0.4,1.4-0.4c0.2,0,0.3,0,0.5,0v1.3
	c-0.6-0.2-1.4-0.1-1.9,0.3c-0.4,0.3-0.8,0.8-1,1.2v5.2L207.2,445.6z"/>
</svg>
